<?xml version="1.0" standalone="no"?>
<!DOCTYPE svg PUBLIC "-//W3C//DTD SVG 1.1//EN" "http://www.w3.org/Graphics/SVG/1.1/DTD/svg11.dtd" >
<svg xmlns="http://www.w3.org/2000/svg" xmlns:xlink="http://www.w3.org/1999/xlink" version="1.1">
<metadata></metadata>
<defs>
<font id="swansearegular" horiz-adv-x="1140" >
<font-face units-per-em="2048" ascent="1638" descent="-410" />
<missing-glyph horiz-adv-x="567" />
<glyph horiz-adv-x="0" />
<glyph horiz-adv-x="682" />
<glyph unicode=" "  horiz-adv-x="567" />
<glyph unicode="&#x09;" horiz-adv-x="567" />
<glyph unicode="&#xa0;" horiz-adv-x="567" />
<glyph unicode="!" horiz-adv-x="567" d="M184 0h197v209h-197v-209zM184 977l47 -629h101l49 633v492h-197v-496z" />
<glyph unicode="&#x22;" horiz-adv-x="727" d="M139 948h154v525h-154v-525zM432 948h152v525h-152v-525z" />
<glyph unicode="#" d="M55 428h213l-59 -428h135l55 428h260l-59 -428h135l62 428h207l20 131h-213l41 289h213l18 133h-211l60 428h-139l-58 -428h-256l62 428h-138l-59 -428h-213l-18 -133h211l-39 -289h-209zM420 559l41 289h256l-41 -289h-256z" />
<glyph unicode="$" d="M63 436q0 -170 60 -272q59 -104 158 -150q47 -23 114 -39q61 -16 121 -16v-195h96v195q96 0 203 41q104 41 178 141q72 102 72 258q0 289 -453 416v494q127 -25 181 -84q49 -61 63 -158h172q0 211 -129 293q-131 82 -287 96v131h-96v-131q-115 0 -215 -53 q-96 -55 -154 -146q-55 -92 -55 -200q0 -96 35 -170q35 -72 92 -115q57 -45 131 -70q63 -25 166 -51v-542q-106 16 -158 49q-57 35 -84 100q-16 43 -22 82q-8 35 -8 96h-181zM272 1067q0 57 29 119q27 55 84 90q53 33 131 33v-473q-109 18 -174 75q-70 57 -70 156zM612 109 v520q121 -39 199 -99q74 -61 74 -174q0 -76 -39 -127q-37 -57 -101 -88q-61 -33 -133 -32z" />
<glyph unicode="%" horiz-adv-x="1820" d="M80 1071q0 -90 47 -172q47 -84 127 -127q84 -47 174 -47t174 47q80 45 131 125q47 84 47 174q0 92 -47 176q-49 80 -129 129q-84 47 -176 47q-90 0 -174 -47q-80 -47 -127 -131t-47 -174zM223 1075q0 80 56 144q53 61 145 61q100 0 156 -59q53 -63 53 -146 q0 -82 -55 -143q-57 -63 -154 -64q-90 0 -143 62q-31 35 -43 67q-14 31 -15 78zM449 -41h110l813 1481h-117zM1036 324q0 -90 47 -174q49 -88 127 -132q84 -47 174 -47t175 47q82 45 129 132q45 82 45 174q0 76 -27 137q-25 57 -76 108t-108 76q-62 27 -138 27 q-90 0 -172 -47q-82 -45 -129 -127q-47 -84 -47 -174zM1180 324q0 84 55 145q53 59 145 59q98 0 154 -59q53 -59 53 -145q0 -47 -22 -99q-29 -49 -72 -75q-47 -29 -113 -29q-90 0 -145 61q-55 59 -55 142z" />
<glyph unicode="&#x26;" horiz-adv-x="1368" d="M84 369q0 -68 20 -123q20 -66 52 -115q111 -164 364 -164q102 0 182 27q80 25 140 72q61 47 106 102l139 -168h234l-260 315q55 106 84 197q31 92 31 180h-168q-27 -143 -60 -231l-268 319q78 53 129 99q51 45 94 122q41 76 41 166q0 78 -35 150q-33 70 -110 113 q-76 43 -187 43q-113 0 -188 -46q-80 -47 -119 -122q-41 -78 -41 -160q0 -27 4 -60q4 -25 13 -49q12 -33 22 -51q6 -14 16 -33l7 -12l94 -125q-219 -119 -285 -240q-25 -47 -37 -96q-14 -49 -14 -110zM268 369q0 74 29 127t78 94q72 55 145 102l332 -403 q-115 -164 -320 -164q-45 0 -106 25q-66 25 -111 81q-47 57 -47 138zM440 1155q0 59 37 111q37 51 135 51q61 0 109 -39q47 -41 47 -125t-47 -137q-51 -58 -137 -117q-47 47 -97 123q-47 72 -47 133z" />
<glyph unicode="'" horiz-adv-x="456" d="M109 948q74 14 120 62q31 31 43 53q18 31 27 55q20 59 20 133v222h-210v-222h106q0 -188 -106 -207v-96z" />
<glyph unicode="(" horiz-adv-x="679" d="M139 580q0 -82 6 -144q2 -39 13 -123l2 -8q10 -84 22 -123q12 -51 31 -104q43 -113 106 -225q68 -121 177 -281l116 4q-74 123 -133 266q-53 131 -86 244q-33 115 -45 207q-10 63 -16 123q-4 45 -4 100q0 160 20 283q23 141 60 254q41 123 86 227q63 129 114 219h-125 q-78 -96 -164 -260q-80 -154 -131 -330q-49 -172 -49 -329z" />
<glyph unicode=")" horiz-adv-x="679" d="M68 -424h129q57 72 127 197q57 102 114 256q47 131 76 270q27 127 27 246q0 168 -45 323q-49 170 -103 283q-61 125 -117 213l-88 135h-120q113 -227 151 -328q55 -129 82 -237q8 -31 16 -72q4 -14 7 -24q4 -29 12 -90q0 -10 4 -41q2 -43 4 -72q4 -86 4 -131 q1 -451 -280 -928z" />
<glyph unicode="*" horiz-adv-x="796" d="M80 1212l219 -71l-135 -189l100 -67l131 190l137 -194l101 71l-141 189l225 71l-45 111l-215 -80v230h-121v-230l-215 80z" />
<glyph unicode="+" horiz-adv-x="1196" d="M80 440h444v-440h148v440h444v152h-444v440h-148v-440h-444v-152z" />
<glyph unicode="," horiz-adv-x="567" d="M176 0h113q0 -209 -113 -209v-94q211 45 211 303v215h-211v-215z" />
<glyph unicode="-" horiz-adv-x="679" d="M88 475h504v184h-504v-184z" />
<glyph unicode="." horiz-adv-x="567" d="M176 0h227v223h-227v-223z" />
<glyph unicode="/" horiz-adv-x="567" d="M-37 -41h137l504 1548h-135z" />
<glyph unicode="0" d="M72 672q0 -184 51 -344q53 -168 164 -267q113 -102 280 -102q121 0 215 55q92 51 160 150q61 96 90 223q29 131 29 283v55q0 113 -19 219q-23 113 -53 186q-61 160 -168 236q-106 74 -254 74q-158 0 -264 -82q-98 -74 -151 -209q-54 -140 -72 -330l-4 -71zM268 739 q0 133 29 260q29 125 94 199q68 78 172 78q90 0 162 -59q66 -59 106 -191q37 -131 37 -334q0 -137 -18 -258q-23 -127 -90 -217q-72 -96 -197 -96q-164 0 -229 172q-66 174 -66 446z" />
<glyph unicode="1" d="M205 1020h336v-1020h194v1440h-143q-16 -98 -60 -154q-41 -59 -90 -80q-59 -25 -129 -32l-108 -11v-143z" />
<glyph unicode="2" d="M51 0h985v168h-780q18 66 49 115q29 47 72 77q96 70 274 162q186 96 283 199q49 53 78 123q25 66 24 151q0 150 -63 250t-170 148q-106 47 -219 47q-170 0 -283 -70q-111 -70 -162 -188q-51 -115 -51 -258h180q0 352 299 352q123 0 201 -72q76 -70 76 -200 q0 -139 -78 -199q-80 -66 -283 -176q-203 -113 -315 -250q-57 -70 -86 -164q-31 -94 -31 -215z" />
<glyph unicode="3" d="M68 440q0 -135 38 -225q39 -94 107 -149q131 -106 336 -107q162 0 282 66q117 63 177 161q57 94 57 183q0 141 -57 252t-185 139q188 59 189 332q0 88 -51 165q-49 78 -156 132q-98 51 -238 51q-158 0 -258 -64q-106 -66 -153 -170q-51 -104 -52 -237h177q0 92 32 157 q31 72 93 111q59 39 149 39q76 0 135 -27q57 -27 98 -84q35 -59 35 -129q0 -100 -75 -162q-76 -63 -224 -63l-67 4v-151h55q158 0 260 -54q100 -55 100 -211l-4 -67q-12 -88 -104 -150q-53 -35 -102 -49q-55 -16 -113 -16q-41 6 -121 22q-80 35 -125 109q-47 76 -47 192 h-188z" />
<glyph unicode="4" d="M47 348h633v-348h180v348h211v156h-211v936h-151l-662 -916v-176zM215 504l465 659v-659h-465z" />
<glyph unicode="5" d="M63 356q0 -76 41 -157q41 -82 101 -129q35 -27 74 -50q33 -18 77 -32q96 -29 193 -29q90 0 158 21q72 18 131 57q113 72 163 182q51 111 52 260q0 100 -39 180t-105 140q-63 57 -151 92q-86 33 -183 33q-80 0 -157 -23q-74 -20 -119 -65l61 397h613v176h-750l-106 -772 l155 -8q35 66 111 98q74 33 162 33q135 0 225 -84q90 -86 90 -260q0 -66 -24 -119q-29 -59 -72 -98q-82 -82 -201 -82q-281 0 -311 239h-189z" />
<glyph unicode="6" d="M74 602q0 -154 39 -270q37 -119 108 -203q35 -43 80 -76q39 -31 90 -49q104 -45 221 -45q135 0 238 72q102 72 160 182q55 115 55 240t-57 231q-57 104 -168 170q-113 66 -232 66q-121 0 -211 -54q-86 -49 -133 -139q0 98 15 172q12 80 38 141q47 123 123 179 q70 57 160 57q104 0 172 -55q63 -57 80 -164h176q0 113 -57 200q-57 88 -158 136q-51 25 -98 34q-51 12 -103 13q-88 0 -159 -25q-78 -29 -129 -72q-111 -88 -162 -213q-31 -70 -43 -120q-14 -47 -21 -109q-14 -92 -18 -131q-4 -50 -4 -111v-32zM289 416q0 100 35 180 q35 82 102 119q70 41 162 41q117 0 200 -78q84 -80 84 -242q0 -152 -86 -235q-88 -80 -186 -80q-74 0 -149 35q-37 16 -64 43q-37 37 -51 57q-47 72 -47 160z" />
<glyph unicode="7" d="M76 1233h792q-100 -119 -215 -295q-111 -166 -223 -420q-109 -246 -154 -518h199q53 248 123 438q20 61 66 168l4 12q27 63 71 150q37 72 74 129q31 49 74 111q43 61 80 110l18 25q39 49 86 108v158h-995v-176z" />
<glyph unicode="8" d="M76 412q0 -98 26 -179q29 -86 121 -161q74 -55 168 -86q90 -33 184 -33q92 0 187 35q90 35 158 98q66 61 104 147q37 84 37 183q0 102 -55 200q-55 94 -183 148q59 35 92 61q33 27 64 86q29 68 29 156q0 94 -45 178q-45 82 -150 139q-100 55 -250 56q-164 0 -258 -64 q-100 -66 -139 -155q-41 -94 -41 -177q0 -207 194 -280q-244 -102 -243 -352zM268 408q0 74 33 131q35 59 102 98q66 39 164 39q129 0 213 -72t84 -209q0 -274 -289 -274q-117 0 -182 45q-70 47 -96 113q-29 68 -29 129zM311 1053q0 86 56 155q59 68 186 68q145 0 205 -64 q61 -63 61 -147q0 -104 -69 -168q-72 -66 -187 -66q-98 0 -176 62q-76 61 -76 160z" />
<glyph unicode="9" d="M84 915q0 -131 63 -231q68 -104 168 -156q104 -53 209 -53q49 0 99 12q51 14 92 33q90 41 157 121q-18 -180 -67 -301q-53 -127 -121 -176q-70 -55 -156 -55q-221 0 -247 235h-181q0 -61 17 -117q14 -49 47 -98q59 -84 155 -127q94 -45 209 -45l47 2q102 8 185 61 q88 55 149 152q66 102 105 260q39 154 39 387q0 160 -45 295t-160 232q-115 94 -316 94q-55 0 -106 -10q-41 -10 -92 -35q-78 -39 -137 -111q-57 -70 -86 -164q-27 -92 -27 -205zM272 977q0 129 78 213q41 41 92 65q53 25 113 25q104 0 188 -66q80 -66 97 -198l4 -60 q0 -90 -35 -165q-35 -68 -100 -109q-66 -41 -160 -41l-8 -4q-269 0 -269 340z" />
<glyph unicode=":" horiz-adv-x="567" d="M176 0h215v215h-215v-215zM176 840h215v217h-215v-217z" />
<glyph unicode=";" horiz-adv-x="567" d="M176 0h109q0 -201 -109 -209v-94q72 8 143 76q72 66 72 243v199h-215v-215zM176 840h215v217h-215v-217z" />
<glyph unicode="&#x3c;" horiz-adv-x="1196" d="M96 444l1000 -424v164l-799 332l799 332v164l-1000 -424v-144z" />
<glyph unicode="=" horiz-adv-x="1196" d="M80 236h1036v149h-1036v-149zM80 647h1036v154h-1036v-154z" />
<glyph unicode="&#x3e;" horiz-adv-x="1196" d="M96 20l1000 424v144l-1000 424v-164l801 -332l-801 -332v-164z" />
<glyph unicode="?" d="M113 1008h180q0 164 67 243q68 80 215 80q78 0 130 -33q51 -33 75 -86q25 -55 25 -120q0 -119 -70 -189l-180 -186q-98 -106 -98 -344h180q0 74 6 119q10 51 37 96q33 55 84 108l78 86l88 99q33 41 49 96q20 47 20 119q0 78 -24 147q-29 70 -78 125q-51 55 -133 88 q-72 33 -180 33q-156 0 -260 -62q-106 -59 -158 -167q-53 -109 -53 -252zM453 0h194v209h-194v-209z" />
<glyph unicode="@" horiz-adv-x="2080" d="M299 739q0 -211 104 -393q100 -180 285 -283q182 -104 395 -104q131 0 250 43q117 43 221 127q96 80 170 190h-141q-55 -68 -137 -122q-80 -53 -174 -80q-98 -29 -185 -29q-172 0 -321 84q-150 82 -234 231q-84 145 -83 324q0 180 79 330q80 152 224 239q143 88 319 88 q158 0 287 -63q133 -66 211 -186q76 -119 76 -283q0 -109 -46 -211q-45 -100 -112 -166q-66 -63 -135 -63q-39 0 -39 59q0 25 24 113q8 43 31 112q23 80 47 160l80 285h-139l-39 -129q-76 160 -238 159q-139 0 -248 -84t-167 -215q-29 -66 -46 -135q-14 -59 -14 -133 q0 -92 39 -164q41 -74 109 -118q70 -45 155 -46q123 0 248 132q0 -61 41 -97q41 -35 92 -35q70 0 154 41t164 121q82 82 127 189q47 111 47 241q0 139 -58 256q-57 119 -155 205q-100 88 -228 133q-127 45 -268 45q-203 0 -383 -100q-178 -100 -285 -281 q-104 -178 -104 -387zM764 588q0 45 12 94q10 49 31 104q35 96 108 170q72 68 168 68q172 0 172 -164q1 -61 -34 -176q-39 -106 -113 -182q-78 -78 -164 -78q-180 0 -180 164z" />
<glyph unicode="A" horiz-adv-x="1368" d="M29 0h202l154 428h592l143 -428h219l-530 1473h-229zM449 604l235 651l219 -651h-454z" />
<glyph unicode="B" horiz-adv-x="1368" d="M147 0h676q125 0 230 55q104 55 166 164q61 109 61 250q0 121 -74 203q-76 82 -190 121q57 20 100 67q47 43 68 107q24 59 24 127v6q0 106 -53 194q-51 86 -143 133q-90 47 -201 48h-664v-1475zM348 168v516h395q201 0 271 -70q69 -69 69 -194q0 -57 -28 -121 q-31 -57 -94 -94t-152 -37h-461zM348 848v452h383q145 0 215 -59q66 -59 66 -184q0 -78 -64 -142q-62 -67 -209 -67h-4h-387z" />
<glyph unicode="C" horiz-adv-x="1480" d="M86 748l2 -23q0 -80 12 -152t39 -151q41 -139 121 -240q84 -106 211 -164q129 -59 297 -59q88 0 162 21q84 25 147 59q137 76 219 207t101 295h-197q-29 -190 -141 -297q-117 -109 -311 -109l-9 -4q-41 0 -86 10q-49 12 -82 27q-76 37 -141 111q-63 80 -98 194 q-35 117 -35 275q0 162 45 278q47 123 133 197q86 76 201 98l55 6l57 4q152 0 259 -76q109 -76 141 -227h192q-29 184 -131 293q-106 113 -235 152q-126 38 -248 38h-6q-113 0 -209 -30q-104 -37 -176 -90q-152 -109 -219 -273q-70 -164 -70 -348v-22z" />
<glyph unicode="D" horiz-adv-x="1480" d="M164 0h624q190 0 328 115q135 117 199 299q65 181 65 368v6q0 111 -24 205q-27 92 -74 172q-86 158 -221 234q-133 76 -281 76h-616v-1475zM365 168v1132h387q106 0 190 -40q84 -43 135 -117q51 -72 76 -170q23 -106 23 -201q0 -158 -46 -291q-45 -135 -135 -225 q-88 -88 -219 -88h-411z" />
<glyph unicode="E" horiz-adv-x="1368" d="M176 0h1084v176h-887v492h807v176h-807v448h874v181h-1071v-1473z" />
<glyph unicode="F" horiz-adv-x="1251" d="M176 0h197v668h723v176h-723v448h819v181h-1016v-1473z" />
<glyph unicode="G" horiz-adv-x="1591" d="M96 748q0 -172 37 -314q37 -139 117 -248q82 -111 215 -168q135 -59 315 -59q92 0 191 29q86 25 170 82q78 53 123 118l49 -188h127v784h-643v-168h458q0 -131 -32 -223q-33 -94 -131 -170q-133 -106 -308 -106q-59 0 -108 14q-47 12 -103 37q-98 45 -157 131 q-117 154 -117 436q0 141 37 252q39 115 106 189q68 78 154 116q84 39 188 39q152 0 275 -67q121 -68 166 -240h190q-18 160 -112 268q-98 111 -232 162q-141 53 -278 53q-227 0 -385 -112q-158 -113 -236 -289q-76 -172 -76 -358z" />
<glyph unicode="H" horiz-adv-x="1480" d="M156 0h200v684h768v-684h199v1473h-199v-613h-768v613h-200v-1473z" />
<glyph unicode="I" horiz-adv-x="567" d="M184 0h201v1473h-201v-1473z" />
<glyph unicode="J" horiz-adv-x="1024" d="M33 328q0 -84 39 -166q37 -86 131 -144q96 -59 250 -59q106 0 204 41t158 137q61 98 62 258v1078h-201v-1088q0 -117 -53 -186q-51 -70 -183 -70q-106 0 -164 57q-57 55 -57 183v102h-186v-143z" />
<glyph unicode="K" horiz-adv-x="1368" d="M156 0h196v516l232 219l516 -735h256l-629 877l612 596h-272l-715 -717v717h-196v-1473z" />
<glyph unicode="L" d="M156 0h944v176h-748v1297h-196v-1473z" />
<glyph unicode="M" horiz-adv-x="1703" d="M147 0h189v1233l420 -1233h196l412 1237v-1237h197v1473h-285l-420 -1250l-424 1250h-285v-1473z" />
<glyph unicode="N" horiz-adv-x="1480" d="M156 0h192v1188l752 -1188h223v1473h-190v-1192l-742 1192h-235v-1473z" />
<glyph unicode="O" horiz-adv-x="1591" d="M80 735q0 -129 37 -262q37 -129 121 -252q84 -121 223 -190q141 -72 336 -72q193 0 336 72q141 72 223 190q80 115 119 250q36 133 36 264t-36 262q-37 131 -121 250q-82 117 -224 189q-137 71 -328 71h-5q-193 0 -334 -71q-141 -72 -225 -189q-88 -123 -121 -250 q-37 -131 -37 -262zM285 735q0 172 61 307t176 213q113 76 275 76q160 0 274 -76q117 -78 176 -211q62 -137 62 -309q0 -170 -62 -309q-61 -137 -176 -215q-115 -76 -274 -76q-160 0 -273 76q-117 78 -178 215q-61 139 -61 309z" />
<glyph unicode="P" horiz-adv-x="1368" d="M176 0h197v621h463q147 0 247 65q98 63 144 162q45 94 45 209t-53 215q-53 98 -154 149q-102 53 -229 54h-660v-1475zM373 788v512h403q291 0 291 -243q0 -268 -299 -269h-395z" />
<glyph unicode="Q" horiz-adv-x="1591" d="M80 735q0 -129 37 -262q37 -129 121 -252q84 -121 223 -190q141 -72 336 -72q229 0 379 100l225 -176l98 121l-199 156q109 109 160 264q51 152 51 311q0 131 -36 262q-37 131 -121 250q-82 117 -224 189q-137 71 -328 71h-5q-193 0 -334 -71q-141 -72 -225 -189 q-88 -123 -121 -250q-37 -131 -37 -262zM285 735q0 172 61 307t176 213q113 76 275 76q160 0 274 -76q117 -78 176 -211q61 -137 62 -309q0 -291 -160 -454l-188 143l-101 -125l152 -115q-88 -49 -215 -49q-160 0 -273 76q-117 78 -178 215q-61 139 -61 309z" />
<glyph unicode="R" horiz-adv-x="1480" d="M180 0h197v629h500q133 0 184 -58q51 -57 57 -122q10 -78 10 -220q0 -152 27 -229h246v33q-49 16 -64 76q-16 61 -16 172q0 129 -8 204q-10 88 -49 152q-39 63 -123 88q202 102 202 340q0 133 -63 223q-61 90 -168 137q-59 27 -113 35q-55 14 -118 15h-701v-1475z M377 801v499h520q127 0 186 -71q57 -70 58 -180q0 -35 -8 -62q-10 -33 -25 -59q-27 -57 -86 -92t-141 -35h-504z" />
<glyph unicode="S" horiz-adv-x="1368" d="M100 475q0 -264 156 -389q158 -127 436 -127q139 0 271 43q133 41 219 141q86 102 86 260q0 315 -332 398l-420 96q-176 37 -176 182q0 150 104 205q102 55 232 55q84 0 174 -28q76 -31 135 -97q31 -41 45 -79q14 -41 14 -95h185q0 51 -12 107l-5 12q-18 63 -30 94 q-41 102 -164 179q-123 75 -357 75h-6q-174 0 -286 -63q-117 -66 -168 -166q-53 -102 -54 -221q0 -123 58 -193q53 -74 149 -114q90 -41 191 -64l219 -49q117 -27 188 -59q70 -31 97 -76q26 -43 26 -119v-6q0 -96 -59 -150q-59 -53 -148 -75q-90 -23 -176 -23 q-104 0 -198 35q-90 33 -150 110q-59 78 -59 201h-185z" />
<glyph unicode="T" horiz-adv-x="1251" d="M29 1292h495v-1292h201v1292h500v181h-1196v-181z" />
<glyph unicode="U" horiz-adv-x="1480" d="M160 475q0 -156 78 -276q78 -121 206 -179q129 -61 273 -61q178 0 315 68q137 63 215 186q74 121 74 270v990h-201v-965q0 -106 -47 -195q-45 -84 -135 -131t-203 -47q-121 0 -207 49q-84 45 -125 133q-43 84 -43 195v961h-200v-998z" />
<glyph unicode="V" horiz-adv-x="1368" d="M41 1473l534 -1473h213l535 1473h-223l-416 -1258l-424 1258h-219z" />
<glyph unicode="W" horiz-adv-x="1931" d="M33 1473l383 -1473h209l344 1221l336 -1221h206l390 1473h-222l-270 -1201l-338 1201h-215l-336 -1201l-272 1201h-215z" />
<glyph unicode="X" horiz-adv-x="1368" d="M37 0h239l408 604l395 -604h248l-516 752l494 721h-238l-375 -566l-373 566h-251l495 -717z" />
<glyph unicode="Y" horiz-adv-x="1368" d="M29 1473l555 -885v-588h196v588l555 885h-231l-424 -709l-420 709h-231z" />
<glyph unicode="Z" horiz-adv-x="1251" d="M47 0h1157v176h-907l907 1124v173h-1091v-181h835l-901 -1128v-164z" />
<glyph unicode="[" horiz-adv-x="567" d="M129 -403h383v147h-223v1587h223v150h-383v-1884z" />
<glyph unicode="\" horiz-adv-x="567" d="M-37 1507l502 -1548h139l-504 1548h-137z" />
<glyph unicode="]" horiz-adv-x="567" d="M55 -256v-147h385v1884h-385v-150h221v-1587h-221z" />
<glyph unicode="^" horiz-adv-x="960" d="M-33 541h162l350 702l352 -702h156l-434 868h-145z" />
<glyph unicode="_" d="M0 -156v-100h1141v100h-1141z" />
<glyph unicode="`" horiz-adv-x="679" d="M29 1503l264 -286h139l-184 286h-219z" />
<glyph unicode="a" d="M68 268q0 -72 47 -143q47 -74 125 -115q78 -43 172 -43q117 0 213 45q98 47 172 127q0 -159 166 -159h2q86 0 118 20v131l-67 -10q-31 4 -41 24t-10 64v610q0 98 -58 162q-57 63 -155 92q-92 27 -203 27q-137 0 -234 -49q-98 -51 -143 -133q-47 -84 -47 -175h168 q0 104 65 158q63 51 183 51q247 0 247 -186q0 -59 -34 -88q-35 -29 -86 -39q-12 -2 -50 -6q-39 -6 -77 -6l-97 -6q-141 -23 -223 -70q-80 -47 -112 -115q-16 -35 -27 -74q-10 -36 -10 -73zM260 272q0 88 64 134q63 45 180 69l186 37q76 14 94 37v-193q0 -74 -53 -127 q-53 -55 -131 -82q-89 -34 -148 -34h-3q-172 0 -189 159z" />
<glyph unicode="b" d="M117 0h172l4 131q96 -164 295 -164q168 0 274 88q109 90 154 228q45 135 45 284q0 154 -51 271q-51 119 -156 190q-102 72 -242 72q-115 0 -184 -39q-74 -39 -131 -125v537h-180v-1473zM289 483q0 111 22 217q23 100 86 170t183 70q292 0 292 -403q0 -182 -73 -297 q-74 -115 -215 -115q-106 0 -201 84q-94 82 -94 274z" />
<glyph unicode="c" horiz-adv-x="1024" d="M59 516q0 -162 54 -278q51 -115 127 -172q41 -33 77 -48q31 -16 76 -30q70 -20 139 -21q125 0 220 49q92 45 151 142q57 92 74 219h-176q-14 -117 -92 -184q-76 -68 -177 -68q-115 0 -194 88q-41 45 -64 117q-22 71 -22 158v8q0 215 74 327q70 113 215 113q109 0 178 -55 q72 -55 86 -168h172q-14 145 -80 235q-63 84 -152 119q-86 33 -190 33q-129 0 -238 -60q-111 -61 -172 -166q-33 -49 -51 -116q-16 -59 -26 -133z" />
<glyph unicode="d" d="M72 567q0 -152 45 -284q43 -137 149 -226q109 -90 275 -90l57 6q39 6 84 25q47 18 94 57q49 39 76 92v-147h168v1473h-184v-553q-53 80 -121 129q-70 51 -199 51q-139 0 -237 -68q-102 -72 -154 -192q-53 -125 -53 -273zM256 537q0 166 57 282q59 121 236 121 q291 0 291 -457q0 -190 -92 -274q-96 -84 -203 -84q-141 0 -215 115t-74 297z" />
<glyph unicode="e" d="M80 504q0 -205 100 -348q66 -90 160 -140q96 -49 219 -49q119 0 180 21q20 6 56 22l10 4q37 18 47 27q92 59 137 152q45 88 55 143h-184q0 -35 -35 -88q-37 -55 -100 -88q-66 -35 -141 -35q-154 0 -232 90q-80 90 -80 260h785q0 240 -84 410q-35 70 -101 127 q-63 53 -135 80q-67 24 -143 24h-6q-102 0 -189 -39q-94 -43 -163 -114q-76 -78 -115 -197q-23 -66 -31 -127q-10 -72 -10 -135zM272 621q0 78 41 155q39 72 109 119q63 45 149 45q150 0 222 -90q35 -43 57 -105q18 -57 18 -124h-596z" />
<glyph unicode="f" horiz-adv-x="567" d="M29 920h147v-920h180v920h181v151h-181v141q0 68 31 93q28 22 78 22h4h68v162l-129 10q-104 0 -162 -57q-37 -33 -51 -80q-18 -49 -19 -123v-168h-147v-151z" />
<glyph unicode="g" d="M63 500q0 -115 35 -224q33 -102 95 -176q57 -70 137 -110q80 -41 162 -41q190 0 327 147v-63q0 -174 -90 -254q-90 -82 -225 -82q-49 0 -86 14q-45 16 -76 37q-70 49 -70 121h-176q0 -127 72 -205t166 -104q98 -29 182 -29q209 0 346 119t137 397v1032h-180v-131 q-25 37 -53 66q-27 29 -61 49q-70 49 -156 49q-111 0 -195 -39q-86 -39 -151 -123q-66 -78 -99 -192q-41 -129 -41 -258zM256 549q0 106 39 186q35 78 92 123q59 45 129 53q80 0 152 -41q70 -39 110 -127q41 -92 41 -211q0 -182 -76 -296q-76 -115 -188 -132l-31 -4 q-70 0 -131 50q-61 49 -98 149q-39 96 -39 250z" />
<glyph unicode="h" d="M131 0h180v584q0 186 88 270q86 86 213 86q119 0 166 -59q45 -57 45 -181v-700h181v727q0 143 -56 225q-55 84 -139 115q-78 33 -180 33q-96 0 -146 -21q-51 -20 -80 -49l-92 -102v545h-180v-1473z" />
<glyph unicode="i" horiz-adv-x="456" d="M131 0h184v1067h-184v-1067zM131 1264h184v204h-184v-204z" />
<glyph unicode="j" horiz-adv-x="456" d="M-37 -268v-156l78 -8q172 0 223 82q51 78 51 190v1231h-180v-1210q0 -53 -10 -84q-12 -31 -37 -37q-23 -8 -84 -8h-41zM135 1264h180v209h-180v-209z" />
<glyph unicode="k" horiz-adv-x="1024" d="M135 0h176v403l150 138l332 -541h231l-432 672l407 399h-231l-457 -455v857h-176v-1473z" />
<glyph unicode="l" horiz-adv-x="456" d="M135 0h180v1473h-180v-1473z" />
<glyph unicode="m" horiz-adv-x="1703" d="M131 0h180v584q0 129 47 211t111 114q66 31 127 31q90 0 129 -57t39 -144v-739h180v651q0 78 33 140q31 68 90 108q59 41 129 41q201 0 201 -248v-692h180v739q0 137 -55 219t-131 113q-82 29 -148 29q-115 0 -180 -39q-66 -39 -148 -133q-37 70 -98 121q-59 51 -188 51 q-195 0 -330 -180v151h-168v-1071z" />
<glyph unicode="n" d="M131 0h180v612q0 92 37 168q37 74 109 119q72 41 155 41q121 0 166 -74q45 -76 45 -202v-664h181v727q0 117 -43 203q-47 86 -127 127q-82 43 -197 43q-94 0 -166 -37q-78 -43 -115 -82q-43 -43 -53 -66v156h-172v-1071z" />
<glyph unicode="o" d="M72 537q0 -139 53 -275q51 -131 168 -213q113 -82 274 -82q164 0 277 82t168 213q55 133 55 275q0 145 -55 274q-55 127 -168 209q-113 80 -277 80q-158 0 -272 -80q-117 -84 -168 -209q-55 -129 -55 -274zM256 537q0 150 72 280q72 127 239 127q119 0 189 -63t98 -158 q27 -92 27 -186q0 -92 -27 -185q-27 -94 -98 -159q-70 -68 -189 -68q-115 0 -186 68q-68 61 -96 159q-29 97 -29 185z" />
<glyph unicode="p" d="M117 -424h182v541q68 -86 133 -119q68 -35 164 -35q145 0 252 86q109 86 160 221q53 135 53 271q0 139 -49 270q-53 131 -154 213q-102 84 -242 84q-80 0 -141 -27q-66 -29 -115 -71q-49 -47 -71 -95v156h-172v-1495zM289 492q0 119 28 223q27 100 95 164q66 61 163 61 q143 0 218 -92q37 -43 59 -117q20 -68 20 -168q0 -129 -34 -231q-33 -98 -101 -154q-66 -53 -145 -53q-125 0 -211 88q-47 47 -68 115q-24 72 -24 164z" />
<glyph unicode="q" d="M72 567q0 -152 45 -284q43 -137 149 -226q109 -90 275 -90q213 0 290 146v-537h181v1495h-172l-4 -151q-53 80 -121 129q-70 51 -199 51q-139 0 -237 -68q-102 -72 -154 -192q-53 -125 -53 -273zM256 537q0 166 57 282q59 121 236 121q291 0 291 -457q0 -190 -92 -274 q-96 -84 -203 -84q-141 0 -215 115t-74 297z" />
<glyph unicode="r" horiz-adv-x="679" d="M156 0h180v641q0 123 96 195q95 71 244 71h4v189q-139 0 -215 -52q-74 -49 -137 -155v182h-172v-1071z" />
<glyph unicode="s" horiz-adv-x="1024" d="M63 344q0 -53 17 -113q4 -12 14 -43l6 -18q29 -78 131 -139q100 -63 293 -64q125 0 221 45q96 43 148 123q55 80 55 189q0 86 -43 143q-47 57 -119 90q-59 29 -81 35q-8 2 -21 6q-39 10 -63 16l-152 37q-92 20 -119 33q-39 18 -59 41q-18 25 -19 68q0 61 41 96 q39 33 86 45q61 10 88 10q252 0 252 -180h176q0 57 -26 131q-29 78 -121 139q-96 66 -264 66q-109 0 -201 -37q-96 -37 -147 -113q-55 -76 -56 -190q0 -86 43 -142q43 -55 111 -86t143 -47l158 -36q121 -33 168 -62q45 -27 45 -94q0 -82 -70 -125t-174 -43q-168 0 -223 65 q-61 68 -61 154h-177z" />
<glyph unicode="t" horiz-adv-x="567" d="M16 903h144v-774q10 -88 67 -129q59 -41 158 -41l131 8v162l-92 -8q-33 0 -55 22q-23 23 -29 80v680h176v176h-176v293h-180v-293h-144v-176z" />
<glyph unicode="u" d="M143 272q0 -139 84 -229t222 -90q100 0 200 43q98 39 170 117v-113h180v1079h-180v-647q0 -129 -82 -217t-188 -111l-49 -4q-72 0 -125 54q-55 53 -56 149v776h-176v-807z" />
<glyph unicode="v" horiz-adv-x="1024" d="M16 1071l392 -1071h192l408 1071h-197l-307 -878l-281 878h-207z" />
<glyph unicode="w" horiz-adv-x="1480" d="M29 1071l307 -1071h188l211 827l217 -827h189l311 1071h-180l-215 -844l-217 844h-199l-213 -844l-205 844h-194z" />
<glyph unicode="x" horiz-adv-x="1024" d="M18 0h230l260 403l264 -403h232l-379 549l362 522h-219l-248 -379l-248 379h-233l358 -518z" />
<glyph unicode="y" horiz-adv-x="1024" d="M20 1071l400 -1104l-72 -170q-20 -39 -45 -57q-27 -16 -76 -16q-63 0 -106 16v-164q61 -16 76 -16q96 0 145 12q45 12 86 53q37 37 76 125q45 92 112 270q29 74 80 209l29 76q12 33 37 103q55 154 90 247q49 131 147 416h-194l-289 -874l-293 874h-203z" />
<glyph unicode="z" horiz-adv-x="1024" d="M61 0h900v147h-662l641 777v147h-827l-2 -151h598l-648 -781v-139z" />
<glyph unicode="{" horiz-adv-x="684" d="M84 479q47 0 86 -39q41 -35 61 -94t21 -137v-373q0 -98 63 -168q61 -72 146 -71h135v135h-92q-43 0 -68 43t-24 108v353q0 102 -47 186q-49 82 -138 119q55 14 97 63q41 49 65 111q23 63 23 121v356q0 57 28 104q29 47 68 47h88v134l-39 2l-45 2q-260 0 -260 -248v-373 q0 -92 -41 -174q-39 -82 -127 -82v-125z" />
<glyph unicode="|" horiz-adv-x="532" d="M193 -41h147v1548h-147v-1548z" />
<glyph unicode="}" horiz-adv-x="684" d="M84 -268v-135h135q84 0 150 71q63 70 63 193v352q0 68 23 135q23 66 61 98q37 33 80 33v121q-72 0 -117 76q-47 78 -47 184v357q0 78 -29 139q-27 57 -77 92q-51 33 -107 33h-135v-138h92q92 0 92 -167v-349q0 -66 19 -112q16 -45 49 -86q59 -72 113 -92q-25 -6 -70 -39 q-37 -29 -72 -95q-18 -33 -28 -75q-10 -41 -11 -84v-344q0 -168 -92 -168h-92z" />
<glyph unicode="~" horiz-adv-x="1196" d="M125 483l72 -114q37 70 73 106q41 41 99 41q53 0 108 -16l119 -54q70 -37 121 -53q49 -16 98 -16q145 0 256 176l-76 115q-47 -76 -86 -109q-39 -39 -94 -39q-57 0 -139 35l-156 70q-82 35 -139 34q-166 0 -256 -176z" />
<glyph unicode="&#xa1;" horiz-adv-x="679" d="M240 84v-483h200v483l-49 637h-102zM240 860h200v211h-200v-211z" />
<glyph unicode="&#xa2;" d="M104 500q0 -188 78 -316q78 -129 205 -188l-72 -232h84l66 211q111 -16 143 -16q115 0 211 57q98 57 158 150q61 94 76 207h-176q-25 -117 -101 -187q-84 -78 -188 -77l-80 16l227 790q96 -45 137 -210h172q-18 168 -100 249q-84 84 -168 117l51 205h-79l-48 -180 q-49 12 -104 12q-150 0 -289 -96q-203 -150 -203 -512zM285 500q0 104 30 209q29 104 99 174q68 70 174 69q41 0 67 -12l-223 -780q-66 39 -106 137q-41 98 -41 203z" />
<glyph unicode="&#xa3;" d="M68 647h217q39 -78 39 -147q0 -47 -19 -109q-23 -63 -76 -135q-55 -72 -153 -139l100 -142q129 80 240 80q55 0 141 -22l162 -43q86 -23 141 -23q111 0 244 96l-84 138q-33 -37 -68 -51q-37 -18 -80 -19q-12 0 -36 4h-5q-12 2 -26 6q-10 2 -12 2l-97 27l-104 27 q-35 8 -88 8q-125 0 -252 -70l-4 -4q119 84 182 184q66 102 66 197q0 76 -21 135h285v129h-344q-104 188 -105 289q0 45 29 106q27 57 94 103q68 43 170 43q84 0 148 -37q66 -39 100 -109q37 -70 37 -151v-16h178v28q0 106 -47 213q-45 102 -148 166q-100 61 -247 62 q-180 0 -295 -66q-115 -63 -162 -160q-23 -49 -35 -96q-12 -51 -12 -98q0 -63 22 -127l66 -150h-141v-129z" />
<glyph unicode="&#xa4;" d="M55 1137l113 -113q-100 -119 -100 -303q0 -182 100 -313l-109 -115l93 -92l112 118q63 -57 139 -81q82 -29 164 -29q188 0 305 110l115 -118l92 92l-110 115q102 133 102 313q0 86 -29 168q-27 80 -73 135l110 113l-96 100l-119 -117q-53 51 -129 78q-78 27 -168 27 t-164 -27q-76 -27 -131 -78l-116 117zM215 721q0 92 47 176q45 82 131 133q84 49 174 49q96 0 178 -49q80 -49 127 -133t48 -176q0 -100 -48 -184q-47 -84 -127 -134q-82 -51 -178 -51q-100 0 -176 51q-82 49 -129 136q-47 84 -47 182z" />
<glyph unicode="&#xa5;" d="M4 1409l395 -625h-315v-116h395v-172h-395v-119h395v-377h180v377h398v119h-398v172h398v116h-322l398 625h-205l-361 -604l-358 604h-205z" />
<glyph unicode="&#xa6;" horiz-adv-x="675" d="M193 -41h147v1548h-147v-1548z" />
<glyph unicode="&#xa7;" d="M88 633q0 -59 29 -129q29 -72 102 -123l432 -285q55 -37 86 -76q27 -33 27 -88q0 -96 -66 -131q-68 -37 -149 -37q-119 0 -160 72t-41 156h-180q0 -193 111 -287q109 -96 292 -96q90 0 179 41q88 41 141 112q53 76 53 175q0 76 -26 126q-10 18 -31 52q-6 6 -8 10 q-25 29 -43 47q98 61 155 137q57 72 58 191q0 115 -60 190q-57 72 -166 137l-299 177q-80 47 -110 90q-37 41 -37 94q0 86 57 125t129 39q125 0 162 -66q18 -33 33 -74q10 -41 10 -75h172q0 207 -113 288q-113 82 -264 82q-125 0 -207 -51t-120 -131q-39 -78 -39 -166 q0 -61 22 -102q20 -41 74 -101q-96 -53 -152 -127q-53 -72 -53 -196zM256 676q0 129 139 201l137 -86l121 -76l99 -60q125 -80 125 -194q0 -70 -35 -117q-41 -47 -107 -92l-192 127l-195 125q-92 59 -92 172z" />
<glyph unicode="&#xa8;" horiz-adv-x="679" d="M80 1237h188v207h-188v-207zM412 1237h188v207h-188v-207z" />
<glyph unicode="&#xa9;" horiz-adv-x="1507" d="M-33 735q0 -162 64 -303q61 -143 172 -252q104 -104 252 -164q139 -57 301 -57q207 0 389 102t289 277q106 174 106 397q0 162 -61 305q-66 145 -170 248q-113 106 -250 162q-141 57 -303 57q-160 0 -299 -55q-143 -59 -252 -162q-113 -106 -174 -250q-63 -141 -64 -305z M125 735q0 70 12 133q10 55 35 121q47 119 135 207t205 137q117 47 244 47q129 0 245 -49q119 -49 203 -137q86 -92 133 -207q47 -123 47 -252q0 -178 -81 -327q-84 -152 -230 -236q-145 -84 -317 -84t-318 84q-145 82 -229 234q-84 151 -84 329zM328 739q0 -106 32 -186 q31 -88 91 -154q66 -66 147 -102q84 -37 186 -37q139 0 246 90q106 90 133 242h-139q-12 -88 -78 -141q-63 -55 -162 -56q-137 0 -219 101q-82 100 -82 243q0 154 76 244q78 92 217 92q96 0 164 -49q66 -49 84 -133h139q-12 98 -65 174q-55 72 -140 109q-82 37 -182 36 q-209 0 -327 -131q-121 -133 -121 -342z" />
<glyph unicode="&#xaa;" horiz-adv-x="755" d="M47 1016q0 -82 62 -135q59 -53 159 -54q84 0 148 29q63 35 104 76q0 -47 27 -74q29 -31 96 -31l21 2l22 5l23 6v88l-45 -8q-31 6 -31 45v362q0 109 -86 146q-94 35 -174 34q-289 0 -289 -215h109q12 113 159 113q76 0 117 -23q39 -20 39 -59q0 -41 -21 -61 q-23 -23 -57 -29l-86 -8q-78 0 -143 -19q-66 -23 -109 -67q-45 -45 -45 -123zM72 621h604v100h-604v-100zM176 1036q0 74 156 92t176 39v-80q0 -43 -29 -77q-31 -35 -78 -54q-43 -20 -104 -20q-121 0 -121 100z" />
<glyph unicode="&#xab;" d="M197 471l323 -252v180l-217 168l217 164v180l-323 -252v-188zM616 471l324 -252v180l-215 168l215 164v180l-324 -252v-188z" />
<glyph unicode="&#xac;" horiz-adv-x="1196" d="M80 647h885v-428h151v582h-1036v-154z" />
<glyph unicode="&#xad;" horiz-adv-x="679" d="M88 475h504v184h-504v-184z" />
<glyph unicode="&#xae;" horiz-adv-x="1507" d="M-33 735q0 -162 64 -303q61 -143 172 -252q104 -104 252 -164q139 -57 301 -57q207 0 389 102t289 277q106 174 106 397q0 162 -61 305q-66 145 -170 248q-113 106 -250 162q-141 57 -303 57q-160 0 -299 -55q-143 -59 -252 -162q-113 -106 -174 -250q-63 -141 -64 -305z M125 735q0 70 12 133q10 55 35 121q47 119 135 207t205 137q117 47 244 47q129 0 245 -49q119 -49 203 -137q86 -92 133 -207q47 -123 47 -252q0 -178 -81 -327q-84 -152 -230 -236q-145 -84 -317 -84t-318 84q-145 82 -229 234q-84 151 -84 329zM457 289h135v387h156 l235 -387h154l-252 391q102 16 166 74q61 61 61 174q0 131 -78 192q-78 59 -233 60h-344v-891zM592 788v279h184q197 0 197 -131q0 -92 -58 -119q-61 -29 -159 -29h-164z" />
<glyph unicode="&#xb0;" horiz-adv-x="581" d="M88 1665q0 -49 21 -88q20 -39 61 -68t102 -28q61 0 103 28q41 29 61 68t21 88q0 51 -21 90q-20 41 -61 68q-39 27 -103 26q-63 0 -102 -26q-37 -25 -59 -68q-23 -41 -23 -90zM156 1665q0 51 28 92q29 41 88 41q43 0 70 -18q27 -23 35 -56q10 -37 10 -59q0 -20 -10 -57 q-8 -31 -37 -54t-68 -22q-25 0 -41 6q-14 6 -28 16q-29 23 -37 56q-10 35 -10 55z" />
<glyph unicode="&#xb1;" horiz-adv-x="1196" d="M80 0h1036v147h-1036v-147zM80 555h444v-332h148v332h444v150h-444v331h-148v-331h-444v-150z" />
<glyph unicode="&#xb2;" horiz-adv-x="811" d="M16 1602h125l271 229l270 -229h121l-334 282h-113zM324 0h200v1473h-200v-1473z" />
<glyph unicode="&#xb3;" horiz-adv-x="1404" d="M160 475q0 -156 78 -276q78 -121 206 -179q129 -61 273 -61q178 0 315 68q137 63 215 186q74 121 74 270v990h-201v-965q0 -106 -47 -195q-45 -84 -135 -131t-203 -47q-121 0 -207 49q-84 45 -125 133q-43 84 -43 195v961h-200v-998zM336 1614h125l270 229l273 -229h118 l-334 282h-112z" />
<glyph unicode="&#xb4;" horiz-adv-x="1941" d="M33 1473l383 -1473h209l344 1221l336 -1221h206l390 1473h-222l-270 -1201l-338 1201h-215l-336 -1201l-272 1201h-215zM647 1614h164l135 188l135 -188h162l-201 287h-192z" />
<glyph unicode="&#xb5;" horiz-adv-x="1380" d="M29 1473l555 -885v-588h196v588l555 885h-231l-424 -709l-420 709h-231zM397 1614h164l135 188l135 -188h162l-200 287h-193z" />
<glyph unicode="&#xb6;" horiz-adv-x="856" d="M37 1221h125l270 229l273 -229h118l-334 282h-112zM332 -8h184v1067h-184v-1067z" />
<glyph unicode="&#xb7;" horiz-adv-x="1142" d="M143 272q0 -139 84 -229t222 -90q100 0 200 43q98 39 170 117v-113h180v1079h-180v-647q0 -129 -82 -217t-188 -111l-49 -4q-72 0 -125 54q-55 53 -56 149v776h-176v-807zM180 1217h125l270 229l273 -229h119l-334 282h-113z" />
<glyph unicode="&#xb8;" horiz-adv-x="1515" d="M29 1071l307 -1071h188l211 827l217 -827h189l311 1071h-180l-215 -844l-217 844h-199l-213 -844l-205 844h-194zM426 1217h164l135 188l135 -188h162l-201 286h-192z" />
<glyph unicode="&#xb9;" horiz-adv-x="1073" d="M20 1071l400 -1104l-72 -170q-20 -39 -45 -57q-27 -16 -76 -16q-63 0 -106 16v-164q61 -16 76 -16q96 0 145 12q45 12 86 53q37 37 76 125q45 92 112 270q29 74 80 209l29 76q12 33 37 103q55 154 90 247q49 131 147 416h-194l-289 -874l-293 874h-203zM197 1225h163 l136 188l135 -188h162l-201 286h-193z" />
<glyph unicode="&#xba;" horiz-adv-x="747" d="M47 1167q0 -180 96 -260t230 -80q135 0 229 80t94 260q0 188 -94 265q-94 76 -229 75q-135 0 -230 -75q-96 -78 -96 -265zM72 621h604v100h-604v-100zM188 1167q0 86 41 164q41 74 144 74q106 0 147 -72q39 -70 39 -166q0 -90 -39 -159q-41 -72 -147 -72q-102 0 -144 72 q-41 72 -41 159z" />
<glyph unicode="&#xbb;" d="M197 219l323 252v188l-323 252v-180l215 -164l-215 -168v-180zM616 219l324 252v188l-324 252v-180l215 -164l-215 -168v-180z" />
<glyph unicode="&#xbc;" horiz-adv-x="1708" d="M147 1188h222v-613h139v865h-109q-16 -68 -43 -101q-33 -37 -71 -45q-37 -10 -68 -14q-33 -4 -70 -4v-88zM315 -41h117l264 432l639 1049h-114l-269 -432zM856 193h424v-193h131v193h137v114h-137v557h-131l-424 -549v-122zM983 307l297 385v-385h-297z" />
<glyph unicode="&#xbd;" horiz-adv-x="1708" d="M88 1180h219v-605h146v865h-113q-20 -68 -49 -103q-27 -33 -68 -43q-33 -10 -65 -14q-33 -4 -70 -4v-96zM240 -41h116l269 432l639 1049h-115l-268 -432zM928 0h655v125h-500q45 78 164 143l92 47q123 61 185 121q59 66 59 168q0 82 -39 139q-41 61 -108 88 q-61 33 -152 33q-121 0 -221 -63q-102 -66 -102 -248h122q0 35 13 68q8 27 28 65q33 57 144 57q94 0 133 -38q39 -39 39 -97q0 -53 -21 -86q-18 -31 -51 -55l-104 -59l-119 -68q-68 -35 -113 -80q-43 -43 -71 -108q-18 -43 -25 -74q-8 -31 -8 -78z" />
<glyph unicode="&#xbe;" horiz-adv-x="1708" d="M92 840q0 -92 37 -154q35 -61 102 -94q70 -39 172 -39q121 0 195 39q74 37 113 102q37 66 37 137q0 156 -156 201q47 16 84 62q37 47 37 118q0 100 -76 164q-76 63 -213 64q-113 0 -184 -41q-70 -39 -99 -107q-29 -70 -28 -137h127q0 166 163 166q96 0 129 -37 q35 -37 35 -80q0 -137 -168 -137h-55v-102h47q94 0 154 -27q59 -29 59 -123q0 -72 -53 -106q-51 -37 -143 -37q-102 0 -138 47q-18 23 -28 55q-10 31 -11 66h-139zM436 -41h117l266 432l641 1049h-121l-264 -432zM969 193h424v-193h127v193h141v114h-141v557h-127l-424 -549 v-122zM1096 307l297 385v-385h-297z" />
<glyph unicode="&#xbf;" horiz-adv-x="1251" d="M184 -12q0 -125 60 -215q61 -92 162 -138q104 -47 215 -47q182 0 294 93q72 53 105 114q20 41 29 64q12 31 18 67l2 15q6 35 8 51q2 18 2 76h-180q0 -324 -274 -324q-94 0 -146 39q-57 37 -78 92q-25 51 -24 100q0 57 12 95q14 37 43 71l109 119q55 55 88 94q6 10 16 23 q10 10 17 20q37 51 55 121q18 68 18 182h-180q0 -98 -14 -153q-14 -57 -54 -105q-39 -49 -110 -114q-115 -115 -150 -174q-43 -70 -43 -166zM541 864h198v211h-198v-211z" />
<glyph unicode="&#xc0;" horiz-adv-x="1368" d="M29 0h202l154 428h592l143 -428h219l-530 1473h-229zM373 1898l264 -286h139l-184 286h-219zM449 604l235 651l219 -651h-454z" />
<glyph unicode="&#xc1;" horiz-adv-x="1368" d="M29 0h202l154 428h592l143 -428h219l-530 1473h-229zM449 604l235 651l219 -651h-454zM629 1612h139l264 286h-219z" />
<glyph unicode="&#xc2;" horiz-adv-x="1368" d="M29 0h202l154 428h592l143 -428h219l-530 1473h-229zM385 1612h164l135 188l135 -188h162l-201 286h-192zM449 604l235 651l219 -651h-454z" />
<glyph unicode="&#xc3;" horiz-adv-x="1368" d="M29 0h202l154 428h592l143 -428h219l-530 1473h-229zM373 1634h96q29 92 96 92h29q4 -2 12 -2q18 -6 29 -8l84 -28l82 -29q25 -8 63 -8q88 0 142 65q55 68 63 160h-100q-8 -43 -29 -70q-20 -27 -76 -26q-45 6 -106 32l-101 33q-35 10 -71 10q-184 0 -213 -221zM449 604 l235 651l219 -651h-454z" />
<glyph unicode="&#xc4;" horiz-adv-x="1368" d="M29 0h202l154 428h592l143 -428h219l-530 1473h-229zM424 1632h188v207h-188v-207zM449 604l235 651l219 -651h-454zM756 1632h188v207h-188v-207z" />
<glyph unicode="&#xc5;" horiz-adv-x="1368" d="M29 0h202l154 428h592l143 -428h219l-530 1473h-229zM449 604l235 651l219 -651h-454zM496 1755q0 -53 24 -96q25 -43 68 -68t96 -24q82 0 135 53t53 135t-53 135q-53 54 -135 54t-135 -54q-53 -53 -53 -135zM580 1755q0 43 30 76q27 33 74 33q45 0 78 -31q31 -33 31 -78 t-31 -76q-33 -33 -78 -32q-43 0 -74 32q-30 31 -30 76z" />
<glyph unicode="&#xc6;" horiz-adv-x="2048" d="M16 0h215l160 428h545v-428h1012v176h-811v492h727v176h-727v448h794v181h-270h-1049l-172 -424zM465 604l270 688h201v-688h-471z" />
<glyph unicode="&#xc7;" horiz-adv-x="1480" d="M88 743q0 -197 45 -331q45 -137 129 -234q84 -96 180 -147q99 -54 222 -68l-105 -139l37 -39q51 14 80 14q31 0 63 -18q33 -18 33 -62q0 -47 -35 -69q-37 -18 -78 -19q-57 0 -135 33l-32 -80q109 -49 196 -49q111 0 174 55q66 53 66 138q0 61 -39 106t-133 45l-64 -8 l72 88q35 0 78 6q51 8 82 15q94 20 186 75q96 59 178 178q82 123 109 308h-197q-27 -154 -98 -246q-70 -90 -154 -125q-86 -35 -168 -35q-137 0 -225 45q-94 43 -152 129q-59 84 -84 193q-27 104 -26 246q0 193 63 321q66 131 176 197q113 66 244 65q135 0 256 -65 q119 -68 156 -238h192q-16 131 -86 238q-70 104 -207 174q-135 68 -311 67q-156 0 -284 -53q-129 -55 -220 -158q-90 -102 -137 -245q-47 -147 -47 -308z" />
<glyph unicode="&#xc8;" horiz-adv-x="1368" d="M176 0h1084v176h-887v492h807v176h-807v448h874v181h-1071v-1473zM369 1911l264 -287h139l-184 287h-219z" />
<glyph unicode="&#xc9;" horiz-adv-x="1368" d="M176 0h1084v176h-887v492h807v176h-807v448h874v181h-1071v-1473zM588 1624h139l264 287h-219z" />
<glyph unicode="&#xca;" horiz-adv-x="1368" d="M176 0h1084v176h-887v492h807v176h-807v448h874v181h-1071v-1473zM381 1624h164l135 188l135 -188h162l-201 287h-192z" />
<glyph unicode="&#xcb;" horiz-adv-x="1368" d="M176 0h1084v176h-887v492h807v176h-807v448h874v181h-1071v-1473zM420 1645h188v206h-188v-206zM752 1645h188v206h-188v-206z" />
<glyph unicode="&#xcc;" horiz-adv-x="567" d="M-39 1911l264 -287h140l-185 287h-219zM184 0h201v1473h-201v-1473z" />
<glyph unicode="&#xcd;" horiz-adv-x="567" d="M180 1624h139l265 287h-219zM184 0h201v1473h-201v-1473z" />
<glyph unicode="&#xce;" horiz-adv-x="567" d="M-27 1624h164l135 188l136 -188h161l-200 287h-193zM184 0h201v1473h-201v-1473z" />
<glyph unicode="&#xcf;" horiz-adv-x="567" d="M12 1645h189v206h-189v-206zM184 0h201v1473h-201v-1473zM344 1645h188v206h-188v-206z" />
<glyph unicode="&#xd0;" horiz-adv-x="1480" d="M0 668h164v-668h588q266 0 407 145q141 147 180 316q23 90 31 162q10 78 10 133q0 160 -43 291q-43 133 -123 231q-82 92 -194 143q-117 53 -260 54h-596v-631h-164v-176zM365 168v500h391v176h-391v456h370q205 0 324 -143q117 -143 117 -414q0 -186 -52 -313 q-53 -131 -149 -194q-98 -68 -227 -68h-383z" />
<glyph unicode="&#xd1;" horiz-adv-x="1480" d="M156 0h192v1188l752 -1188h223v1473h-190v-1192l-742 1192h-235v-1473zM369 1616h96q29 92 96 92h29q4 -2 12 -2q18 -6 29 -8l84 -29l82 -29q25 -8 63 -8q88 0 141 66q55 68 64 160h-100q-8 -43 -29 -70q-20 -27 -76 -27q-45 6 -106 33l-101 33q-35 10 -71 10 q-184 0 -213 -221z" />
<glyph unicode="&#xd2;" horiz-adv-x="1591" d="M80 735q0 -129 37 -262q37 -129 121 -252q84 -121 223 -190q141 -72 336 -72q193 0 336 72q141 72 223 190q80 115 119 250q36 133 36 264t-36 262q-37 131 -121 250q-82 117 -224 189q-139 72 -333 71q-193 0 -334 -71q-141 -72 -225 -189q-88 -123 -121 -250 q-37 -131 -37 -262zM285 735q0 172 61 307t176 213q113 76 275 76q160 0 274 -76q117 -78 176 -211q62 -137 62 -309q0 -170 -62 -309q-61 -137 -176 -215q-115 -76 -274 -76q-160 0 -273 76q-117 78 -178 215q-61 139 -61 309zM573 1880l265 -287h139l-184 287h-220z" />
<glyph unicode="&#xd3;" horiz-adv-x="1591" d="M80 735q0 -129 37 -262q37 -129 121 -252q84 -121 223 -190q141 -72 336 -72q193 0 336 72q141 72 223 190q80 115 119 250q36 133 36 264t-36 262q-37 131 -121 250q-82 117 -224 189q-139 72 -333 71q-193 0 -334 -71q-141 -72 -225 -189q-88 -123 -121 -250 q-37 -131 -37 -262zM285 735q0 172 61 307t176 213q113 76 275 76q160 0 274 -76q117 -78 176 -211q62 -137 62 -309q0 -170 -62 -309q-61 -137 -176 -215q-115 -76 -274 -76q-160 0 -273 76q-117 78 -178 215q-61 139 -61 309zM655 1593h140l264 287h-219z" />
<glyph unicode="&#xd4;" horiz-adv-x="1591" d="M80 735q0 -129 37 -262q37 -129 121 -252q84 -121 223 -190q141 -72 336 -72q193 0 336 72q141 72 223 190q80 115 119 250q36 133 36 264t-36 262q-37 131 -121 250q-82 117 -224 189q-139 72 -333 71q-193 0 -334 -71q-141 -72 -225 -189q-88 -123 -121 -250 q-37 -131 -37 -262zM285 735q0 172 61 307t176 213q113 76 275 76q160 0 274 -76q117 -78 176 -211q62 -137 62 -309q0 -170 -62 -309q-61 -137 -176 -215q-115 -76 -274 -76q-160 0 -273 76q-117 78 -178 215q-61 139 -61 309zM516 1593h164l135 189l135 -189h162l-201 287 h-192z" />
<glyph unicode="&#xd5;" horiz-adv-x="1591" d="M80 735q0 -129 37 -262q37 -129 121 -252q84 -121 223 -190q141 -72 336 -72q193 0 336 72q141 72 223 190q80 115 119 250q36 133 36 264t-36 262q-37 131 -121 250q-82 117 -224 189q-139 72 -333 71q-193 0 -334 -71q-141 -72 -225 -189q-88 -123 -121 -250 q-37 -131 -37 -262zM285 735q0 172 61 307t176 213q113 76 275 76q160 0 274 -76q117 -78 176 -211q62 -137 62 -309q0 -170 -62 -309q-61 -137 -176 -215q-115 -76 -274 -76q-160 0 -273 76q-117 78 -178 215q-61 139 -61 309zM467 1616h96q29 92 96 92h29q4 -2 12 -2 q18 -6 29 -8l84 -29l82 -29q25 -8 63 -8q88 0 142 66q55 68 63 160h-100q-8 -43 -29 -70q-20 -27 -76 -27q-45 6 -106 33l-100 33q-35 10 -72 10q-184 0 -213 -221z" />
<glyph unicode="&#xd6;" horiz-adv-x="1591" d="M80 735q0 -129 37 -262q37 -129 121 -252q84 -121 223 -190q141 -72 336 -72q193 0 336 72q141 72 223 190q80 115 119 250q36 133 36 264t-36 262q-37 131 -121 250q-82 117 -224 189q-139 72 -333 71q-193 0 -334 -71q-141 -72 -225 -189q-88 -123 -121 -250 q-37 -131 -37 -262zM285 735q0 172 61 307t176 213q113 76 275 76q160 0 274 -76q117 -78 176 -211q62 -137 62 -309q0 -170 -62 -309q-61 -137 -176 -215q-115 -76 -274 -76q-160 0 -273 76q-117 78 -178 215q-61 139 -61 309zM555 1614h188v207h-188v-207zM887 1614h188 v207h-188v-207z" />
<glyph unicode="&#xd7;" horiz-adv-x="1187" d="M176 424l109 -107l313 316l313 -309l103 104l-314 309l314 318l-109 106l-313 -317l-313 309l-103 -104l313 -310z" />
<glyph unicode="&#xd8;" horiz-adv-x="1591" d="M80 735q0 -131 43 -276q39 -143 129 -258l-168 -185l63 -57l164 176q195 -176 486 -176q193 0 336 72q141 72 223 190q80 115 119 250q37 133 36 264q0 131 -41 277q-41 139 -127 248l173 188l-64 59l-168 -180q-180 180 -487 180q-193 0 -334 -71q-141 -72 -225 -189 q-88 -123 -121 -250q-37 -131 -37 -262zM285 735q0 172 61 307t176 213q113 76 275 76q217 0 358 -147l-768 -836q-102 158 -102 387zM444 281l764 831q100 -156 101 -377q0 -170 -62 -309q-61 -137 -176 -215q-115 -76 -274 -76q-219 0 -353 146z" />
<glyph unicode="&#xd9;" horiz-adv-x="1480" d="M160 475q0 -156 78 -276q78 -121 206 -179q129 -61 273 -61q178 0 315 68q137 63 215 186q74 121 74 270v990h-201v-965q0 -106 -47 -195q-45 -84 -135 -131t-203 -47q-121 0 -207 49q-84 45 -125 133q-43 84 -43 195v961h-200v-998zM436 1911l264 -287h140l-185 287 h-219z" />
<glyph unicode="&#xda;" horiz-adv-x="1480" d="M160 475q0 -156 78 -276q78 -121 206 -179q129 -61 273 -61q178 0 315 68q137 63 215 186q74 121 74 270v990h-201v-965q0 -106 -47 -195q-45 -84 -135 -131t-203 -47q-121 0 -207 49q-84 45 -125 133q-43 84 -43 195v961h-200v-998zM655 1624h140l264 287h-219z" />
<glyph unicode="&#xdb;" horiz-adv-x="1480" d="M160 475q0 -156 78 -276q78 -121 206 -179q129 -61 273 -61q178 0 315 68q137 63 215 186q74 121 74 270v990h-201v-965q0 -106 -47 -195q-45 -84 -135 -131t-203 -47q-121 0 -207 49q-84 45 -125 133q-43 84 -43 195v961h-200v-998zM449 1624h163l136 188l135 -188h161 l-200 287h-193z" />
<glyph unicode="&#xdc;" horiz-adv-x="1480" d="M160 475q0 -156 78 -276q78 -121 206 -179q129 -61 273 -61q178 0 315 68q137 63 215 186q74 121 74 270v990h-201v-965q0 -106 -47 -195q-45 -84 -135 -131t-203 -47q-121 0 -207 49q-84 45 -125 133q-43 84 -43 195v961h-200v-998zM487 1645h189v206h-189v-206z M819 1645h189v206h-189v-206z" />
<glyph unicode="&#xdd;" horiz-adv-x="1368" d="M29 1473l555 -885v-588h196v588l555 885h-231l-424 -709l-420 709h-231zM655 1624h140l264 287h-219z" />
<glyph unicode="&#xde;" horiz-adv-x="1368" d="M176 0h197v377h463q147 0 247 65q98 63 144 162q45 94 45 207q0 119 -53 215q-25 47 -66 88q-37 37 -86 62q-102 53 -231 53h-463v244h-197v-1473zM373 545v512h403q291 0 291 -246q0 -266 -299 -266h-395z" />
<glyph unicode="&#xdf;" horiz-adv-x="1251" d="M135 0h180v1044q0 49 7 89q6 39 20 69q25 63 90 98q68 35 176 35q156 0 234 -63q78 -66 78 -168q0 -100 -74 -166q-78 -66 -246 -66l-22 2l-25 3v-160q23 8 80 8q350 0 350 -289q0 -152 -90 -229q-90 -78 -260 -78l-88 6v-151q61 -16 106 -17q150 0 267 56 q117 55 184 174q66 121 65 290q0 59 -26 131q-29 72 -84 125q-51 55 -125 76q168 98 168 301q0 109 -60 197q-57 84 -170 131q-109 45 -262 45q-154 0 -260 -51t-160 -144q-53 -94 -53 -211v-38v-1049z" />
<glyph unicode="&#xe0;" d="M68 268q0 -72 47 -143q47 -74 125 -115q78 -43 172 -43q117 0 213 45q98 47 172 127q0 -160 168 -159q86 0 118 20v131l-67 -10q-31 4 -41 24t-10 64v610q0 98 -58 162q-57 63 -155 92q-92 27 -203 27q-137 0 -234 -49q-98 -51 -143 -133q-47 -84 -47 -175h168 q0 104 65 158q63 51 183 51q248 0 247 -188q0 -57 -34 -86q-35 -29 -86 -39q-12 -2 -50 -6q-39 -6 -77 -6l-97 -6q-141 -23 -223 -70q-80 -47 -112 -115q-16 -35 -27 -74q-10 -36 -10 -73zM260 272q0 88 64 134q63 45 180 69l186 37q76 14 94 37v-193q0 -74 -53 -127 q-53 -55 -131 -82q-92 -35 -151 -34q-172 0 -189 159zM369 1503l264 -286h139l-184 286h-219z" />
<glyph unicode="&#xe1;" d="M68 268q0 -72 47 -143q47 -74 125 -115q78 -43 172 -43q117 0 213 45q98 47 172 127q0 -160 168 -159q86 0 118 20v131l-67 -10q-31 4 -41 24t-10 64v610q0 98 -58 162q-57 63 -155 92q-92 27 -203 27q-137 0 -234 -49q-98 -51 -143 -133q-47 -84 -47 -175h168 q0 104 65 158q63 51 183 51q248 0 247 -188q0 -57 -34 -86q-35 -29 -86 -39q-12 -2 -50 -6q-39 -6 -77 -6l-97 -6q-141 -23 -223 -70q-80 -47 -112 -115q-16 -35 -27 -74q-10 -36 -10 -73zM260 272q0 88 64 134q63 45 180 69l186 37q76 14 94 37v-193q0 -74 -53 -127 q-53 -55 -131 -82q-92 -35 -151 -34q-172 0 -189 159zM348 1217h139l265 286h-220z" />
<glyph unicode="&#xe2;" d="M68 268q0 -72 47 -143q47 -74 125 -115q78 -43 172 -43q117 0 213 45q98 47 172 127q0 -160 168 -159q86 0 118 20v131l-67 -10q-31 4 -41 24t-10 64v610q0 98 -58 162q-57 63 -155 92q-92 27 -203 27q-137 0 -234 -49q-98 -51 -143 -133q-47 -84 -47 -175h168 q0 104 65 158q63 51 183 51q248 0 247 -188q0 -57 -34 -86q-35 -29 -86 -39q-12 -2 -50 -6q-39 -6 -77 -6l-97 -6q-141 -23 -223 -70q-80 -47 -112 -115q-16 -35 -27 -74q-10 -36 -10 -73zM260 272q0 88 64 134q63 45 180 69l186 37q76 14 94 37v-193q0 -74 -53 -127 q-53 -55 -131 -82q-92 -35 -151 -34q-172 0 -189 159zM276 1217h164l135 188l136 -188h161l-200 286h-193z" />
<glyph unicode="&#xe3;" d="M68 268q0 -72 47 -143q47 -74 125 -115q78 -43 172 -43q117 0 213 45q98 47 172 127q0 -160 168 -159q86 0 118 20v131l-67 -10q-31 4 -41 24t-10 64v610q0 98 -58 162q-57 63 -155 92q-92 27 -203 27q-137 0 -234 -49q-98 -51 -143 -133q-47 -84 -47 -175h168 q0 104 65 158q63 51 183 51q248 0 247 -188q0 -57 -34 -86q-35 -29 -86 -39q-12 -2 -50 -6q-39 -6 -77 -6l-97 -6q-141 -23 -223 -70q-80 -47 -112 -115q-16 -35 -27 -74q-10 -36 -10 -73zM227 1239h97q29 92 96 92h29q4 -2 12 -2q18 -6 28 -8l84 -29l82 -28q25 -8 64 -9 q88 0 141 66q55 68 64 160h-101q-8 -43 -28 -70t-76 -27q-45 6 -107 33l-100 33q-35 10 -72 10q-184 0 -213 -221zM260 272q0 88 64 134q63 45 180 69l186 37q76 14 94 37v-193q0 -74 -53 -127q-53 -55 -131 -82q-92 -35 -151 -34q-172 0 -189 159z" />
<glyph unicode="&#xe4;" d="M68 268q0 -72 47 -143q47 -74 125 -115q78 -43 172 -43q117 0 213 45q98 47 172 127q0 -160 168 -159q86 0 118 20v131l-67 -10q-31 4 -41 24t-10 64v610q0 98 -58 162q-57 63 -155 92q-92 27 -203 27q-137 0 -234 -49q-98 -51 -143 -133q-47 -84 -47 -175h168 q0 104 65 158q63 51 183 51q248 0 247 -188q0 -57 -34 -86q-35 -29 -86 -39q-12 -2 -50 -6q-39 -6 -77 -6l-97 -6q-141 -23 -223 -70q-80 -47 -112 -115q-16 -35 -27 -74q-10 -36 -10 -73zM260 272q0 88 64 134q63 45 180 69l186 37q76 14 94 37v-193q0 -74 -53 -127 q-53 -55 -131 -82q-92 -35 -151 -34q-172 0 -189 159zM315 1237h189v207h-189v-207zM647 1237h189v207h-189v-207z" />
<glyph unicode="&#xe5;" d="M68 268q0 -72 47 -143q47 -74 125 -115q78 -43 172 -43q117 0 213 45q98 47 172 127q0 -160 168 -159q86 0 118 20v131l-67 -10q-31 4 -41 24t-10 64v610q0 98 -58 162q-57 63 -155 92q-92 27 -203 27q-137 0 -234 -49q-98 -51 -143 -133q-47 -84 -47 -175h168 q0 104 65 158q63 51 183 51q248 0 247 -188q0 -57 -34 -86q-35 -29 -86 -39q-12 -2 -50 -6q-39 -6 -77 -6l-97 -6q-141 -23 -223 -70q-80 -47 -112 -115q-16 -35 -27 -74q-10 -36 -10 -73zM260 272q0 88 64 134q63 45 180 69l186 37q76 14 94 37v-193q0 -74 -53 -127 q-53 -55 -131 -82q-92 -35 -151 -34q-172 0 -189 159zM387 1360q0 -53 25 -96t67 -68q43 -25 96 -25q82 0 136 54q53 53 53 135t-53 135q-54 53 -136 53t-135 -53t-53 -135zM471 1360q0 43 31 76q27 33 73 32q45 0 78 -30q31 -33 31 -78t-31 -76q-33 -33 -78 -33 q-43 0 -73 33q-31 31 -31 76z" />
<glyph unicode="&#xe6;" horiz-adv-x="1820" d="M72 276q0 -135 96 -223q96 -86 240 -86q94 0 176 25q80 20 143 71q61 49 117 130q57 -94 143 -158q90 -68 252 -68q119 0 178 21q39 10 64 24q31 18 47 29q86 57 139 149q23 41 39 82q14 35 14 64h-180q0 -33 -37 -88t-100 -88q-66 -35 -139 -35q-154 0 -232 90 q-80 90 -80 260h785q0 199 -51 334q-53 139 -156 215q-102 76 -258 76q-92 0 -164 -23q-39 -14 -61 -26q-27 -14 -43 -25q-8 -4 -31 -25l-15 -14q-23 -18 -43 -39q-78 82 -143 117q-72 35 -205 35q-209 0 -323 -88q-119 -88 -119 -269h168q10 88 59 148q49 61 185 61 q252 0 251 -176q0 -115 -92 -125l-297 -39q-197 -25 -260 -125q-68 -100 -67 -211zM260 303q0 92 64 125q35 18 77 31q31 10 86 20q252 33 297 66v-176q0 -70 -45 -127t-121 -90q-80 -35 -165 -35q-96 0 -144 49q-49 47 -49 137zM952 621q0 76 41 153q39 76 107 121 q63 45 147 45q152 0 223 -90q35 -43 58 -102q20 -55 20 -127h-596z" />
<glyph unicode="&#xe7;" horiz-adv-x="1024" d="M59 504q0 -205 103 -350q102 -144 282 -179l-112 -151l37 -39q55 14 80 14q31 0 63 -18q33 -18 33 -62q0 -47 -35 -69q-33 -18 -78 -19q-57 0 -135 33l-33 -80q102 -49 197 -49q111 0 176 53q63 51 63 140q0 61 -38 106q-39 45 -134 45l-63 -8l76 96q115 0 192 39 q76 37 129 96q49 59 80 136q27 70 35 139h-172q-25 -123 -94 -187q-72 -66 -166 -65q-293 0 -293 412q0 164 72 284q70 119 225 119q215 0 256 -231h172q-16 166 -111 278q-98 113 -291 113q-172 0 -284 -76q-115 -76 -174 -213q-57 -133 -58 -307z" />
<glyph unicode="&#xe8;" d="M80 504q0 -205 100 -348q66 -90 160 -140q96 -49 219 -49q119 0 180 21q20 6 56 22l10 4q37 18 47 27q92 59 137 152q45 88 55 143h-184q0 -35 -35 -88q-37 -55 -100 -88q-66 -35 -141 -35q-154 0 -232 90q-80 90 -80 260h785q0 240 -84 410q-35 70 -101 127 q-63 53 -135 80q-70 25 -149 24q-102 0 -189 -39q-94 -43 -163 -114q-76 -78 -115 -197q-23 -66 -31 -127q-10 -72 -10 -135zM272 621q0 78 41 155q39 72 109 119q63 45 149 45q150 0 222 -90q35 -43 57 -105q18 -57 18 -124h-596zM332 1503l264 -286h139l-184 286h-219z " />
<glyph unicode="&#xe9;" d="M80 504q0 -205 100 -348q66 -90 160 -140q96 -49 219 -49q119 0 180 21q20 6 56 22l10 4q37 18 47 27q92 59 137 152q45 88 55 143h-184q0 -35 -35 -88q-37 -55 -100 -88q-66 -35 -141 -35q-154 0 -232 90q-80 90 -80 260h785q0 240 -84 410q-35 70 -101 127 q-63 53 -135 80q-70 25 -149 24q-102 0 -189 -39q-94 -43 -163 -114q-76 -78 -115 -197q-23 -66 -31 -127q-10 -72 -10 -135zM272 621q0 78 41 155q39 72 109 119q63 45 149 45q150 0 222 -90q35 -43 57 -105q18 -57 18 -124h-596zM383 1217h139l264 286h-219z" />
<glyph unicode="&#xea;" d="M80 504q0 -205 100 -348q66 -90 160 -140q96 -49 219 -49q119 0 180 21q20 6 56 22l10 4q37 18 47 27q92 59 137 152q45 88 55 143h-184q0 -35 -35 -88q-37 -55 -100 -88q-66 -35 -141 -35q-154 0 -232 90q-80 90 -80 260h785q0 240 -84 410q-35 70 -101 127 q-63 53 -135 80q-70 25 -149 24q-102 0 -189 -39q-94 -43 -163 -114q-76 -78 -115 -197q-23 -66 -31 -127q-10 -72 -10 -135zM272 621q0 78 41 155q39 72 109 119q63 45 149 45q150 0 222 -90q35 -43 57 -105q18 -57 18 -124h-596zM276 1217h164l135 188l136 -188h161 l-200 286h-193z" />
<glyph unicode="&#xeb;" d="M80 504q0 -205 100 -348q66 -90 160 -140q96 -49 219 -49q119 0 180 21q20 6 56 22l10 4q37 18 47 27q92 59 137 152q45 88 55 143h-184q0 -35 -35 -88q-37 -55 -100 -88q-66 -35 -141 -35q-154 0 -232 90q-80 90 -80 260h785q0 240 -84 410q-35 70 -101 127 q-63 53 -135 80q-70 25 -149 24q-102 0 -189 -39q-94 -43 -163 -114q-76 -78 -115 -197q-23 -66 -31 -127q-10 -72 -10 -135zM272 621q0 78 41 155q39 72 109 119q63 45 149 45q150 0 222 -90q35 -43 57 -105q18 -57 18 -124h-596zM352 1237h189v207h-189v-207zM684 1237 h188v207h-188v-207z" />
<glyph unicode="&#xec;" horiz-adv-x="567" d="M-39 1503l264 -286h140l-185 286h-219zM193 0h180v1071h-180v-1071z" />
<glyph unicode="&#xed;" horiz-adv-x="567" d="M180 1217h139l265 286h-219zM193 0h180v1071h-180v-1071z" />
<glyph unicode="&#xee;" horiz-adv-x="567" d="M-27 1217h164l135 188l136 -188h161l-200 286h-193zM193 0h180v1071h-180v-1071z" />
<glyph unicode="&#xef;" horiz-adv-x="567" d="M12 1237h189v207h-189v-207zM193 0h180v1071h-180v-1071zM344 1237h188v207h-188v-207z" />
<glyph unicode="&#xf0;" d="M72 520q0 -141 55 -268q51 -123 170 -205q115 -80 287 -80q88 0 176 35q84 35 149 107q76 78 117 200q41 129 41 299q0 141 -39 264q-39 127 -110 240q-76 117 -179 211l222 104l-97 80l-217 -102q-43 35 -90 61q-61 29 -96 41l-154 -71q102 -41 185 -109l-244 -115 l88 -84l252 123q162 -125 227 -290l-4 -5q-98 115 -270 115q-141 0 -250 -78q-104 -74 -162 -205q-57 -127 -57 -268zM256 520q0 84 27 166q25 90 94 160q70 70 190 69q121 0 191 -67q70 -72 96 -160q27 -86 27 -168t-27 -168q-27 -88 -96 -157q-70 -70 -191 -70t-190 70 q-70 70 -94 159q-27 82 -27 166z" />
<glyph unicode="&#xf1;" d="M131 0h180v612q0 92 37 168q37 74 109 119q72 41 155 41q121 0 166 -74q45 -76 45 -202v-664h181v727q0 117 -43 203q-47 86 -127 127q-82 43 -197 43q-94 0 -166 -37q-78 -43 -115 -82q-43 -43 -53 -66v156h-172v-1071zM264 1239h96q29 92 97 92h28q4 -2 13 -2 q18 -6 28 -8l84 -29l82 -28q25 -8 64 -9q88 0 141 66q55 68 64 160h-101q-8 -43 -29 -70q-20 -27 -75 -27q-45 6 -107 33l-100 33q-35 10 -72 10q-184 0 -213 -221z" />
<glyph unicode="&#xf2;" d="M72 537q0 -139 53 -275q51 -131 168 -213q113 -82 274 -82q164 0 277 82t168 213q55 133 55 275q0 145 -55 274q-55 127 -168 209q-113 80 -277 80q-158 0 -272 -80q-117 -84 -168 -209q-55 -129 -55 -274zM256 537q0 150 72 280q72 127 239 127q119 0 189 -63t98 -158 q27 -92 27 -186q0 -92 -27 -185q-27 -94 -98 -159q-70 -68 -189 -68q-115 0 -186 68q-68 61 -96 159q-29 97 -29 185zM301 1503l264 -286h140l-185 286h-219z" />
<glyph unicode="&#xf3;" d="M72 537q0 -139 53 -275q51 -131 168 -213q113 -82 274 -82q164 0 277 82t168 213q55 133 55 275q0 145 -55 274q-55 127 -168 209q-113 80 -277 80q-158 0 -272 -80q-117 -84 -168 -209q-55 -129 -55 -274zM256 537q0 150 72 280q72 127 239 127q119 0 189 -63t98 -158 q27 -92 27 -186q0 -92 -27 -185q-27 -94 -98 -159q-70 -68 -189 -68q-115 0 -186 68q-68 61 -96 159q-29 97 -29 185zM453 1217h139l264 286h-219z" />
<glyph unicode="&#xf4;" d="M72 537q0 -139 53 -275q51 -131 168 -213q113 -82 274 -82q164 0 277 82t168 213q55 133 55 275q0 145 -55 274q-55 127 -168 209q-113 80 -277 80q-158 0 -272 -80q-117 -84 -168 -209q-55 -129 -55 -274zM256 537q0 150 72 280q72 127 239 127q119 0 189 -63t98 -158 q27 -92 27 -186q0 -92 -27 -185q-27 -94 -98 -159q-70 -68 -189 -68q-115 0 -186 68q-68 61 -96 159q-29 97 -29 185zM276 1217h164l135 188l136 -188h161l-200 286h-193z" />
<glyph unicode="&#xf5;" d="M72 537q0 -139 53 -275q51 -131 168 -213q113 -82 274 -82q164 0 277 82t168 213q55 133 55 275q0 145 -55 274q-55 127 -168 209q-113 80 -277 80q-158 0 -272 -80q-117 -84 -168 -209q-55 -129 -55 -274zM227 1239h97q29 92 96 92h29q4 -2 12 -2q18 -6 28 -8l84 -29 l82 -28q25 -8 64 -9q88 0 141 66q55 68 64 160h-101q-8 -43 -28 -70t-76 -27q-45 6 -107 33l-100 33q-35 10 -72 10q-184 0 -213 -221zM256 537q0 150 72 280q72 127 239 127q119 0 189 -63t98 -158q27 -92 27 -186q0 -92 -27 -185q-27 -94 -98 -159q-70 -68 -189 -68 q-115 0 -186 68q-68 61 -96 159q-29 97 -29 185z" />
<glyph unicode="&#xf6;" d="M72 537q0 -139 53 -275q51 -131 168 -213q113 -82 274 -82q164 0 277 82t168 213q55 133 55 275q0 145 -55 274q-55 127 -168 209q-113 80 -277 80q-158 0 -272 -80q-117 -84 -168 -209q-55 -129 -55 -274zM256 537q0 150 72 280q72 127 239 127q119 0 189 -63t98 -158 q27 -92 27 -186q0 -92 -27 -185q-27 -94 -98 -159q-70 -68 -189 -68q-115 0 -186 68q-68 61 -96 159q-29 97 -29 185zM315 1237h189v207h-189v-207zM647 1237h189v207h-189v-207z" />
<glyph unicode="&#xf7;" horiz-adv-x="1126" d="M109 664h925v184h-925v-184zM455 274h227v224h-227v-224zM455 1004h227v223h-227v-223z" />
<glyph unicode="&#xf8;" horiz-adv-x="1251" d="M55 8l66 -55l123 139q125 -125 323 -125q164 0 277 82t168 213q55 133 55 275q0 217 -111 366l144 162l-64 51l-133 -147q-125 131 -336 131q-158 0 -272 -80q-117 -84 -168 -209q-55 -129 -55 -274q0 -227 116 -381zM256 537q0 150 72 280q72 127 239 127 q139 0 226 -104l-486 -547q-51 102 -51 244zM356 219l480 545q45 -96 45 -227q0 -92 -27 -185q-27 -94 -98 -159q-70 -68 -189 -68q-137 0 -211 94z" />
<glyph unicode="&#xf9;" d="M143 272q0 -139 84 -229t222 -90q100 0 200 43q98 39 170 117v-113h180v1079h-180v-647q0 -129 -82 -217t-188 -111l-49 -4q-72 0 -125 54q-55 53 -56 149v776h-176v-807zM264 1503l264 -286h140l-185 286h-219z" />
<glyph unicode="&#xfa;" d="M143 272q0 -139 84 -229t222 -90q100 0 200 43q98 39 170 117v-113h180v1079h-180v-647q0 -129 -82 -217t-188 -111l-49 -4q-72 0 -125 54q-55 53 -56 149v776h-176v-807zM453 1217h139l264 286h-219z" />
<glyph unicode="&#xfb;" d="M143 272q0 -139 84 -229t222 -90q100 0 200 43q98 39 170 117v-113h180v1079h-180v-647q0 -129 -82 -217t-188 -111l-49 -4q-72 0 -125 54q-55 53 -56 149v776h-176v-807zM276 1217h164l135 188l136 -188h161l-200 286h-193z" />
<glyph unicode="&#xfc;" d="M143 272q0 -139 84 -229t222 -90q100 0 200 43q98 39 170 117v-113h180v1079h-180v-647q0 -129 -82 -217t-188 -111l-49 -4q-72 0 -125 54q-55 53 -56 149v776h-176v-807zM315 1237h189v207h-189v-207zM647 1237h189v207h-189v-207z" />
<glyph unicode="&#xfd;" horiz-adv-x="1024" d="M20 1071l400 -1104l-72 -170q-20 -39 -45 -57q-27 -16 -76 -16q-63 0 -106 16v-164q61 -16 76 -16q96 0 145 12q45 12 86 53q37 37 76 125q45 92 112 270q29 74 80 209l29 76q12 33 37 103q55 154 90 247q49 131 147 416h-194l-289 -874l-293 874h-203zM483 1217h140 l264 286h-219z" />
<glyph unicode="&#xfe;" d="M117 -424h180l2 537q41 -66 115 -105q80 -41 174 -41q168 0 274 88q109 90 154 228q45 135 45 284q0 154 -51 271q-51 119 -156 190q-102 72 -242 72q-127 0 -192 -49q-35 -27 -66 -58q-29 -29 -57 -69v549h-180v-852v-1045zM289 483q0 111 22 217q23 100 86 170t183 70 q293 0 292 -403q0 -182 -73 -297q-74 -115 -215 -115q-106 0 -201 84q-94 81 -94 274z" />
<glyph unicode="&#xff;" horiz-adv-x="1024" d="M20 1071l400 -1104l-72 -170q-20 -39 -45 -57q-27 -16 -76 -16q-63 0 -106 16v-164q61 -16 76 -16q96 0 145 12q45 12 86 53q37 37 76 125q45 92 112 270q29 74 80 209l29 76q12 33 37 103q55 154 90 247q49 131 147 416h-194l-289 -874l-293 874h-203zM248 1237h188v207 h-188v-207zM580 1237h188v207h-188v-207z" />
<glyph unicode="&#x152;" horiz-adv-x="2048" d="M72 727q0 -221 71 -399q72 -176 205 -271q135 -98 324 -98q121 0 188 27q76 31 115 65q29 25 43 43q10 12 24 29q14 16 25 29v-152h909v176h-721v492h684v176h-684v448h717v181h-901l-4 -152q-111 186 -367 186q-231 0 -374 -127q-143 -125 -199 -305q-55 -178 -55 -348z M276 692q0 244 86 447q84 201 343 200q102 0 182 -39q84 -39 129 -116q45 -76 45 -176v-537q0 -121 -51 -197t-131 -110q-80 -35 -148 -35q-109 0 -188 29q-80 29 -127 84q-47 49 -88 145q-51 123 -52 305z" />
<glyph unicode="&#x153;" horiz-adv-x="1931" d="M72 537q0 -139 53 -275q51 -131 168 -213q113 -82 274 -82q102 0 213 43q111 41 172 166q147 -209 400 -209q115 0 174 21q55 16 119 53q90 59 135 149q23 41 39 82q14 35 14 64h-180q0 -39 -33 -90t-100 -86q-66 -35 -144 -35q-98 0 -170 41q-74 43 -106 121 q-35 82 -35 188h782q0 197 -51 332q-53 141 -154 217q-100 76 -253 76q-147 0 -244 -51q-100 -51 -172 -164q-131 215 -406 215q-158 0 -272 -80q-117 -84 -168 -209q-55 -129 -55 -274zM256 537q0 150 72 280q72 127 239 127q119 0 189 -63t98 -158q27 -92 27 -186 q0 -92 -27 -185q-27 -94 -98 -159q-70 -68 -189 -68q-115 0 -186 68q-68 61 -96 159q-29 97 -29 185zM1065 621q0 76 41 153q39 76 106 121q63 45 148 45q152 0 223 -90q35 -41 59 -102q18 -57 19 -127h-596z" />
<glyph unicode="&#x178;" horiz-adv-x="1359" d="M29 1473l555 -885v-588h196v588l555 885h-231l-424 -709l-420 709h-231zM440 1638h189v207h-189v-207zM772 1638h189v207h-189v-207z" />
<glyph unicode="&#x2c6;" horiz-adv-x="679" d="M41 1217h164l135 188l135 -188h162l-201 286h-192z" />
<glyph unicode="&#x2dc;" horiz-adv-x="679" d="M-8 1239h96q29 92 96 92h29q4 -2 12 -2q18 -6 29 -8l84 -29l82 -28q25 -8 63 -9q88 0 142 66q55 68 63 160h-100q-8 -43 -29 -70q-20 -27 -76 -27q-45 6 -106 33l-101 33q-35 10 -71 10q-184 0 -213 -221z" />
<glyph unicode="&#x2000;" horiz-adv-x="972" />
<glyph unicode="&#x2001;" horiz-adv-x="1944" />
<glyph unicode="&#x2002;" horiz-adv-x="972" />
<glyph unicode="&#x2003;" horiz-adv-x="1944" />
<glyph unicode="&#x2004;" horiz-adv-x="648" />
<glyph unicode="&#x2005;" horiz-adv-x="486" />
<glyph unicode="&#x2006;" horiz-adv-x="324" />
<glyph unicode="&#x2007;" horiz-adv-x="324" />
<glyph unicode="&#x2008;" horiz-adv-x="243" />
<glyph unicode="&#x2009;" horiz-adv-x="388" />
<glyph unicode="&#x200a;" horiz-adv-x="108" />
<glyph unicode="&#x2010;" horiz-adv-x="679" d="M88 475h504v184h-504v-184z" />
<glyph unicode="&#x2011;" horiz-adv-x="679" d="M88 475h504v184h-504v-184z" />
<glyph unicode="&#x2012;" horiz-adv-x="679" d="M88 475h504v184h-504v-184z" />
<glyph unicode="&#x2013;" horiz-adv-x="2048" d="M0 641l4 -149h2044l-4 149h-2044z" />
<glyph unicode="&#x2014;" d="M-16 516h1161v143h-1161v-143z" />
<glyph unicode="&#x2018;" horiz-adv-x="456" d="M131 961h213v219h-108q0 88 22 143q20 47 86 70v92q-102 -18 -158 -101q-55 -82 -55 -208v-215z" />
<glyph unicode="&#x2019;" horiz-adv-x="456" d="M109 948q74 14 120 62q31 31 43 53q18 31 27 55q20 59 20 133v222h-210v-222h106q0 -188 -106 -207v-96z" />
<glyph unicode="&#x201a;" horiz-adv-x="567" d="M176 0h113q0 -209 -113 -209v-94q211 45 211 303v215h-211v-215z" />
<glyph unicode="&#x201c;" horiz-adv-x="679" d="M76 961h213v219h-109q0 82 23 143q20 55 86 66v96q-213 -53 -213 -322v-202zM416 961h213v219h-109q0 84 19 141q18 57 90 68v96q-119 -27 -166 -111t-47 -211v-202z" />
<glyph unicode="&#x201d;" horiz-adv-x="679" d="M51 948q213 53 213 320v205h-213v-222h109q0 -78 -19 -137q-18 -59 -90 -70v-96zM391 948q213 53 213 320v205h-213v-222h109q0 -190 -109 -207v-96z" />
<glyph unicode="&#x201e;" horiz-adv-x="679" d="M51 0h109q0 -82 -19 -139q-18 -57 -90 -74v-94q213 53 213 323v199h-213v-215zM391 0h109q0 -86 -21 -139q-18 -59 -88 -74v-94q213 53 213 323v199h-213v-215z" />
<glyph unicode="&#x2022;" horiz-adv-x="716" d="M84 748q0 -106 76 -181t180 -75q111 0 182 75q74 78 74 181q0 72 -33 129q-35 59 -94 94q-57 33 -129 33q-100 0 -178 -74q-78 -78 -78 -182z" />
<glyph unicode="&#x2026;" horiz-adv-x="2048" d="M236 0h213v215h-213v-215zM913 0h220v215h-220v-215zM1599 0h213v215h-213v-215z" />
<glyph unicode="&#x202f;" horiz-adv-x="388" />
<glyph unicode="&#x2039;" horiz-adv-x="679" d="M180 471l320 -252v180l-215 164l215 172v176l-320 -252v-188z" />
<glyph unicode="&#x203a;" horiz-adv-x="679" d="M180 219l320 252v188l-320 252v-180l211 -164l-211 -168v-180z" />
<glyph unicode="&#x205f;" horiz-adv-x="486" />
<glyph unicode="&#x2122;" horiz-adv-x="2048" d="M92 1348h260v-723h152v723h260v125h-672v-125zM911 625h150v688l266 -688h105l268 688v-688h147v848h-227l-236 -625l-243 625h-230v-848z" />
<glyph unicode="&#x25fc;" horiz-adv-x="1075" d="M0 0v1075h1075v-1075h-1075z" />
</font>
</defs>
</svg>
