<?xml version="1.0" standalone="no"?>
<!DOCTYPE svg PUBLIC "-//W3C//DTD SVG 1.1//EN" "http://www.w3.org/Graphics/SVG/1.1/DTD/svg11.dtd" >
<svg xmlns="http://www.w3.org/2000/svg" xmlns:xlink="http://www.w3.org/1999/xlink" version="1.1">
<metadata></metadata>
<defs>
<font id="venturissans_adfregular" horiz-adv-x="454" >
<font-face units-per-em="2048" ascent="1536" descent="-512" />
<missing-glyph horiz-adv-x="665" />
<glyph unicode="AE" horiz-adv-x="1538" d="M2 0q10 13 27 43q55 103 184.5 369t169.5 346l215 428q6 12 6 20q0 15 -10 28t-29 24.5t-36.5 20t-43.5 20t-39 18.5h994v-191q-11 -20 -33 -20q-21 0 -41 20q-25 72 -77 98.5t-165 26.5h-170q-41 0 -53 -13t-12 -56v-461h244q85 0 122 27q29 -19 29 -58v-6 q0 -36 -29 -59q-37 24 -122 24h-244v-411q0 -124 47 -148q49 -24 178 -24q138 0 204 26.5t101 112.5q23 31 39 31h2q6 -3 12 -5.5t7.5 -2.5t4 -2t2.5 -3t3 -7t6 -11l-12 -205h-920q91 28 124.5 59t33.5 101v20v469h-299q-254 -531 -291 -631q-4 -16 -4 -18h-125zM455 721 h266v520h-10z" />
<glyph unicode="ae" horiz-adv-x="1419" d="M86 233q0 165 162 216q23 7 82.5 26t90 29.5t73 26.5t67.5 30t37 27v80q0 50 -13 86t-35 54.5t-46 27t-51 8.5q-133 0 -185 -176q-7 -27 -17.5 -39.5t-33.5 -12.5q-34 0 -67 22.5t-33 61.5q0 77 104.5 142t249.5 65q177 0 242 -110q98 110 266 110q66 0 120 -15 t89.5 -38.5t62.5 -57t42 -65.5t24 -69.5t11.5 -64.5t2.5 -54q0 -39 -18.5 -53.5t-50.5 -14.5h-502v-22q0 -75 11.5 -138t38.5 -121t79.5 -91t126.5 -33q49 0 82 3.5t77 15.5t80.5 41t65.5 75q-37 -110 -118.5 -167t-221.5 -58h-8q-227 0 -314 155l-65 -49 q-138 -104 -254 -106q-119 0 -186.5 73t-67.5 180zM262 258q0 -81 41.5 -132.5t118.5 -51.5q28 0 56.5 9t56.5 28.5t45.5 57t17.5 87.5v258q-34 -24 -201 -88q-73 -30 -104 -67.5t-31 -100.5zM762 543h330q33 0 46 15t13 44q0 26 -3 52.5t-14.5 62.5t-30 62.5t-53.5 45.5 t-81 19q-50 0 -89.5 -24.5t-60.5 -59t-35 -79t-18 -77.5t-4 -61z" />
<glyph unicode="OE" horiz-adv-x="1767" d="M82 649q0 196 68.5 339t175.5 216q102 69 215 91t247 22h881v-191q-12 -23 -37 -20q-19 0 -39 20q-25 72 -75.5 98.5t-163.5 26.5h-170q-41 0 -53.5 -14t-12.5 -55v-461h244q77 0 113 20q27 -18 24 -53q0 -35 -24 -59q-36 20 -113 20h-244v-411q0 -66 10 -100.5t37 -47.5 q49 -24 178 -24q138 0 204.5 26.5t101.5 112.5q22 34 39 31q12 -2 24 -10t12 -21l-12 -205h-934q-66 0 -113 3t-110 12.5t-120.5 32t-108.5 58.5q-110 75 -177 213.5t-67 329.5zM279 657q0 -88 12.5 -168t45.5 -159t84 -136t133.5 -92.5t188.5 -35.5q114 0 158.5 20t44.5 80 v985q0 58 -48 79t-150 21q-108 0 -191 -34t-134.5 -89.5t-84.5 -134.5t-46 -160.5t-13 -175.5z" />
<glyph unicode="oe" horiz-adv-x="1583" d="M102 442q0 223 105 344t311 121q111 0 194 -38t130 -107q48 64 124 104.5t177 40.5q66 0 120 -15t89.5 -38.5t62.5 -57t42 -65.5t24 -69.5t11.5 -64.5t2.5 -54q0 -68 -70 -68h-501v-12q0 -393 256 -393q108 0 177.5 27.5t127.5 107.5q-37 -110 -118 -167t-222 -58h-8 q-214 0 -301 139q-103 -139 -318 -139q-206 0 -311 119.5t-105 342.5zM285 442q0 -192 58.5 -296.5t174.5 -104.5q119 0 178.5 104.5t59.5 296.5t-59.5 297t-178.5 105q-116 0 -174.5 -105t-58.5 -297zM926 543h329q34 0 47 15t13 44q0 26 -3 52.5t-14.5 62.5t-30 62.5 t-53.5 45.5t-81 19q-51 0 -90.5 -24.5t-60.5 -59t-34.5 -79t-17.5 -77.5t-4 -61z" />
<glyph unicode="&#xfb01;" horiz-adv-x="1048" d="M53 813v72h133v135q0 96 25.5 192t69.5 150q107 123 301 123q141 0 224 -50.5t83 -115.5q0 -40 -30.5 -62t-65.5 -22q-33 0 -50 33q-52 153 -180 153h-18q-93 0 -155 -48t-62 -142q0 -57 22 -119v-227h254q62 0 122 4.5t112.5 10.5t68.5 7v-907h-164v729q0 50 -11 67 t-46 17h-336v-813h-164v813h-133z" />
<glyph unicode="&#xfb02;" horiz-adv-x="1048" d="M53 813v72h133v141q0 107 25.5 202t69.5 144q104 113 286 113q128 0 217 -49l111 49l12 -10v-1475h-164v1282q-19 68 -70 103.5t-114 35.5q-35 0 -73.5 -10t-77.5 -30.5t-64 -60t-25 -91.5q0 -61 31 -127v-217h213v-72h-213v-813h-164v813h-133z" />
<glyph unicode="&#xfb03;" horiz-adv-x="1540" d="M53 813v72h133v157q0 68 23.5 136.5t64.5 126t104.5 93.5t137.5 36q99 0 168.5 -42.5t69.5 -88.5q0 -38 -27 -62t-57 -24q-34 0 -47 30q-52 123 -144 123q-12 0 -27.5 -2.5t-39.5 -13t-42.5 -28t-32 -52t-13.5 -80.5v-12q2 -19 9 -57t12 -86t5 -115v-39h391v135 q0 96 25.5 192t69.5 150q107 123 301 123q141 0 224 -50.5t83 -115.5q0 -40 -30.5 -62t-65.5 -22q-34 0 -50 33q-52 153 -180 153h-18q-93 0 -155 -48t-62 -142q0 -57 22 -119v-227h254q62 0 122 4.5t112.5 10.5t68.5 7v-907h-164v729q0 50 -11 67t-46 17h-336v-813h-164 v813h-391v-813h-164v813h-133z" />
<glyph unicode="&#xfb04;" horiz-adv-x="1540" d="M53 813v72h133v157q0 68 23.5 136.5t64.5 126t104.5 93.5t137.5 36q99 0 168.5 -42.5t69.5 -88.5q0 -38 -27 -62t-57 -24q-34 0 -47 30q-52 123 -144 123q-12 0 -27.5 -2.5t-39.5 -13t-42.5 -28t-32 -52t-13.5 -80.5v-12q2 -19 9 -57t12 -86t5 -115v-39h383v141 q0 108 25 202.5t69 143.5q104 113 287 113q128 0 217 -49l111 49l12 -10v-1475h-164v1282q-19 68 -70 103.5t-114 35.5q-35 0 -73.5 -10t-77.5 -30.5t-64 -60t-25 -91.5q0 -61 31 -127v-217h213v-72h-213v-813h-164v813h-383v-813h-164v813h-133z" />
<glyph horiz-adv-x="0" />
<glyph horiz-adv-x="682" />
<glyph unicode=" "  horiz-adv-x="665" />
<glyph unicode="&#x09;" horiz-adv-x="665" />
<glyph unicode="&#xa0;" horiz-adv-x="665" />
<glyph unicode="!" horiz-adv-x="430" d="M104 96q0 53 30 88t79 35q51 0 81 -34.5t30 -88.5q-2 -54 -31 -86.5t-80 -32.5q-49 0 -79 33t-30 86zM117 1262q0 45 20 64.5t76 19.5q59 0 79.5 -21t20.5 -70q0 -6 -1 -18t-1 -18l-73 -822h-50l-69 822q-2 16 -2 43z" />
<glyph unicode="&#x22;" horiz-adv-x="638" d="M76 1335q0 78 80 78q82 0 82 -78q0 -16 -2 -24l-62 -428h-35l-61 428q-2 8 -2 24zM362 1335q0 78 82 78q80 0 80 -78q0 -16 -2 -24l-61 -428h-35l-61 428q-3 12 -3 24z" />
<glyph unicode="#" horiz-adv-x="940" d="M27 440l20 88h184l58 254h-187l21 88h186l90 402h95l-93 -402h236l90 402h92l-90 -402h182l-18 -88h-182l-58 -254h181l-17 -88h-182l-100 -440h-95l101 440h-234l-100 -440h-94l100 440h-186zM326 528h235l57 254h-235z" />
<glyph unicode="$" horiz-adv-x="892" d="M59 209q0 40 26 68t54 28q33 0 51 -41q26 -58 56 -98.5t59 -61t53.5 -29t47.5 -9.5v526q-175 56 -250.5 142.5t-75.5 207.5q0 81 27.5 144.5t74.5 102t104 59t120 22.5v143h69v-141q143 -4 224 -66t81 -131q0 -37 -27 -57.5t-53 -20.5q-19 0 -29.5 8t-17.5 29 q-61 160 -178 170v-463q179 -55 266.5 -149t87.5 -244q0 -88 -31 -155t-73.5 -102.5t-96.5 -57t-89.5 -27.5t-63.5 -6v-193h-69v193q-76 2 -138 18t-99.5 39.5t-63.5 52.5t-36 53.5t-10 45.5zM217 993q0 -50 16 -88.5t46.5 -64t58.5 -40.5t68 -30v432q-24 0 -48.5 -6.5 t-50 -22.5t-45.5 -39t-32.5 -59.5t-12.5 -81.5zM475 66h6q34 0 67 11t63.5 35t49.5 69.5t19 107.5q0 118 -53.5 180.5t-151.5 97.5v-501z" />
<glyph unicode="%" horiz-adv-x="1404" d="M57 946q0 167 68.5 257.5t204.5 90.5q116 0 194 -65q14 -10 18 -12t14 -6.5t19 -5.5t23 -1h295q46 3 73.5 16.5t49.5 47.5l43 65l59 -41l-766 -1339l-63 49l651 1141h-356q22 -64 22 -197q0 -167 -69.5 -257.5t-206.5 -90.5q-136 0 -204.5 90.5t-68.5 257.5zM186 946 q0 -137 38 -213t106 -76q70 0 108.5 75.5t38.5 213.5q0 144 -38.5 215.5t-108.5 71.5q-67 0 -105.5 -72t-38.5 -215zM795 326q0 166 68.5 257t203.5 91q137 0 205.5 -91t68.5 -257q0 -168 -68.5 -258.5t-205.5 -90.5q-136 0 -204 91t-68 258zM922 326q0 -137 38.5 -213 t106.5 -76q69 0 107 75.5t38 213.5q0 144 -38.5 215t-106.5 71q-67 0 -106 -71.5t-39 -214.5z" />
<glyph unicode="&#x26;" horiz-adv-x="1218" d="M63 330v4q0 54 16.5 102.5t38.5 82.5t60 70t66.5 56.5t72.5 50.5q-34 48 -55 83t-40 93.5t-19 118.5q0 126 80.5 214.5t201.5 88.5q110 0 184 -70.5t74 -191.5q0 -45 -14.5 -84t-34.5 -66.5t-58.5 -58t-67 -49t-79.5 -47.5q160 -217 365 -422q113 140 113 381 q0 56 -6 105q52 34 110 34q17 0 23 -2q32 -68 32 -125q0 -34 -12 -71q-52 -160 -215 -369q72 -74 152.5 -141t136.5 -84l-10 -45l-35 4q-190 14 -289 104l-49 41q-166 -160 -363 -160q-165 0 -272 94.5t-107 258.5zM231 373q0 -135 74.5 -219t188.5 -84q82 0 141.5 28 t122.5 88q-229 224 -406 457q-121 -115 -121 -270zM336 1038q0 -128 113 -266q161 121 161 270q0 80 -34.5 132.5t-96.5 52.5q-59 0 -101 -52.5t-42 -136.5z" />
<glyph unicode="'" horiz-adv-x="333" d="M90 883v499q4 103 80 103q80 0 80 -78q0 -17 -2 -25l-123 -499h-35z" />
<glyph unicode="(" horiz-adv-x="483" d="M66 537q0 114 10 216.5t37 206.5t69 180t110.5 125t156.5 52v-47q-36 -8 -70 -33t-70 -79.5t-62.5 -133.5t-43.5 -204.5t-17 -282.5t18 -283.5t45 -204.5t63.5 -133t69.5 -79t67 -32v-49q-74 3 -134 37.5t-101 93t-70.5 132t-46 162.5t-24 175.5t-7.5 180.5z" />
<glyph unicode=")" horiz-adv-x="516" d="M35 -195q33 8 65.5 32t69 79t63.5 133t44.5 204.5t17.5 283.5t-17 282.5t-43 204.5t-61.5 133.5t-69 79.5t-69.5 33v47q88 -3 156.5 -52t110.5 -125t69 -180t37 -206.5t10 -216.5q0 -94 -7.5 -180.5t-24 -175.5t-46 -162.5t-70.5 -132t-101 -93t-134 -37.5v49z" />
<glyph unicode="*" horiz-adv-x="706" d="M76 1155q0 23 12 41q19 31 45 31q20 0 39 -19l131 -121q10 -10 16 -10q9 0 9 13q0 12 -2 18l-33 178q0 3 -1 7.5t-1 6.5q0 46 57 46q55 0 55 -46q0 -2 -1 -6.5t-1 -7.5l-32 -178q-2 -6 -2 -18q0 -13 8 -13q6 0 16 10l133 123q23 19 39 19q28 0 45 -33q13 -20 13 -39 q0 -33 -35 -47l-168 -74q-25 -9 -25 -20t21 -17l168 -75q34 -15 34 -52q0 -20 -12 -41q-18 -30 -45 -30q-22 0 -39 20l-125 131q-13 13 -18 13q-10 0 -10 -17q0 -12 2 -18l32 -176q2 -8 2 -23q0 -53 -55 -53q-57 0 -57 55q0 13 2 21l33 176q2 8 2 18q0 17 -9 17 q-5 0 -18 -13l-127 -129q-17 -20 -39 -20q-24 0 -43 28q-12 21 -12 43q0 36 35 50l166 75q20 6 20 17t-25 20l-165 72q-35 14 -35 47z" />
<glyph unicode="+" horiz-adv-x="882" d="M20 420v110h363v402h119v-402h360v-110h-360v-420h-119v420h-363z" />
<glyph unicode="," horiz-adv-x="438" d="M86 -231q100 124 100 221q0 42 -28.5 96t-28.5 86q0 39 23.5 67.5t62.5 28.5h2q47 0 82 -49t35 -123q0 -51 -19 -102.5t-58 -103t-65 -81t-73 -77.5z" />
<glyph unicode="-" horiz-adv-x="710" d="M141 410v133h428v-133h-428z" />
<glyph unicode="." horiz-adv-x="452" d="M109 96q0 54 30 88.5t80 34.5t79.5 -34.5t29.5 -88.5q-2 -54 -30.5 -86.5t-78.5 -32.5t-80 33t-30 86z" />
<glyph unicode="/" horiz-adv-x="548" d="M35 -27l364 1373h117l-364 -1373h-117z" />
<glyph unicode="0" horiz-adv-x="978" d="M98 657q0 148 21 266.5t66 210.5t122 142.5t182 50.5t181.5 -50.5t121.5 -142.5t66 -210.5t21 -266.5t-21 -268t-66 -214t-122 -146t-181 -52q-105 0 -182 52t-121.5 146t-66 214t-21.5 268zM276 657q0 -124 10.5 -227.5t33.5 -194t66 -141.5t103 -51t102.5 51 t65.5 141.5t33 193.5t10 228q0 603 -211 603q-60 0 -103 -49t-66 -137t-33.5 -190.5t-10.5 -226.5z" />
<glyph unicode="1" horiz-adv-x="522" d="M12 1212v48l359 67l10 -12v-1256q0 -31 8 -59h-180q8 19 8 59v1059q0 40 -9.5 55.5t-33.5 18.5z" />
<glyph unicode="2" horiz-adv-x="897" d="M39 18q30 126 102 247.5t221 262.5q64 62 103.5 107.5t75 102.5t51.5 119t16 136q0 262 -174 262q-76 0 -128 -65t-75 -168q-5 -26 -16 -38.5t-35 -12.5l-94 94q0 39 23.5 82.5t66.5 83.5t114 66t156 26q72 0 132 -19t109 -59.5t76.5 -111t27.5 -166.5q0 -42 -7.5 -79.5 t-17.5 -66.5t-32 -60.5t-38.5 -51.5t-50.5 -50.5t-54.5 -47t-63.5 -50.5q-22 -17 -33 -26q-113 -89 -191 -199t-100 -193h444q56 0 85.5 22t55.5 95l50 -10l-60 -250h-721z" />
<glyph unicode="3" horiz-adv-x="899" d="M37 193l94 106q36 0 51 -55q27 -87 85 -144t139 -57q99 0 162 81t63 243q0 132 -62.5 227.5t-169.5 95.5q-50 0 -98.5 -9t-52.5 -9q-31 0 -31 53t31 53q4 0 52.5 -9t98.5 -9q54 0 92 23t57 62.5t27.5 81t8.5 89.5q0 44 -7.5 83t-25.5 76t-53 58.5t-84 21.5 q-139 0 -203 -213q-9 -36 -43 -36l-84 90q0 32 22 70t62.5 74t108.5 59.5t149 23.5q149 0 243.5 -77t94.5 -228q0 -67 -24.5 -120.5t-64 -85.5t-78.5 -50.5t-79 -26.5v-6q32 -3 68 -15.5t78 -40t74.5 -65.5t54.5 -99t22 -134q0 -183 -111.5 -290.5t-300.5 -107.5 q-87 0 -160 22t-116 55.5t-66.5 70t-23.5 68.5z" />
<glyph unicode="4" horiz-adv-x="868" d="M16 426q225 418 519 891h127v-842h180v-90h-180v-342q0 -23 4 -43h-164q4 20 4 43v342h-475zM141 475h365v658h-4q-217 -371 -361 -658z" />
<glyph unicode="5" horiz-adv-x="897" d="M55 193l92 102q35 0 48 -47q66 -205 219 -205q108 0 166.5 107.5t58.5 265.5q0 176 -69 267t-164 91q-69 0 -126 -33t-112 -102l-43 23l35 636l18 19h582l8 -17l-41 -129h-434q-26 0 -36.5 -10.5t-14.5 -44.5l-19 -338l4 8q75 72 234 72t259.5 -112.5t100.5 -309.5 q0 -93 -25.5 -174t-75.5 -145.5t-131.5 -102t-185.5 -37.5q-156 0 -252 70.5t-96 145.5z" />
<glyph unicode="6" horiz-adv-x="966" d="M96 588q0 200 38 354.5t99 231.5q120 149 310 149q74 0 133 -20.5t92.5 -53t50.5 -66.5t17 -65l-93 -84q-35 0 -45 39q-21 85 -62 133.5t-99 48.5q-123 0 -195.5 -155.5t-73.5 -460.5h4q49 63 120 113.5t155 50.5h8h8q139 0 232.5 -106t93.5 -289q0 -199 -102.5 -315 t-292.5 -116q-398 0 -398 611zM272 449q0 -117 23.5 -207t75 -144.5t125.5 -54.5q107 0 163 90.5t56 245.5t-64.5 241.5t-154.5 86.5q-69 0 -121.5 -41t-77.5 -98.5t-25 -118.5z" />
<glyph unicode="7" horiz-adv-x="847" d="M27 1051l55 266h723l16 -21q-21 -85 -53 -164.5t-58.5 -128.5t-75 -136t-77.5 -142q-131 -253 -131 -621v-55v-4q0 -68 -86 -68q-94 0 -94 76q0 163 66.5 349t183.5 370q65 102 108 188.5t56 124.5t26 86h-471q-55 0 -79.5 -18.5t-43.5 -62.5l-18 -39h-47z" />
<glyph unicode="8" horiz-adv-x="952" d="M86 362q0 138 67 231t162 116v6q-83 25 -136.5 98.5t-53.5 185.5q0 150 98.5 237t251.5 87q155 0 252.5 -86t97.5 -238q0 -112 -54 -185.5t-138 -98.5v-6q96 -23 162.5 -115.5t66.5 -231.5q0 -76 -21.5 -142.5t-66 -122t-121.5 -88t-178 -32.5q-103 0 -180.5 32.5 t-121.5 88t-65.5 122t-21.5 142.5zM260 356q0 -134 55.5 -223.5t159.5 -89.5q105 0 159 89t54 224q0 136 -56 226t-157 90q-100 0 -157.5 -90t-57.5 -226zM293 1004q0 -108 47 -186.5t135 -78.5q46 0 81.5 22.5t56.5 61t31.5 84.5t10.5 97q-3 114 -48.5 182.5t-131.5 68.5 q-87 0 -134.5 -69.5t-47.5 -181.5z" />
<glyph unicode="9" horiz-adv-x="946" d="M76 899q0 194 106.5 309t276.5 115q171 0 274 -127q111 -147 111 -481q0 -406 -115 -580q-102 -158 -315 -158q-145 0 -224 63t-79 136l82 96q22 0 32 -9t17 -30q12 -40 24.5 -68.5t34 -59t54.5 -46.5t75 -16q149 0 203 221q41 173 41 434h-4q-46 -73 -112.5 -116 t-145.5 -43q-92 0 -166.5 39t-122 122.5t-47.5 198.5zM250 952q0 -141 57 -227t158 -86q67 0 116 41.5t70 110.5q13 31 13 100q0 95 -22 176t-70.5 134.5t-114.5 53.5q-98 0 -152.5 -84t-54.5 -219z" />
<glyph unicode=":" horiz-adv-x="452" d="M109 96q0 54 30 88.5t80 34.5t79.5 -34.5t29.5 -88.5q-2 -54 -30.5 -86.5t-78.5 -32.5t-80 33t-30 86zM109 811q0 52 30 86.5t80 34.5t79.5 -34.5t29.5 -86.5q-2 -55 -30.5 -89t-78.5 -34t-80 34t-30 89z" />
<glyph unicode=";" horiz-adv-x="444" d="M84 -231q100 124 100 221q0 42 -28.5 96t-28.5 86q0 39 23.5 67.5t62.5 28.5h2q47 0 82 -49t35 -123q0 -51 -19 -102.5t-58 -103t-65 -81t-73 -77.5zM117 811q0 52 30 86.5t80 34.5t79.5 -34.5t29.5 -86.5q-2 -55 -30.5 -89t-78.5 -34t-80 34t-30 89z" />
<glyph unicode="&#x3c;" horiz-adv-x="954" d="M47 399v152l832 399v-133l-729 -342l729 -342v-133z" />
<glyph unicode="=" horiz-adv-x="1124" d="M141 211v111h842v-111h-842zM141 629v110h842v-110h-842z" />
<glyph unicode="&#x3e;" horiz-adv-x="952" d="M74 0v133l729 342l-729 342v133l831 -399v-152z" />
<glyph unicode="?" horiz-adv-x="681" d="M45 1124q0 21 8.5 47t31 57t55 56.5t86 43t118.5 18.5q123 0 198.5 -65.5t78.5 -193.5q-1 -28 -6.5 -54.5t-12.5 -46t-21 -40.5t-23 -33.5t-27.5 -29.5t-26.5 -23.5t-27.5 -22t-23.5 -18.5q-134 -103 -134 -219q0 -69 40.5 -104t78.5 -35q30 0 54 8l14 -37 q-58 -53 -168 -53q-76 0 -131 49t-55 135q0 63 30 109t111 114q64 52 110 134t46 167q0 87 -28 139t-85 52q-108 0 -143 -203q-5 -45 -56 -45q-30 0 -61 23.5t-31 70.5zM217 94q0 51 31 86t78 35q49 0 78.5 -34.5t29.5 -86.5q-2 -52 -30.5 -84.5t-77.5 -32.5q-47 0 -78 33 t-31 84z" />
<glyph unicode="@" horiz-adv-x="1380" d="M78 575q0 176 59 324t157 244.5t223.5 149.5t260.5 53q161 0 284 -76t186 -201.5t63 -280.5q0 -127 -55.5 -234.5t-145 -167.5t-190.5 -60q-123 0 -123 120q0 57 24 142l-2 2q-20 -39 -52.5 -82t-74 -85.5t-92.5 -69.5t-98 -27h-2q-47 2 -81 38t-34 121q0 45 15.5 108.5 t50.5 137.5t84 136.5t124.5 104.5t163.5 42q51 0 97 -25l6 17h114l-114 -492q-8 -40 -8 -51q0 -64 65 -64q89 0 165.5 117t76.5 262v10q0 222 -126 351t-317 129q-127 0 -236 -58t-180.5 -153.5t-112 -218.5t-40.5 -254q0 -74 14.5 -145.5t51.5 -144.5t92.5 -127t145 -88 t202.5 -34q104 0 188.5 17.5t229.5 80.5q-250 -170 -459 -170h-8q-112 0 -215 37t-188.5 108.5t-137 189.5t-51.5 267zM528 514q0 -98 60 -98q44 0 97 55.5t97 136.5t78 169t47 155q-35 26 -82 26q-52 0 -100.5 -35t-83 -88t-61 -114.5t-39.5 -116t-13 -90.5z" />
<glyph unicode="A" horiz-adv-x="1036" d="M18 0q17 28 35 84q27 76 68.5 202t88 270t64.5 198l183 563h129l401 -1251q15 -46 29 -66h-189q0 9 -8 41l-149 467h-391q-15 -51 -69 -228.5t-71 -242.5q-4 -14 -4 -37h-117zM301 580h346l-172 544h-4z" />
<glyph unicode="B" horiz-adv-x="1093" d="M35 0q33 13 55.5 24t49 30.5t40 47t13.5 62.5v12v965q0 37 -12 65.5t-37 49t-48 33t-61 28.5h504h18q194 0 289 -68q108 -82 108 -235q0 -109 -69 -187t-191 -106v-4q67 -10 121.5 -34t99.5 -64.5t70 -104t25 -145.5q0 -369 -435 -369h-540zM365 213q0 -90 32 -118.5 t135 -28.5q48 0 88.5 8t78.5 28.5t65 52t43 82.5t16 117q0 153 -86 237.5t-248 84.5h-124v-463zM365 741h116q291 0 291 263q0 70 -23.5 120.5t-63.5 77t-84 38t-95 11.5q-43 -1 -67.5 -3.5t-41 -7t-22.5 -17.5t-8 -26t-2 -42v-414z" />
<glyph unicode="C" horiz-adv-x="1167" d="M86 649q0 306 160 500q78 96 203.5 146.5t285.5 50.5q219 0 371 -74v-146q-14 -20 -47 -20h-6q-28 0 -45 20q-78 152 -289 152h-4q-93 0 -167.5 -35t-123 -94.5t-81 -140.5t-46.5 -169.5t-14 -185.5q0 -53 5 -106.5t18.5 -115.5t34 -117t54.5 -106.5t77.5 -88.5 t106 -59.5t136.5 -22.5q211 0 303 168q22 31 47 31q31 0 53 -31l-10 -144q-64 -37 -172 -62.5t-211 -25.5q-326 0 -473 160q-79 86 -122.5 218.5t-43.5 297.5z" />
<glyph unicode="D" horiz-adv-x="1335" d="M35 0q76 24 117 62.5t41 105.5v8v965v6q0 25 -7.5 46.5t-17 35t-29 28t-31.5 21.5t-37.5 20t-35.5 19h577q321 -3 478 -166q157 -167 157 -471q0 -346 -174 -513t-495 -167h-543zM365 238q0 -113 32 -142.5t148 -29.5q76 0 139.5 12t122 38.5t102.5 73t77 112.5t50 160 t17 212q0 127 -24 226t-78.5 179t-151 124.5t-232.5 47.5q-51 0 -80 -1t-54.5 -5.5t-36.5 -10.5t-19.5 -19.5t-10 -29t-1.5 -42.5v-905z" />
<glyph unicode="E" horiz-adv-x="1013" d="M35 0q34 15 50.5 22.5t41.5 23.5t36.5 31t20.5 38.5t9 52.5v8v965q0 25 -7.5 46.5t-17 35.5t-28.5 29.5t-31.5 23t-37.5 21.5t-36 20h880v-191q-17 -20 -32 -20q-13 0 -43 20q-25 72 -76 98.5t-164 26.5h-172q-41 0 -52 -11.5t-11 -57.5v-461h243q94 0 129 35 q29 -29 29 -70q0 -40 -29 -72q-32 35 -129 35h-243v-422q0 -72 8 -101t35 -42q48 -18 182 -18q137 0 204 28.5t101 114.5q13 6 22.5 13.5t14.5 10.5t10 3q6 0 14 -15.5t13 -15.5h2l-13 -205h-923z" />
<glyph unicode="F" horiz-adv-x="937" d="M23 1317h884v-191q-13 -20 -30 -20h-5q-21 0 -38 20q-25 72 -77.5 98.5t-166.5 26.5h-174q-43 0 -53.5 -11t-10.5 -58v-488h244q65 0 109 21q26 -19 26 -53q0 -38 -26 -58q-36 19 -109 19h-244v-549q0 -58 8 -74h-186q6 16 6 74v1067q0 37 -12 65.5t-38 49.5t-47.5 32.5 t-59.5 28.5z" />
<glyph unicode="G" horiz-adv-x="1236" d="M86 633q0 287 131 479q79 109 213.5 171.5t321.5 62.5q103 0 205.5 -22t168.5 -56v-142q-10 -20 -51 -20q-42 0 -53 20q-86 152 -287 152q-100 0 -179 -35.5t-129 -93.5t-83.5 -139t-47 -166t-13.5 -180q0 -56 5 -110t19 -118t36.5 -119t59.5 -107.5t85 -90t117.5 -60 t152.5 -22.5q78 0 151 29q31 12 45.5 34t14.5 68v328q0 39 -4.5 59t-20.5 31h217q-20 -20 -20 -90v-445q-88 -32 -201 -55t-199 -23q-132 0 -239.5 25.5t-198.5 93.5q-98 76 -157.5 218.5t-59.5 322.5z" />
<glyph unicode="H" horiz-adv-x="1286" d="M33 0q87 28 122 61.5t35 102.5v12v965v16q0 23 -3.5 41.5t-14.5 33.5t-18 24t-26.5 19.5t-27.5 14.5t-34 14t-33 13h329v-596h609v508q0 74 -10 88h198q-14 -16 -14 -88v-1155q0 -53 8 -74h-188q6 16 6 74v575h-609l-2 -649h-327z" />
<glyph unicode="I" d="M129 1317h199q-15 -17 -15 -88v-1155q0 -50 9 -74h-187q6 16 6 74v1155q0 72 -12 88z" />
<glyph unicode="J" horiz-adv-x="483" d="M-61 -168q106 29 161 98q70 94 70 330v881v14q0 27 -5 48.5t-18.5 38t-23.5 26.5t-34.5 20.5t-34.5 14.5t-40 14h330v-1047q0 -81 -6 -139t-24 -116.5t-54.5 -101.5t-93.5 -71q-108 -52 -219 -59z" />
<glyph unicode="K" horiz-adv-x="1118" d="M20 1317h330v-627q102 115 263.5 303t232.5 275q23 28 26 49h166q-40 -20 -110 -86q-73 -71 -203.5 -215t-224.5 -256q169 -278 420 -570q61 -70 106 -106t94 -49v-43l-108 6q-88 2 -159 37t-142 125q-187 230 -357 512v8h-4v-606q0 -53 8 -74h-186q6 16 6 74v1067 q0 34 -9.5 61t-21 43t-37 31t-41 21.5t-49.5 19.5z" />
<glyph unicode="L" horiz-adv-x="972" d="M33 0q86 29 120 64.5t37 111.5v965q0 33 -9 59t-20 42t-36 31.5t-40.5 22.5t-51.5 21l329 -2v-1088q0 -71 8.5 -100.5t35.5 -42.5q48 -18 186 -18q60 0 98 4.5t75.5 18t63 42t43.5 74.5q27 31 37 31q17 2 29 -6t12 -25l-14 -205h-903z" />
<glyph unicode="M" horiz-adv-x="1542" d="M25 1317h352q47 -127 205 -506l204 -510h5l208 512q136 323 199 504h260q-38 -33 -50 -64.5t-15 -111.5v-1067q0 -53 8 -74h-187q7 19 7 74v1069h-7l-454 -1120h-47l-449 1120h-4v-860q0 -141 12 -236q2 -21 15 -47h-131q9 17 12 47q12 95 12 236v858q0 32 -10.5 57.5 t-36 47.5t-46.5 35.5t-62 35.5z" />
<glyph unicode="N" horiz-adv-x="1263" d="M20 1317h336l678 -1051l4 -4v756q0 142 -12 237q-6 46 -25 62h154q-20 -23 -25 -62q-12 -94 -12 -237v-1018h-114l-742 1145h-4v-862q0 -141 12 -236q2 -21 15 -47h-131q9 21 12 47q12 95 12 236v858v4q0 42 -11.5 71.5t-37 49t-48 29t-61.5 22.5z" />
<glyph unicode="O" horiz-adv-x="1339" d="M88 657q0 208 62 360.5t194 240.5t324 88q283 0 432 -185q147 -176 147 -504q0 -325 -147 -501q-145 -183 -432 -183q-286 0 -433 184t-147 500zM285 657q1 -91 10.5 -172.5t36.5 -165.5t68 -144.5t110 -99t158 -38.5q90 0 159 38.5t110.5 99t68 144.5t36.5 165.5 t11 172.5q-1 92 -11 173.5t-36.5 166t-68 144.5t-110.5 98.5t-159 38.5q-89 0 -158 -38.5t-110 -98.5t-68 -144.5t-36.5 -166t-10.5 -173.5z" />
<glyph unicode="P" horiz-adv-x="1017" d="M20 1317h486q452 0 452 -373q0 -85 -25 -153.5t-68 -112.5t-90.5 -71t-102.5 -42q-84 -24 -223 -24h-99v-467q0 -58 8 -74h-186q6 16 6 74v1067v8q0 30 -9.5 53.5t-20.5 38.5t-36.5 31t-40.5 23t-51 22zM350 680q0 -50 24 -62t105 -12q125 0 209 79t84 245q0 155 -77 238 t-212 83q-83 0 -108 -14.5t-25 -56.5v-500z" />
<glyph unicode="Q" horiz-adv-x="1339" d="M88 657q0 208 62 360.5t194 240.5t324 88q283 0 432 -185q147 -176 147 -504q0 -325 -147 -501q-117 -142 -293 -170v-9q0 -158 109.5 -262t336.5 -176q-114 1 -230.5 34t-210.5 88.5t-153 136.5t-59 171v6q-233 18 -362 181q-150 184 -150 501zM285 657 q1 -91 10.5 -172.5t36.5 -165.5t68 -144.5t110 -99t158 -38.5q90 0 159 38.5t110.5 99t68 144.5t36.5 165.5t11 172.5q-1 92 -11 173.5t-36.5 166t-68 144.5t-110.5 98.5t-159 38.5q-89 0 -158 -38.5t-110 -98.5t-68 -144.5t-36.5 -166t-10.5 -173.5z" />
<glyph unicode="R" horiz-adv-x="1091" d="M23 1317h507q111 0 192 -25t128 -70.5t68.5 -102.5t21.5 -128q0 -131 -78 -220t-205 -116v-4q54 -14 93.5 -39t63.5 -54t40.5 -72.5t24 -83t14.5 -97.5q7 -55 16.5 -92.5t28.5 -74.5t52.5 -58t82.5 -27v-53h-141q-80 0 -127.5 37t-67.5 125q-11 48 -28.5 159.5 t-22.5 133.5q-21 91 -74.5 128.5t-138.5 37.5h-121v-549q0 -53 8 -74h-186q6 16 6 74v1069q0 29 -10.5 54t-23 41t-38 33t-40.5 25.5t-45 22.5zM352 686h137q265 0 265 289q0 80 -24 136.5t-66 85.5t-87 41.5t-98 12.5q-84 0 -105.5 -17t-21.5 -79v-469z" />
<glyph unicode="S" horiz-adv-x="952" d="M96 205q6 31 42 31h7q44 0 60 -31q94 -168 252 -168q117 0 183.5 69.5t66.5 192.5q0 48 -18 92t-44 74.5t-61.5 57t-62.5 41t-56 26.5l-31 12q-74 29 -129.5 61.5t-103 77.5t-72.5 105t-25 133q0 120 57 205t146 123.5t199 38.5q89 0 170 -23t125 -61v-136 q-10 -20 -41 -20q-31 -4 -47 20q-64 152 -226 152q-107 0 -165 -67t-58 -175q0 -80 58.5 -141.5t154.5 -101.5l55 -23q82 -33 141 -68.5t107.5 -84t72.5 -114t24 -147.5q0 -76 -25 -142.5t-75 -121.5t-135 -87t-196 -32q-100 0 -194 28t-148 83z" />
<glyph unicode="T" horiz-adv-x="1071" d="M33 1126v191h1005v-191q-13 -20 -34 -20q-25 0 -39 20q-20 74 -71 99.5t-169 25.5h-102v-1159q0 -33 0.5 -45t5.5 -25.5t16 -21.5h-213q17 17 17 92v1159h-103q-117 0 -166 -25.5t-71 -99.5q-10 -20 -37 -20q-29 0 -39 20z" />
<glyph unicode="U" horiz-adv-x="1224" d="M119 1317h198q-14 -16 -14 -88v-707q0 -254 78 -370q80 -115 229 -115q152 0 232 115t80 370v707q0 71 -13 88h199q-14 -16 -14 -88v-744q0 -172 -47 -282q-98 -230 -437 -230q-333 0 -432 230q-44 93 -47 278v748q0 72 -12 88z" />
<glyph unicode="V" horiz-adv-x="1128" d="M2 1317h256q0 -15 6 -33q25 -86 99.5 -306t93.5 -280l161 -489l5 -4l180 547q150 452 172 555q2 4 2 10h137l-39 -41q-68 -161 -219 -621l-223 -655h-125l-197 608q-26 85 -66 201.5t-89.5 258t-63.5 181.5z" />
<glyph unicode="W" horiz-adv-x="1624" d="M-4 1317h250q-4 -19 4 -55q70 -298 272 -1035h4l267 1090h131l293 -1090h6l129 545q87 366 106 496q7 38 0 51h135q-24 -24 -45 -94q-11 -32 -32 -118.5t-51 -214.5t-52 -212l-174 -680h-131q-25 94 -85.5 328.5t-109.5 416.5t-96 345h-4l-272 -1090h-135l-148 606 q-26 104 -91 330.5t-81 290.5q-5 20 -24 38.5t-40.5 32.5t-25.5 19z" />
<glyph unicode="X" horiz-adv-x="1056" d="M6 1317h266q0 -17 15 -41l268 -461h4q129 205 266 465q15 26 15 37h143q-29 -23 -72 -84q-22 -28 -50.5 -70.5t-68 -105.5t-64 -102t-73 -118t-59.5 -98l405 -680q23 -39 43 -59h-208q-3 9 -9 18l-327 562h-4q-214 -364 -312 -564q-2 -3 -3 -9t-3 -7h-137q17 15 43 55 q32 46 100.5 157t151.5 248.5t119 194.5l-330 576q-14 24 -65 53.5t-54 32.5z" />
<glyph unicode="Y" horiz-adv-x="1005" d="M-16 1317h260q-5 -14 4 -39q114 -276 307 -660h4q69 148 162 360t127 298q9 25 6 41h143l-10 -8t-10 -10.5t-8.5 -11t-9.5 -14.5t-8.5 -14.5t-11 -18.5t-11.5 -19q-73 -127 -310 -641q-22 -51 -22 -113v-393q0 -58 8 -74h-186q6 16 6 74v387q0 55 -27 110 q-135 302 -323 680q-8 18 -48 41t-42 25z" />
<glyph unicode="Z" horiz-adv-x="1103" d="M18 25l779 1226h-312q-135 0 -194.5 -25t-83.5 -98q-11 -18 -35 -22q-2 0 -5 -1t-5 -1q-19 0 -35 24v189h889l10 -25l-778 -1226h352q166 0 241.5 26.5t108.5 112.5q24 31 45 31q22 0 35 -31l-10 -205h-993z" />
<glyph unicode="[" d="M137 -244v1561h277v-51q-44 -2 -68 -4t-45.5 -7t-30 -10.5t-15.5 -18.5t-8 -26.5t-1 -38.5v-1247q0 -30 3 -45t10 -28t28 -18t48 -8t79 -5v-54h-277z" />
<glyph unicode="\" horiz-adv-x="555" d="M35 1346h117l366 -1373h-117z" />
<glyph unicode="]" horiz-adv-x="458" d="M41 -190q64 2 93 5.5t48 15.5t22 29t3 54v1247q0 30 -3 45t-10 28t-28 18t-47 8t-78 6v51h276v-1561h-276v54z" />
<glyph unicode="^" horiz-adv-x="884" d="M43 434l342 838h123l332 -838h-123l-273 707l-278 -707h-123z" />
<glyph unicode="_" horiz-adv-x="870" d="M0 -141h870v-97h-870v97z" />
<glyph unicode="`" horiz-adv-x="546" d="M78 1294q0 28 23.5 55t43.5 27q24 0 49 -17t64 -61l207 -229l-27 -37l-262 160q-48 28 -73 51t-25 51z" />
<glyph unicode="a" horiz-adv-x="919" d="M86 233q0 165 162 216q23 7 82.5 26t90 29.5t73 26.5t67.5 30t37 27v76q0 98 -43 139t-104 41q-58 0 -106 -42t-75 -134q-7 -27 -18 -39.5t-37 -12.5q-31 0 -64.5 23t-33.5 61q0 77 104.5 142t247.5 65q76 0 131 -15.5t84.5 -38t46.5 -57t21 -63t4 -65.5v-439 q0 -144 59 -155q18 -6 35 -6q19 0 37 6l-178 -94q-42 0 -67.5 26t-45.5 80q-44 -29 -70.5 -45.5t-82.5 -38t-105 -22.5q-118 0 -185 73t-67 180zM262 258q0 -81 41.5 -132.5t118.5 -51.5q29 0 57 8.5t56 27.5t45.5 57t17.5 89v258q-34 -24 -201 -88q-73 -30 -104 -67.5 t-31 -100.5z" />
<glyph unicode="b" horiz-adv-x="1046" d="M20 1440l273 45l12 -10v-697q5 3 40.5 28t56 36.5t56.5 29.5t72.5 26.5t73.5 8.5q64 0 117 -19t87 -49t59.5 -72.5t39 -82t21.5 -85.5t10 -76t2 -60q0 -108 -23 -192t-62 -138t-95 -89t-118 -49.5t-134 -14.5q-152 0 -266 69l-70 -69l-31 14v1311q0 13 -9 28.5t-32 37 t-35 32t-45 37.5zM305 293q0 -73 12 -113q23 -67 72.5 -103t118.5 -36q252 0 252 410q0 90 -17 158t-41 104.5t-57 59.5t-58.5 29.5t-51.5 6.5q-151 0 -213 -127q-17 -41 -17 -102v-287z" />
<glyph unicode="c" horiz-adv-x="909" d="M100 434q0 95 22.5 176t70 149.5t132.5 108t199 39.5q134 0 218.5 -54t84.5 -122l-104 -90q-23 0 -34 10.5t-19 34.5q-56 158 -166 158q-97 0 -159 -94t-62 -285q0 -56 6.5 -107t24 -104.5t45 -92.5t74 -64t106.5 -25h24q95 0 164 26t121 107q-3 -93 -107.5 -159 t-236.5 -66q-197 0 -300.5 114.5t-103.5 339.5z" />
<glyph unicode="d" horiz-adv-x="1060" d="M98 424q0 227 121 358q119 125 322 125q117 0 192 -43v441q0 13 -9 28.5t-32 37t-35 32t-45 37.5l273 45l12 -10v-1319q3 -54 21.5 -73.5t50.5 -19.5q8 0 53 5l-191 -95h-2q-33 0 -64.5 37t-31.5 86v4q-141 -120 -270 -120q-170 0 -267.5 120.5t-97.5 323.5zM281 446 q0 -164 61.5 -267t177.5 -103q153 0 201 131q12 29 12 100v318q0 73 -14 104q-25 55 -71.5 85t-108.5 30q-128 0 -193 -108t-65 -290z" />
<glyph unicode="e" horiz-adv-x="942" d="M102 436q0 138 43 242.5t135 166.5t224 62q90 0 157.5 -28.5t103 -68.5t57 -94t27 -93.5t5.5 -79.5q0 -68 -70 -68h-499v-22q0 -76 11 -138.5t38 -120.5t79.5 -91t127.5 -33q74 0 112 7.5t82 35.5t109 92q-37 -110 -117.5 -167t-220.5 -58h-10q-201 0 -297.5 118.5 t-96.5 337.5zM285 543h329q34 0 47 15t13 44q0 26 -3 52.5t-14 62.5t-29.5 62.5t-53 45.5t-80.5 19q-52 0 -91.5 -24.5t-61 -59t-35 -79t-17.5 -77.5t-4 -61z" />
<glyph unicode="f" horiz-adv-x="595" d="M53 813v72h133v209q0 54 12 109t37 105.5t60.5 90t86.5 63t110 23.5q97 0 155 -41.5t58 -89.5q0 -38 -27 -62t-57 -24q-35 0 -48 30q-31 73 -58.5 98t-59.5 25q-16 0 -33.5 -5.5t-42 -21t-40 -53.5t-15.5 -94v-14q1 -13 8.5 -67t12.5 -113t5 -129v-39h213v-72h-213v-813 h-164v813h-133z" />
<glyph unicode="g" horiz-adv-x="937" d="M78 -195q0 72 68.5 135.5t150.5 63.5q-70 3 -121 43t-51 100q0 52 44.5 103t115.5 80v4q-33 9 -63.5 28.5t-59.5 50.5t-46.5 80t-17.5 109q0 42 11.5 83.5t39 82t67.5 71t103 49.5t140 19q61 0 124 -15.5t99 -39.5h31q57 0 101 15.5t91 58.5q-21 -62 -54.5 -100 t-102.5 -52q51 -55 51 -172q0 -63 -21 -113.5t-55.5 -83.5t-81 -55t-95 -31.5t-100.5 -9.5q-55 0 -88 4q-23 -6 -55.5 -40.5t-32.5 -69.5q0 -78 144 -78h139q152 0 244 -63t92 -199q0 -86 -39.5 -151t-104.5 -101.5t-138.5 -54t-151.5 -17.5q-105 0 -188 27t-136 88t-53 149 v2zM244 -186q0 -96 69 -152.5t181 -56.5q102 0 175.5 55.5t73.5 157.5q0 95 -69.5 133.5t-196.5 38.5q-121 0 -177 -38t-56 -138zM274 602q0 -109 52 -170t129 -61q78 0 128 60.5t50 170.5q0 122 -51.5 182t-122.5 60q-79 0 -132 -58.5t-53 -183.5z" />
<glyph unicode="h" horiz-adv-x="1011" d="M20 1440l271 45l12 -10v-705q72 49 109 72t94.5 44t111.5 21q122 0 190.5 -76.5t68.5 -212.5v-618h-164v584q0 116 -46 170.5t-137 54.5q-66 0 -122.5 -37t-85.5 -94q-17 -35 -17 -98v-580h-164v1305q0 15 -22.5 41.5t-42.5 45t-56 48.5z" />
<glyph unicode="i" horiz-adv-x="479" d="M53 862l273 45l12 -10v-897h-164v725q0 12 -9.5 27.5t-32 38t-35.5 33.5t-44 38zM150 1233q0 48 29.5 79t76.5 31t75.5 -31t28.5 -79q0 -50 -28.5 -80.5t-75.5 -30.5t-76.5 31t-29.5 80z" />
<glyph unicode="j" horiz-adv-x="471" d="M-72 -461q47 19 82.5 41.5t60.5 45.5t42 58t27 66t15.5 82t7.5 94.5t3 114.5v684q0 17 -22 44t-42 44t-59 49l274 45l13 -10v-907q0 -90 -12 -156.5t-42 -124t-85 -95t-136 -56.5q-78 -19 -127 -19zM141 1233q0 48 30 79t77 31t75.5 -31t28.5 -79q0 -50 -28.5 -80.5 t-75.5 -30.5t-77 31t-30 80z" />
<glyph unicode="k" horiz-adv-x="946" d="M20 1440l273 45l12 -10v-990h4q53 81 262 349q26 32 46.5 41.5t64.5 9.5h180q-4 -88 -30 -132t-66 -44q-50 0 -104 57q-94 -71 -209 -248q56 -81 145 -191t166 -190q73 -76 149 -96l-131 -43q-104 4 -188 90q-69 72 -150.5 177.5t-134.5 193.5h-4v-459h-164v1305 q0 13 -9 28.5t-32 37t-35 32t-45 37.5z" />
<glyph unicode="l" horiz-adv-x="446" d="M20 1440l273 45l12 -10v-1475h-164v1305q0 13 -9 28.5t-32 37t-35 32t-45 37.5z" />
<glyph unicode="m" horiz-adv-x="1574" d="M53 862l271 45l14 -137q47 36 80.5 59t100 50.5t124.5 27.5q88 0 142 -36t87 -103q8 5 52 36.5t73 49t81 35.5t102 18q124 0 192 -76t68 -213v-618h-164v584q0 113 -44 169t-124 56h-8q-71 0 -124.5 -36.5t-74.5 -92.5q-12 -37 -12 -100v-580h-164v584q0 39 -2.5 67.5 t-13 60t-28 51.5t-49 33t-75.5 13q-68 0 -123.5 -37.5t-81.5 -95.5q-14 -32 -14 -96v-580h-164v725q0 12 -9.5 27.5t-32 38t-35.5 33.5t-44 38z" />
<glyph unicode="n" horiz-adv-x="1044" d="M53 862l260 45l25 -137q9 6 38 26t38.5 26.5t35 22t38 21.5t36 16t41.5 14t41 7.5t47 3.5q120 0 188 -76.5t68 -212.5v-618h-164v584q0 116 -45.5 170.5t-136.5 54.5q-66 0 -122 -37t-85 -92q-18 -40 -18 -100v-580h-164v725q0 12 -9.5 27.5t-32 38t-35.5 33.5t-44 38z " />
<glyph unicode="o" horiz-adv-x="1040" d="M102 442q0 223 105 344t311 121q209 0 313.5 -120.5t104.5 -344.5q0 -223 -104.5 -342.5t-313.5 -119.5q-206 0 -311 119.5t-105 342.5zM285 442q0 -192 58.5 -296.5t174.5 -104.5q119 0 178.5 104.5t59.5 296.5t-59.5 297t-178.5 105q-116 0 -174.5 -105t-58.5 -297z " />
<glyph unicode="p" horiz-adv-x="1079" d="M51 862l262 45l23 -133q11 7 44 30t55.5 37t56.5 31.5t69.5 26t71.5 8.5q65 0 118.5 -18.5t88 -46.5t60.5 -69.5t39.5 -80t21.5 -85.5t10 -78.5t2 -65.5q0 -109 -23 -193.5t-62.5 -138t-96.5 -88.5t-119.5 -49t-136.5 -14q-56 0 -112.5 11.5t-86.5 26.5v-479h-162v1186 q0 12 -10.5 28t-32.5 37.5t-37 34.5t-43 37zM336 285q0 -71 12 -111q22 -63 71.5 -98t117.5 -35q254 0 254 410q0 89 -17 156.5t-41.5 104.5t-57 60t-58 30t-50.5 7q-95 0 -163 -63t-68 -166v-295z" />
<glyph unicode="q" horiz-adv-x="1038" d="M98 420q0 233 123 362q116 125 326 125q131 0 229 -55l74 55h47v-1368h-164v557q-145 -116 -272 -116q-163 0 -263 114.5t-100 325.5zM281 444q0 -106 24.5 -187t81 -131t139.5 -50q149 0 195 133q12 29 12 100v305q0 70 -12 105q-25 67 -72 96t-117 29 q-86 0 -143.5 -54.5t-82.5 -142t-25 -203.5z" />
<glyph unicode="r" horiz-adv-x="698" d="M53 862l264 45l21 -145q91 83 138.5 114t92.5 31q47 0 70 -27t23 -61l-78 -151q-4 0 -7 13.5t-11.5 32t-22.5 27.5q-41 25 -105 25q-37 0 -68.5 -46t-31.5 -140v-580h-164v725q0 12 -9.5 27.5t-32 38t-35.5 33.5t-44 38z" />
<glyph unicode="s" horiz-adv-x="808" d="M94 162q0 77 49 117q53 -128 113 -183t139 -55q70 0 116 40.5t46 108.5q0 44 -17 77.5t-48.5 55.5t-58.5 34t-64 24q-59 19 -102 39.5t-81.5 51t-58.5 73.5t-21 98q1 126 87.5 195t230.5 69q142 0 223 -61q45 -36 45 -98t-45 -113q-34 101 -100.5 155t-143.5 54 q-68 0 -112 -39t-45 -109q0 -28 13.5 -52.5t30 -39t47.5 -30.5t47 -22t48 -17q143 -45 209 -109.5t66 -179.5q0 -118 -87 -192t-239 -74q-83 0 -139 15t-101 56q-47 35 -47 111z" />
<glyph unicode="t" horiz-adv-x="614" d="M55 813v72h131q67 96 107 344h51v-344h225v-72h-225v-561q0 -95 32.5 -137.5t82.5 -42.5h102l-188 -92q-29 0 -56.5 6.5t-61 25.5t-54.5 62.5t-21 107.5v631h-125z" />
<glyph unicode="u" horiz-adv-x="1069" d="M49 862l273 45l12 -10v-614q0 -103 48.5 -155t127.5 -52q68 0 126 37t87 98q14 25 14 108v406q0 12 -9.5 27.5t-32 38t-35.5 33.5t-44 38l273 45l12 -10v-741v-6q0 -42 39 -62t88 -20l-180 -95q-32 0 -72.5 40t-40.5 91v2q-9 -5 -48.5 -29.5t-74 -43.5t-89 -36 t-105.5 -17t-93.5 13.5t-78.5 43t-56 84t-20 129.5v475q0 12 -9.5 27.5t-32 38t-35.5 33.5t-44 38z" />
<glyph unicode="v" horiz-adv-x="845" d="M-23 885h250l244 -723h4l215 663l-57 60h164l-305 -885h-125l-136 389q-86 255 -129 363q-22 56 -48.5 82.5t-76.5 50.5z" />
<glyph unicode="w" horiz-adv-x="1333" d="M-6 885h244l200 -725h4l203 725h131l217 -725h4l177 665l-82 60h184l-258 -885h-131q-15 50 -93.5 312.5t-121.5 396.5h-4l-207 -709h-131q-68 251 -224 756q-23 61 -47.5 86.5t-64.5 42.5z" />
<glyph unicode="x" horiz-adv-x="911" d="M25 885h229l213 -328h2q19 30 88.5 134.5t91.5 142.5l-74 51h271q-85 -53 -162 -146.5t-176 -240.5q101 -168 237 -371q21 -32 46 -55t42.5 -34t63.5 -38h-246l-233 362h-2q-118 -188 -154 -260q-6 -12 -6 -22q0 -23 19.5 -45t56.5 -35h-305q54 24 127 107.5t125 162.5 t98 158q-26 39 -71 109.5t-82 126.5t-70 102q-15 22 -32.5 40t-26.5 26t-35 27t-35 26z" />
<glyph unicode="y" horiz-adv-x="870" d="M-18 885h249l261 -721h4q188 537 221 670l-62 51h170q-38 -90 -159 -431.5t-209 -600.5q-104 -314 -254 -314q-52 0 -86.5 30t-34.5 66l76 101q21 0 53 -25q37 -39 63 -39q43 0 78 76q47 107 47 176q0 45 -14 88q-30 91 -118.5 327t-153.5 400q-30 86 -131 146z" />
<glyph unicode="z" horiz-adv-x="921" d="M66 25l546 798h-174h-18q-32 0 -61.5 -5.5t-51.5 -13t-44 -23t-36 -26.5t-32.5 -33t-27 -33.5t-26 -36.5t-24.5 -34q-25 45 -25 103q0 91 45 164h670l14 -25l-545 -797h226q63 1 102.5 4t71 11.5t49 20t32.5 33.5t25.5 47.5t25.5 65.5q7 20 11 31q25 -67 25 -149 q-3 -95 -47 -127h-719z" />
<glyph unicode="{" d="M20 508v57h9q143 0 143 170q0 31 -2 47l-18 179q0 7 -3.5 43t-3.5 57q0 256 211 256h45v-51q-82 -4 -112.5 -46.5t-30.5 -119.5q0 -24 4 -74l14 -147q11 -129 11 -138q0 -79 -36 -127.5t-134 -70.5v-13q98 -22 134 -70.5t36 -127.5q0 -4 -11 -139l-14 -146q-4 -50 -4 -74 q0 -77 30.5 -118.5t112.5 -44.5v-54h-45q-211 0 -211 256q0 20 3.5 57t3.5 42l18 180q4 46 4 61q0 78 -35 117t-119 39z" />
<glyph unicode="|" horiz-adv-x="399" d="M141 -471v2212h117v-2212h-117z" />
<glyph unicode="}" horiz-adv-x="464" d="M53 -190q82 3 113 44.5t31 118.5q0 24 -4 74l-15 146q-10 123 -10 139q0 79 36 127.5t134 70.5v13q-98 22 -134 70.5t-36 127.5q0 21 10 138l15 147q4 50 4 74q0 77 -31 119.5t-113 46.5v51h45q211 0 211 -256q0 -1 -6 -100l-18 -179q-4 -40 -4 -55q0 -80 35 -121 t118 -41v-57q-83 0 -118 -41t-35 -121q0 -15 4 -55l18 -180q6 -93 6 -99q0 -256 -211 -256h-45v54z" />
<glyph unicode="~" horiz-adv-x="915" d="M78 381q19 43 35.5 72.5t43.5 62t64 49.5t82 17q63 0 162 -43q104 -45 147 -45q41 0 67 22t66 86l70 -47q-39 -94 -89 -143.5t-120 -49.5q-49 0 -161 44.5t-160 44.5t-78 -28t-60 -91z" />
<glyph unicode="&#xa1;" horiz-adv-x="428" d="M102 836q2 52 30.5 85t78.5 33t80.5 -33t30.5 -85q0 -55 -30.5 -90t-80.5 -35t-79.5 35t-29.5 90zM113 -326q0 27 2 41l71 820h52l69 -820q2 -14 2 -41q0 -45 -21 -65.5t-77 -20.5t-77 20.5t-21 65.5z" />
<glyph unicode="&#xa2;" horiz-adv-x="909" d="M78 625q0 117 31 205.5t86 140.5t122.5 79t149.5 33v138h70v-138q87 -1 152.5 -20.5t98 -49t47.5 -57t15 -51.5q0 -39 -28 -62.5t-64 -23.5q-19 0 -30 9t-21 34q-21 49 -44 82t-47 48t-41 20.5t-38 7.5v-772h10q88 0 151.5 36.5t116.5 131.5l45 -29q-42 -113 -129 -171 t-194 -60v-174h-70v174q-189 0 -289 119.5t-100 349.5zM248 643q0 -342 219 -391v768q-18 -2 -31.5 -4.5t-38 -12t-42.5 -24t-39.5 -43t-35 -66.5t-23 -96.5t-9.5 -130.5z" />
<glyph unicode="&#xa3;" horiz-adv-x="901" d="M31 8l32 76q45 17 80 33t74.5 40.5t65.5 51.5t43.5 64t17.5 79q0 90 -59 201h-207v72h176q-31 62 -47.5 98.5t-35.5 102.5t-19 122q0 155 95.5 250.5t239.5 95.5q130 0 208.5 -63.5t78.5 -143.5q0 -36 -25 -57.5t-51 -21.5q-24 0 -34.5 7.5t-16.5 26.5q-24 88 -70 136.5 t-110 48.5q-75 0 -120.5 -55.5t-45.5 -143.5q0 -60 24.5 -136t49.5 -126t74 -141h264v-72h-238q3 -12 6 -25t4 -17t2.5 -9t1.5 -9t0.5 -9t2 -17t2.5 -25q0 -90 -45.5 -159.5t-147.5 -130.5v-9h391q29 0 54.5 18t40 36.5t38.5 56.5l47 -16l-86 -238h-747z" />
<glyph unicode="&#xa4;" horiz-adv-x="1054" d="M111 244q0 34 43 71l67 58q-80 115 -80 262q0 149 80 262l-67 57q-43 40 -43 72q0 25 28 53q24 21 45 21q34 0 64 -49l47 -74q82 86 233 86q148 0 234 -86l47 74q30 49 61 49q21 0 45 -21q31 -28 31 -55q0 -33 -43 -70l-69 -57q79 -108 79 -262q0 -152 -79 -262l69 -58 q43 -37 43 -69q0 -28 -31 -56q-23 -20 -45 -20q-31 0 -61 49l-47 76q-85 -88 -234 -88q-151 0 -233 88l-47 -76q-30 -49 -64 -49q-22 0 -45 20q-28 28 -28 54zM266 635q0 -140 74.5 -234t187.5 -94t186.5 93.5t73.5 234.5t-73.5 234.5t-186.5 93.5t-187.5 -94t-74.5 -234z " />
<glyph unicode="&#xa5;" horiz-adv-x="919" d="M35 1317h182q-3 -13 4 -27l287 -628l244 616q8 21 8 39h112q-16 -16 -38 -62q-30 -52 -252 -593h262v-72h-287q-10 -30 -10 -105v-57h297v-74h-297v-293q0 -40 6 -61h-170q6 14 6 61v293h-297v74h297v55q0 69 -18 107h-279v72h254l-285 606q-3 6 -8.5 18t-9.5 19.5 t-8 11.5z" />
<glyph unicode="&#xa6;" horiz-adv-x="399" d="M141 -332v664h117v-664h-117zM141 618v666h117v-666h-117z" />
<glyph unicode="&#xa7;" horiz-adv-x="917" d="M53 723q0 93 40.5 183.5t111.5 162.5q2 47 19 92.5t49.5 88.5t91.5 69.5t135 26.5q94 0 164.5 -41.5t70.5 -100.5q0 -37 -23.5 -56.5t-52.5 -19.5q-28 0 -47 31q-62 119 -153 119q-62 0 -99.5 -43t-37.5 -100q0 -21 1.5 -34.5t13.5 -40t34.5 -50.5t68 -59t109.5 -72 q106 -62 169.5 -119.5t99.5 -135t36 -175.5q0 -187 -121 -353v-8q0 -126 -84 -215.5t-223 -89.5q-108 0 -188 48t-80 108q0 38 23 62t59 24q21 0 47 -35q42 -81 86.5 -109t99.5 -28q56 0 96.5 45t40.5 114q0 38 -9.5 69t-36 68.5t-80.5 79t-136 86.5q-168 93 -231.5 189 t-63.5 219zM143 793q0 -184 260 -332q131 -75 203.5 -138.5t102.5 -134.5q57 47 57 168q0 102 -68.5 197.5t-177.5 161.5q-13 9 -56 35.5t-57 36.5t-47 33t-47 37t-35 36t-33 44t-20 46q-37 -28 -59.5 -80t-22.5 -110z" />
<glyph unicode="&#xa8;" horiz-adv-x="827" d="M127 1194q0 44 27.5 75t76.5 31t77 -31t28 -75t-28.5 -76.5t-76.5 -32.5t-76 32.5t-28 76.5zM489 1194q0 44 28 75t77 31q50 0 77 -31t27 -75q0 -45 -27 -77t-77 -32q-48 0 -76.5 32.5t-28.5 76.5z" />
<glyph unicode="&#xa9;" horiz-adv-x="1421" d="M76 657q0 140 50 268t135 220t202 146.5t246 54.5q172 0 318 -92t231 -251t85 -346t-85 -344.5t-231 -248.5t-318 -91t-318 91t-230.5 248.5t-84.5 344.5zM186 657q0 -165 69 -303.5t189.5 -218.5t264.5 -80t264 80t189 218t69 304t-69 305t-189 218.5t-264 79.5 q-108 0 -205 -47t-166.5 -127.5t-110.5 -192t-41 -236.5zM379 662q0 178 94.5 281.5t271.5 103.5q66 0 130 -16t102 -44v-186h-35q-7 42 -18.5 73.5t-33.5 60t-59.5 43.5t-89.5 15q-76 0 -127.5 -45t-72.5 -113t-21 -155q0 -66 11.5 -123.5t36.5 -109t72 -81.5t112 -30 q84 0 131.5 46.5t72.5 149.5h35l-18 -190q-75 -59 -240 -59q-182 0 -268 103t-86 276z" />
<glyph unicode="&#xaa;" horiz-adv-x="712" d="M90 676q0 49 28.5 82.5t108.5 62.5l201 76v72q0 52 -25 76t-59 24q-74 0 -106 -96q-17 -49 -50 -49q-25 0 -50 17.5t-25 41.5q0 55 71.5 97t169.5 42q52 0 89.5 -10t57.5 -24t31 -36t14 -39.5t3 -41.5v-293q0 -92 43 -105q31 -3 55 0l6 -32q-76 -35 -145 -35 q-58 0 -80 72q-4 -3 -23 -16t-31 -20.5t-32 -17.5t-40.5 -15t-41.5 -5q-82 0 -126 49t-44 123zM225 360v86h281v-86h-281zM227 688q0 -50 26.5 -83.5t76.5 -33.5q37 2 67.5 32t30.5 93v148q-30 -7 -109 -39q-48 -19 -70 -46t-22 -71z" />
<glyph unicode="&#xab;" horiz-adv-x="778" d="M57 455q0 13 11 28l260 344l34 -32l-137 -310q-8 -20 -8 -32q0 -13 8 -33l137 -311l-34 -31l-260 346q-11 15 -11 31zM381 455q0 17 8 28l260 344l35 -32l-137 -310q-8 -13 -8 -32q0 -20 8 -33l137 -311l-35 -31l-260 346q-8 11 -8 31z" />
<glyph unicode="&#xac;" horiz-adv-x="1028" d="M45 629v110h842v-546h-117v436h-725z" />
<glyph unicode="&#xad;" horiz-adv-x="710" d="M141 410v133h428v-133h-428z" />
<glyph unicode="&#xae;" horiz-adv-x="1421" d="M76 657q0 140 50 268t135 220t202 146.5t246 54.5q172 0 318 -92t231 -251t85 -346t-85 -344.5t-231 -248.5t-318 -91t-318 91t-230.5 248.5t-84.5 344.5zM186 657q0 -165 69 -303.5t189.5 -218.5t264.5 -80t264 80t189 218t69 304t-69 305t-189 218.5t-264 79.5 q-108 0 -205 -47t-166.5 -127.5t-110.5 -192t-41 -236.5zM422 1028h313q226 0 226 -180q0 -75 -45.5 -121t-122.5 -59v-4q30 -8 52.5 -22.5t36 -29.5t23 -39t14 -43t9.5 -49q14 -78 47 -119q18 -18 61 -32v-29h-75q-55 0 -85 20.5t-42 61.5q-13 39 -26.5 108.5t-21.5 86.5 q-22 57 -104 57h-57v-309q0 -13 4 -25h-119v623q0 26 -88 104zM625 688h65q70 0 110 35.5t40 110.5q0 141 -138 141q-51 0 -64 -8.5t-13 -32.5v-246z" />
<glyph unicode="&#xaf;" horiz-adv-x="784" d="M141 1137v112h502v-112h-502z" />
<glyph unicode="&#xb0;" horiz-adv-x="692" d="M104 1032v4q0 104 71.5 181t168.5 77q98 0 170 -78t72 -184q0 -108 -71.5 -186t-170.5 -78q-98 0 -169 77.5t-71 186.5zM203 1032q0 -74 41.5 -123t99.5 -49t100.5 49t42.5 123q0 71 -43 120.5t-102 49.5q-55 0 -97 -48.5t-42 -117.5v-4z" />
<glyph unicode="&#xb1;" horiz-adv-x="952" d="M55 0v109h842v-109h-842zM55 592v110h365v357h119v-357h358v-110h-358v-375h-119v375h-365z" />
<glyph unicode="&#xb2;" horiz-adv-x="712" d="M76 537q21 154 231 309q139 105 139 262q0 59 -25 96t-71 37q-89 0 -121 -154q-3 -23 -13 -34t-32 -11q-29 0 -53.5 20.5t-24.5 49.5q0 70 67.5 126t182.5 56q112 0 176 -53t64 -154q0 -86 -53.5 -147t-177.5 -135q-126 -76 -160 -176h282q40 0 60.5 15t38.5 52l39 -10 l-47 -170h-488z" />
<glyph unicode="&#xb3;" horiz-adv-x="702" d="M72 649q0 33 25.5 58.5t52.5 25.5q31 0 40 -39q41 -137 138 -137q55 0 89 41t34 133q0 40 -10 70.5t-24 47t-32 26.5t-31 13t-24 3q-31 0 -64.5 -7t-36.5 -7q-28 0 -28 45t28 45q3 0 36.5 -7.5t64.5 -7.5q50 0 73 43.5t23 102.5q0 21 -4 42.5t-13.5 46t-31 39.5t-51.5 15 q-44 0 -70.5 -36t-42.5 -107q-8 -35 -41 -35q-26 0 -48 20t-22 52q0 60 65 109.5t167 49.5q43 0 81.5 -9.5t74 -30t56.5 -58.5t21 -90q0 -43 -15 -76t-40.5 -52.5t-48 -30.5t-47.5 -17v-4q24 -1 52.5 -11.5t59.5 -32t51.5 -62t20.5 -93.5q0 -108 -75 -165.5t-212 -57.5 q-104 0 -172.5 42.5t-68.5 102.5z" />
<glyph unicode="&#xb4;" horiz-adv-x="495" d="M23 1069l206 229q39 44 64 61t49 17q20 0 44 -27t24 -55t-25 -50.5t-74 -51.5l-262 -160z" />
<glyph unicode="&#xb5;" horiz-adv-x="1030" d="M41 870l272 48l13 -11v-610q0 -108 48.5 -162.5t127.5 -54.5q68 0 126 38.5t87 102.5q14 28 14 115v391q0 18 -21 45t-41 46t-59 52l273 48l12 -11v-743q0 -69 20 -86.5t111 -24.5l-229 -53l-68 113q-11 -6 -47 -32t-68 -47t-81.5 -39t-94.5 -18q-110 0 -178 62h-4v-62 q0 -97 51 -206q43 -87 45 -123l-125 -115q-30 0 -46.5 18.5t-16.5 69.5v1106q0 18 -21 45t-41 46t-59 52z" />
<glyph unicode="&#xb6;" horiz-adv-x="884" d="M49 887q0 189 102 309.5t273 120.5h20v-842h-28q-159 0 -263 117t-104 295zM393 -141l129 16q27 5 37 20.5t10 55.5v1366h289v-49l-119 -17q-27 -5 -37 -18.5t-10 -52.5v-1370h-299v49z" />
<glyph unicode="&#xb7;" horiz-adv-x="477" d="M115 477q0 54 31.5 88.5t84.5 34.5t84 -34.5t31 -88.5q-2 -54 -32 -87.5t-83 -33.5t-84.5 34t-31.5 87z" />
<glyph unicode="&#xb8;" d="M61 -381q70 0 112 26t42 81q0 95 -109 102l-6 12l80 160h72l-55 -104q61 -8 107 -46t46 -120q0 -51 -24.5 -86.5t-62.5 -51.5t-68.5 -22t-57.5 -6q-26 0 -76 4v51z" />
<glyph unicode="&#xb9;" horiz-adv-x="501" d="M63 516v43l97 10q37 3 37 49v560q0 40 -27 45l-107 16v35l250 41l13 -8v-689q0 -26 9.5 -36.5t29.5 -12.5l92 -10v-43h-394z" />
<glyph unicode="&#xba;" horiz-adv-x="770" d="M98 813q0 148 72 228.5t213 80.5q143 0 215 -80t72 -229t-72 -229t-215 -80q-141 0 -213 80.5t-72 228.5zM244 360v86h280v-86h-280zM244 813q6 -256 139 -256q137 0 143 256q-6 256 -143 256q-133 0 -139 -256z" />
<glyph unicode="&#xbb;" horiz-adv-x="782" d="M94 109l139 311q9 22 9 33q0 9 -9 32l-139 310l35 32l262 -344q10 -13 10 -28q0 -18 -10 -31l-262 -346zM418 109l137 311q8 13 8 33q0 19 -8 32l-137 310l35 32l260 -344q8 -11 8 -28q0 -20 -8 -31l-260 -346z" />
<glyph unicode="&#xbc;" horiz-adv-x="1341" d="M33 516v43l96 10q18 2 26.5 12.5t8.5 36.5v564q0 39 -25 45l-106 16v35l248 41l12 -8v-693q0 -26 9.5 -36.5t29.5 -12.5l94 -10v-43h-393zM266 0l744 1323l67 -45l-749 -1329zM752 225q75 136 175.5 298t157.5 239h107v-506h111v-63h-111v-93q0 -26 9.5 -36.5t29.5 -12.5 l57 -10v-41h-340v41l78 10q37 3 37 49v93h-293zM846 256h217v377h-4q-136 -229 -213 -377z" />
<glyph unicode="&#xbd;" horiz-adv-x="1384" d="M35 516v43l96 10q18 2 26.5 12.5t8.5 36.5v562q0 39 -25 45l-106 16v35l248 41l12 -8v-691q0 -26 9.5 -36.5t29.5 -12.5l94 -10v-43h-393zM233 0l746 1323l65 -45l-749 -1329zM788 18q21 154 232 310q139 105 139 262q0 60 -24 96.5t-72 36.5q-91 0 -119 -152 q-5 -25 -15 -36t-32 -11q-28 0 -53 20.5t-25 49.5q0 71 67.5 126.5t182.5 55.5q112 0 176 -53t64 -154q0 -86 -53 -146t-179 -136q-128 -77 -157 -176h280q41 0 60 14.5t38 52.5l39 -10l-45 -168h-487z" />
<glyph unicode="&#xbe;" horiz-adv-x="1396" d="M37 649q0 33 24.5 58.5t53.5 25.5t41 -39q39 -137 137 -137q55 0 88 41t33 133q0 49 -14 84t-35.5 49.5t-38 20.5t-31.5 6q-32 0 -64.5 -7t-35.5 -7q-29 0 -29 45t29 45q3 0 35.5 -7.5t64.5 -7.5q50 0 73 43.5t23 102.5q0 21 -4 42.5t-13.5 46t-31 39.5t-51.5 15 q-44 0 -70.5 -36t-42.5 -107q-10 -35 -41 -35q-26 0 -48.5 20t-22.5 52q0 60 65.5 109.5t167.5 49.5q43 0 81.5 -9.5t74 -30t56.5 -58.5t21 -90q0 -43 -15 -76t-40.5 -52.5t-48.5 -30.5t-49 -17v-4q25 -1 54 -11.5t60 -32t51.5 -62t20.5 -93.5q0 -108 -74.5 -165.5 t-211.5 -57.5q-104 0 -173 42.5t-69 102.5zM344 0l746 1323l67 -45l-749 -1329zM805 225q74 135 175 297.5t159 239.5h106v-506h111v-63h-111v-93q0 -26 9.5 -36.5t29.5 -12.5l59 -10v-41h-342v41l78 10q37 3 37 49v93h-293zM899 256h217v377h-4q-136 -229 -213 -377z" />
<glyph unicode="&#xbf;" horiz-adv-x="677" d="M57 -154q1 25 4.5 47.5t12 43t15 36t21.5 33t21.5 26.5t25 24.5t23.5 20t24.5 19t20.5 15.5q131 104 131 219q0 69 -40 104t-78 35q-28 0 -52 -8l-14 39q58 53 168 53q76 0 131 -49t55 -135q0 -63 -30 -109.5t-111 -114.5q-65 -55 -110.5 -135t-45.5 -164 q0 -192 113 -192q53 0 87.5 49.5t53.5 155.5q8 45 56 45q31 0 62.5 -23.5t31.5 -70.5q0 -21 -8.5 -47t-31 -57t-55.5 -56.5t-86.5 -43t-119.5 -18.5q-122 0 -197 65.5t-78 192.5zM244 838q0 52 29.5 84t78.5 32t78 -32t29 -84q0 -53 -29 -87t-78 -34t-78.5 34t-29.5 87z" />
<glyph unicode="&#xc0;" horiz-adv-x="1036" d="M18 0q17 28 35 84q27 76 68.5 202t88 270t64.5 198l183 563h129l401 -1251q15 -46 29 -66h-189q0 9 -8 41l-149 467h-391q-15 -51 -69 -228.5t-71 -242.5q-4 -14 -4 -37h-117zM264 1595v4q0 28 19 59.5t39 35.5q2 0 6 1t6 1q29 0 100 -54l252 -188l-18 -41l-297 107 q-63 22 -83.5 35.5t-23.5 39.5zM301 580h346l-172 544h-4z" />
<glyph unicode="&#xc1;" horiz-adv-x="1036" d="M18 0q17 28 35 84q27 76 68.5 202t88 270t64.5 198l183 563h129l401 -1251q15 -46 29 -66h-189q0 9 -8 41l-149 467h-391q-15 -51 -69 -228.5t-71 -242.5q-4 -14 -4 -37h-117zM301 580h346l-172 544h-4zM348 1454l254 188q68 54 98 54q3 0 8 -1t7 -1q19 -5 37 -34.5 t18 -57.5v-7q-3 -26 -23.5 -39.5t-82.5 -35.5l-295 -107z" />
<glyph unicode="&#xc2;" horiz-adv-x="1036" d="M18 0q17 28 35 84q27 76 68.5 202t88 270t64.5 198l183 563h129l401 -1251q15 -46 29 -66h-189q0 9 -8 41l-149 467h-391q-15 -51 -69 -228.5t-71 -242.5q-4 -14 -4 -37h-117zM262 1405l201 217q45 45 65 45q19 0 64 -45l203 -217l-23 -41l-186 117q-43 26 -58 26 q-14 0 -57 -26l-186 -117zM301 580h346l-172 544h-4z" />
<glyph unicode="&#xc3;" horiz-adv-x="1036" d="M18 0q17 28 35 84q27 76 68.5 202t88 270t64.5 198l183 563h129l401 -1251q15 -46 29 -66h-189q0 9 -8 41l-149 467h-391q-15 -51 -69 -228.5t-71 -242.5q-4 -14 -4 -37h-117zM219 1401q15 32 24 50t28 47.5t37.5 46t46.5 29.5t59 13q38 0 136.5 -35.5t131.5 -35.5 q36 0 58.5 17.5t60.5 70.5l35 -23q-41 -92 -81 -136t-100 -44q-38 0 -138.5 36t-139.5 36q-41 0 -68.5 -22.5t-56.5 -74.5zM301 580h346l-172 544h-4z" />
<glyph unicode="&#xc4;" horiz-adv-x="1036" d="M18 0q17 28 35 84q27 76 68.5 202t88 270t64.5 198l183 563h129l401 -1251q15 -46 29 -66h-189q0 9 -8 41l-149 467h-391q-15 -51 -69 -228.5t-71 -242.5q-4 -14 -4 -37h-117zM246 1497q0 42 27.5 73.5t72.5 31.5q48 0 75.5 -31t27.5 -74t-27.5 -73.5t-75.5 -30.5 q-45 0 -72.5 31t-27.5 73zM301 580h346l-172 544h-4zM608 1497q0 42 28 73.5t73 31.5q48 0 75 -31t27 -74t-27 -73.5t-75 -30.5q-45 0 -73 31t-28 73z" />
<glyph unicode="&#xc5;" horiz-adv-x="1040" d="M18 0q17 28 35 84q141 398 228 670l170 516q-49 16 -79 60.5t-30 115.5q0 99 54 145.5t134 46.5t134.5 -46.5t54.5 -145.5q0 -73 -31 -117.5t-82 -60.5l385 -1202q13 -41 29 -66h-189q-6 31 -10 41l-145 467h-389q-8 -27 -68.5 -215t-77.5 -256q-6 -21 -6 -37h-117z M309 580h346l-172 544h-6q-16 -52 -76 -243.5t-92 -300.5zM442 1446q0 -129 88 -129q86 0 86 129q0 131 -86 131q-88 0 -88 -131z" />
<glyph unicode="&#xc7;" horiz-adv-x="1167" d="M86 649q0 306 160 500q78 96 203.5 146.5t285.5 50.5q219 0 371 -74v-146q-12 -20 -43 -20q-32 0 -55 20q-78 152 -289 152h-4q-93 0 -167.5 -35t-123 -94.5t-81 -140.5t-46.5 -169.5t-14 -185.5q0 -53 5 -106.5t18.5 -115.5t34 -117t54.5 -106.5t77.5 -88.5t106 -59.5 t136.5 -22.5q211 0 303 168q23 33 47 33q20 0 53 -33l-10 -144q-64 -37 -172.5 -62.5t-212.5 -25.5l-41 -77q27 -3 51.5 -12.5t49.5 -27t40 -50t15 -76.5q0 -51 -25 -86.5t-63 -51.5t-68.5 -22t-56.5 -6q-7 0 -76 6q-8 11 -8 20q0 6 4 15t4 14q68 0 109.5 26t41.5 81 q0 95 -106 102l-8 12l67 135q-270 13 -401 158q-79 86 -122.5 218.5t-43.5 297.5z" />
<glyph unicode="&#xc8;" horiz-adv-x="1013" d="M35 0q34 15 50.5 22.5t41.5 23.5t36.5 31t20.5 38.5t9 52.5v8v965q0 25 -7.5 46.5t-17 35.5t-28.5 29.5t-31.5 23t-37.5 21.5t-36 20h880v-191q-17 -20 -32 -20q-13 0 -43 20q-25 72 -76 98.5t-164 26.5h-172q-41 0 -52 -11.5t-11 -57.5v-461h243q94 0 129 35 q29 -29 29 -70q0 -40 -29 -72q-32 35 -129 35h-243v-422q0 -72 8 -101t35 -42q48 -18 182 -18q137 0 204 28.5t101 114.5q13 6 22.5 13.5t14.5 10.5t10 3q6 0 14 -15.5t13 -15.5h2l-13 -205h-923zM229 1595v4q0 28 19 59.5t39 35.5q2 0 6 1t6 1q29 0 100 -54l252 -188 l-18 -41l-297 107q-63 22 -83.5 35.5t-23.5 39.5z" />
<glyph unicode="&#xc9;" horiz-adv-x="1013" d="M35 0q34 15 50.5 22.5t41.5 23.5t36.5 31t20.5 38.5t9 52.5v8v965q0 25 -7.5 46.5t-17 35.5t-28.5 29.5t-31.5 23t-37.5 21.5t-36 20h880v-191q-17 -20 -32 -20q-13 0 -43 20q-25 72 -76 98.5t-164 26.5h-172q-41 0 -52 -11.5t-11 -57.5v-461h243q94 0 129 35 q29 -29 29 -70q0 -40 -29 -72q-32 35 -129 35h-243v-422q0 -72 8 -101t35 -42q48 -18 182 -18q137 0 204 28.5t101 114.5q13 6 22.5 13.5t14.5 10.5t10 3q6 0 14 -15.5t13 -15.5h2l-13 -205h-923zM379 1454l252 188q71 54 100 54q2 0 6 -1t6 -1q19 -5 37.5 -35t18.5 -57v-7 q-1 -26 -21.5 -39.5t-83.5 -35.5l-297 -107z" />
<glyph unicode="&#xca;" horiz-adv-x="1013" d="M35 0q34 15 50.5 22.5t41.5 23.5t36.5 31t20.5 38.5t9 52.5v8v965q0 25 -7.5 46.5t-17 35.5t-28.5 29.5t-31.5 23t-37.5 21.5t-36 20h880v-191q-17 -20 -32 -20q-13 0 -43 20q-25 72 -76 98.5t-164 26.5h-172q-41 0 -52 -11.5t-11 -57.5v-461h243q94 0 129 35 q29 -29 29 -70q0 -40 -29 -72q-32 35 -129 35h-243v-422q0 -72 8 -101t35 -42q48 -18 182 -18q137 0 204 28.5t101 114.5q13 6 22.5 13.5t14.5 10.5t10 3q6 0 14 -15.5t13 -15.5h2l-13 -205h-923zM236 1405l202 217q17 17 24 23.5t19 14t21 7.5q16 0 65 -45l201 -217 l-23 -41l-186 117q-43 26 -57 26q-15 0 -58 -26l-186 -117z" />
<glyph unicode="&#xcb;" horiz-adv-x="1013" d="M35 0q34 15 50.5 22.5t41.5 23.5t36.5 31t20.5 38.5t9 52.5v8v965q0 25 -7.5 46.5t-17 35.5t-28.5 29.5t-31.5 23t-37.5 21.5t-36 20h880v-191q-17 -20 -32 -20q-13 0 -43 20q-25 72 -76 98.5t-164 26.5h-172q-41 0 -52 -11.5t-11 -57.5v-461h243q94 0 129 35 q29 -29 29 -70q0 -40 -29 -72q-32 35 -129 35h-243v-422q0 -72 8 -101t35 -42q48 -18 182 -18q137 0 204 28.5t101 114.5q13 6 22.5 13.5t14.5 10.5t10 3q6 0 14 -15.5t13 -15.5h2l-13 -205h-923zM219 1497q0 42 28 73.5t75 31.5t73.5 -31t26.5 -74t-26.5 -73.5t-73.5 -30.5 t-75 31t-28 73zM582 1497q0 42 27.5 73.5t72.5 31.5q48 0 75 -31t27 -74t-27 -73.5t-75 -30.5q-45 0 -72.5 31t-27.5 73z" />
<glyph unicode="&#xcc;" d="M-45 1595v7q0 28 18 57.5t37 34.5q2 0 7 1t8 1q30 0 98 -54l254 -188l-21 -41l-295 107q-63 21 -83 34.5t-23 40.5zM129 1317h199q-15 -17 -15 -88v-1155q0 -50 9 -74h-187q6 16 6 74v1155q0 72 -12 88z" />
<glyph unicode="&#xcd;" d="M78 1454l252 188q71 54 100 54q3 0 7.5 -1t6.5 -1q18 -5 37 -35t19 -57v-7q-3 -26 -23.5 -39.5t-83.5 -35.5l-295 -107zM129 1317h199q-15 -17 -15 -88v-1155q0 -50 9 -74h-187q6 16 6 74v1155q0 72 -12 88z" />
<glyph unicode="&#xce;" d="M-39 1405l203 217l6 6q39 39 57 39q21 0 66 -45l201 -217l-23 -41l-186 117q-43 26 -58 26q-14 0 -57 -26l-186 -117zM129 1317h199q-15 -17 -15 -88v-1155q0 -50 9 -74h-187q6 16 6 74v1155q0 72 -12 88z" />
<glyph unicode="&#xcf;" d="M-53 1497q0 43 26.5 74t73.5 31t73.5 -31t26.5 -74t-26.5 -73.5t-73.5 -30.5t-73.5 30.5t-26.5 73.5zM129 1317h199q-15 -17 -15 -88v-1155q0 -50 9 -74h-187q6 16 6 74v1155q0 72 -12 88zM307 1497q0 42 28 73.5t75 31.5t73.5 -31t26.5 -74t-26.5 -73.5t-73.5 -30.5 t-75 31t-28 73z" />
<glyph unicode="&#xd0;" horiz-adv-x="1372" d="M37 649v72h192v420v4q0 72 -42 109.5t-115 62.5h579q160 -2 276 -41t199 -125q158 -168 158 -471q0 -346 -173.5 -513t-494.5 -167h-544q83 42 106 60q50 41 51 116v473h-192zM401 238q0 -59 6 -91t28 -51.5t54 -24.5t93 -5q76 0 139.5 12t122 38.5t102.5 73t77 112.5 t50 160t17 212q0 127 -24 226t-78.5 179t-151 124.5t-232.5 47.5q-61 0 -93.5 -2t-57.5 -7t-34.5 -19t-13.5 -31t-4 -49v-422h240v-72h-240v-411z" />
<glyph unicode="&#xd1;" horiz-adv-x="1263" d="M20 1317h336l678 -1051l4 -4v756q0 142 -12 237q-6 46 -25 62h154q-20 -23 -25 -62q-12 -94 -12 -237v-1018h-114l-742 1145h-4v-862q0 -141 12 -236q2 -21 15 -47h-131q9 21 12 47q12 95 12 236v858v4q0 42 -11.5 71.5t-37 49t-48 29t-61.5 22.5zM342 1401 q15 33 23.5 49.5t28 47.5t37.5 46.5t46 29t60 13.5q39 0 137.5 -35.5t132.5 -35.5q36 0 58.5 17.5t60.5 70.5l35 -23q-43 -92 -83 -136t-100 -44q-38 0 -138 36t-140 36q-41 0 -67.5 -22t-57.5 -75z" />
<glyph unicode="&#xd2;" horiz-adv-x="1339" d="M88 657q0 208 62 360.5t194 240.5t324 88q283 0 432 -185q147 -176 147 -504q0 -325 -147 -501q-145 -183 -432 -183q-286 0 -433 184t-147 500zM285 657q1 -91 10.5 -172.5t36.5 -165.5t68 -144.5t110 -99t158 -38.5q90 0 159 38.5t110.5 99t68 144.5t36.5 165.5 t11 172.5q-1 92 -11 173.5t-36.5 166t-68 144.5t-110.5 98.5t-159 38.5q-89 0 -158 -38.5t-110 -98.5t-68 -144.5t-36.5 -166t-10.5 -173.5zM377 1595v7q0 28 18 57.5t37 34.5q2 0 6 1t6 1q30 0 101 -54l252 -188l-19 -41l-297 107q-62 22 -82.5 35.5t-21.5 39.5z" />
<glyph unicode="&#xd3;" horiz-adv-x="1339" d="M88 657q0 208 62 360.5t194 240.5t324 88q283 0 432 -185q147 -176 147 -504q0 -325 -147 -501q-145 -183 -432 -183q-286 0 -433 184t-147 500zM285 657q1 -91 10.5 -172.5t36.5 -165.5t68 -144.5t110 -99t158 -38.5q90 0 159 38.5t110.5 99t68 144.5t36.5 165.5 t11 172.5q-1 92 -11 173.5t-36.5 166t-68 144.5t-110.5 98.5t-159 38.5q-89 0 -158 -38.5t-110 -98.5t-68 -144.5t-36.5 -166t-10.5 -173.5zM496 1454l252 188q71 54 100 54q3 0 7.5 -1t6.5 -1q18 -5 37 -35t19 -57v-7q-3 -26 -23.5 -39.5t-83.5 -35.5l-295 -107z" />
<glyph unicode="&#xd4;" horiz-adv-x="1339" d="M88 657q0 208 62 360.5t194 240.5t324 88q283 0 432 -185q147 -176 147 -504q0 -325 -147 -501q-145 -183 -432 -183q-286 0 -433 184t-147 500zM285 657q1 -91 10.5 -172.5t36.5 -165.5t68 -144.5t110 -99t158 -38.5q90 0 159 38.5t110.5 99t68 144.5t36.5 165.5 t11 172.5q-1 92 -11 173.5t-36.5 166t-68 144.5t-110.5 98.5t-159 38.5q-89 0 -158 -38.5t-110 -98.5t-68 -144.5t-36.5 -166t-10.5 -173.5zM401 1405l203 217q17 17 24 23.5t19 14t21 7.5q4 0 8.5 -1t8 -2.5t8.5 -5t7.5 -5.5t8 -7t8 -7t8.5 -8.5t8 -8.5l201 -217l-23 -41 l-186 117q-43 26 -57 26q-15 0 -58 -26l-186 -117z" />
<glyph unicode="&#xd5;" horiz-adv-x="1339" d="M88 657q0 208 62 360.5t194 240.5t324 88q283 0 432 -185q147 -176 147 -504q0 -325 -147 -501q-145 -183 -432 -183q-286 0 -433 184t-147 500zM285 657q1 -91 10.5 -172.5t36.5 -165.5t68 -144.5t110 -99t158 -38.5q90 0 159 38.5t110.5 99t68 144.5t36.5 165.5 t11 172.5q-1 92 -11 173.5t-36.5 166t-68 144.5t-110.5 98.5t-159 38.5q-89 0 -158 -38.5t-110 -98.5t-68 -144.5t-36.5 -166t-10.5 -173.5zM358 1401q15 33 23.5 49.5t28 47.5t37.5 46.5t46 29t60 13.5q39 0 136.5 -35.5t133.5 -35.5t58.5 17.5t60.5 70.5l35 -23 q-43 -93 -82.5 -136.5t-99.5 -43.5q-37 0 -138 36t-141 36q-41 0 -67.5 -22t-57.5 -75z" />
<glyph unicode="&#xd6;" horiz-adv-x="1339" d="M88 657q0 208 62 360.5t194 240.5t324 88q283 0 432 -185q147 -176 147 -504q0 -325 -147 -501q-145 -183 -432 -183q-286 0 -433 184t-147 500zM285 657q1 -91 10.5 -172.5t36.5 -165.5t68 -144.5t110 -99t158 -38.5q90 0 159 38.5t110.5 99t68 144.5t36.5 165.5 t11 172.5q-1 92 -11 173.5t-36.5 166t-68 144.5t-110.5 98.5t-159 38.5q-89 0 -158 -38.5t-110 -98.5t-68 -144.5t-36.5 -166t-10.5 -173.5zM387 1497q0 42 27.5 73.5t72.5 31.5q47 0 74 -31t27 -74t-27 -73.5t-74 -30.5q-45 0 -72.5 31t-27.5 73zM748 1497q0 43 27.5 74 t74.5 31t73.5 -31t26.5 -74t-26.5 -73.5t-73.5 -30.5t-74.5 31t-27.5 73z" />
<glyph unicode="&#xd7;" horiz-adv-x="917" d="M72 125l311 350l-311 346l71 88l316 -350l313 350l72 -88l-312 -346l312 -350l-72 -84l-313 350l-316 -350z" />
<glyph unicode="&#xd8;" horiz-adv-x="1341" d="M88 657q0 208 62 360.5t194 240.5t324 88q184 0 311 -80l80 141l59 -41l-82 -141q32 -23 64 -64q147 -176 147 -504q0 -325 -147 -501q-145 -183 -432 -183q-182 0 -312 80l-88 -153l-55 47l84 145q-24 19 -59 64q-150 184 -150 501zM285 657q0 -269 88 -436l547 944 q-92 113 -252 113q-89 0 -158 -38.5t-110 -98.5t-68 -144.5t-36.5 -166t-10.5 -173.5zM416 156q92 -119 252 -119q90 0 159 38.5t110.5 99t68 144.5t36.5 165.5t11 172.5q-4 288 -90 441z" />
<glyph unicode="&#xd9;" horiz-adv-x="1224" d="M119 1317h198q-14 -16 -14 -88v-707q0 -254 78 -370q80 -115 229 -115q152 0 232 115t80 370v707q0 71 -13 88h199q-14 -16 -14 -88v-744q0 -172 -47 -282q-98 -230 -437 -230q-333 0 -432 230q-44 93 -47 278v748q0 72 -12 88zM297 1595v4q0 28 18 59.5t37 35.5q2 0 7 1 t8 1q29 0 100 -54l252 -188l-19 -41l-297 107q-62 22 -82.5 35.5t-23.5 39.5z" />
<glyph unicode="&#xda;" horiz-adv-x="1224" d="M119 1317h198q-14 -16 -14 -88v-707q0 -254 78 -370q80 -115 229 -115q152 0 232 115t80 370v707q0 71 -13 88h199q-14 -16 -14 -88v-744q0 -172 -47 -282q-98 -230 -437 -230q-333 0 -432 230q-44 93 -47 278v748q0 72 -12 88zM457 1454l254 188q68 54 98 54q3 0 7.5 -1 t6.5 -1q19 -5 37.5 -35t18.5 -57v-7q-3 -27 -23.5 -40.5t-83.5 -34.5l-295 -107z" />
<glyph unicode="&#xdb;" horiz-adv-x="1224" d="M119 1317h198q-14 -16 -14 -88v-707q0 -254 78 -370q80 -115 229 -115q152 0 232 115t80 370v707q0 71 -13 88h199q-14 -16 -14 -88v-744q0 -172 -47 -282q-98 -230 -437 -230q-333 0 -432 230q-44 93 -47 278v748q0 72 -12 88zM346 1405l203 217l6 6q39 39 57 39 q21 0 66 -45l201 -217l-23 -41l-186 117q-43 26 -58 26q-14 0 -57 -26l-186 -117z" />
<glyph unicode="&#xdc;" horiz-adv-x="1224" d="M119 1317h198q-14 -16 -14 -88v-707q0 -254 78 -370q80 -115 229 -115q152 0 232 115t80 370v707q0 71 -13 88h199q-14 -16 -14 -88v-744q0 -172 -47 -282q-98 -230 -437 -230q-333 0 -432 230q-44 93 -47 278v748q0 72 -12 88zM330 1497q0 43 27.5 74t74.5 31t73.5 -31 t26.5 -74t-26.5 -73.5t-73.5 -30.5t-74.5 31t-27.5 73zM692 1497q0 42 28 73.5t75 31.5t73.5 -31t26.5 -74t-26.5 -73.5t-73.5 -30.5t-75 31t-28 73z" />
<glyph unicode="&#xdd;" horiz-adv-x="1005" d="M-16 1317h260q-2 -4 -2 -12q0 -12 6 -27q114 -276 307 -660h4q69 148 162 360t127 298q6 18 6 33v8h143l-10 -8t-10 -10.5t-8.5 -11t-9.5 -14.5t-8.5 -14.5t-11 -18.5t-11.5 -19q-73 -127 -310 -641q-22 -51 -22 -113v-393q0 -58 8 -74h-186q6 16 6 74v387q0 55 -27 110 q-135 302 -323 680q-8 18 -48 41t-42 25zM420 1454l252 188q40 31 61 42.5t39 11.5q2 0 6 -1t6 -1q19 -5 37.5 -35t18.5 -57v-7q-1 -26 -22 -39.5t-85 -35.5l-295 -107z" />
<glyph unicode="&#xde;" horiz-adv-x="944" d="M133 1317h191q-11 -18 -11 -84v-180h142q204 0 305 -70q61 -41 96 -111t35 -159q0 -82 -25.5 -146.5t-67.5 -105t-100 -67.5t-119 -37.5t-130 -10.5h-136v-272q0 -50 9 -74h-187q6 16 6 74v1159q0 72 -8 84zM313 489q0 -43 19.5 -60t83.5 -17q142 0 215.5 67.5 t73.5 222.5q0 135 -70 209t-195 74q-77 0 -102 -12.5t-25 -57.5v-426z" />
<glyph unicode="&#xdf;" horiz-adv-x="1044" d="M141 2v989q0 139 21.5 223.5t77.5 147.5q99 123 292 123q85 0 149.5 -28t98.5 -67t54.5 -89.5t26 -85.5t5.5 -66q0 -45 -23.5 -142t-45.5 -124q-52 0 -86 -6t-53 -14.5t-28 -28t-10.5 -36t-1.5 -50.5v-7q0 -60 38.5 -106.5t138.5 -116.5q176 -124 176 -287 q0 -115 -76 -183t-203 -68q-98 0 -154.5 24t-56.5 70l99 102q14 -72 53.5 -103.5t81.5 -31.5t78 33.5t36 99.5q0 77 -38.5 130.5t-120.5 109.5q-93 67 -143 127.5t-50 142.5q0 93 52.5 160t150.5 96q15 26 27 100t12 113q0 101 -57 184.5t-136 83.5q-42 0 -75 -13.5t-56 -36 t-39.5 -57.5t-26 -71.5t-15.5 -84t-7.5 -88.5t-1.5 -93v-975h-164z" />
<glyph unicode="&#xe0;" horiz-adv-x="919" d="M86 233q0 165 162 216q23 7 82.5 26t90 29.5t73 26.5t67.5 30t37 27v76q0 98 -43 139t-104 41q-58 0 -106 -42t-75 -134q-7 -27 -18 -39.5t-37 -12.5q-31 0 -64.5 23t-33.5 61q0 77 104.5 142t247.5 65q76 0 131 -15.5t84.5 -38t46.5 -57t21 -63t4 -65.5v-439 q0 -144 59 -155q18 -6 35 -6q19 0 37 6l-178 -94q-42 0 -67.5 26t-45.5 80q-44 -29 -70.5 -45.5t-82.5 -38t-105 -22.5q-118 0 -185 73t-67 180zM262 258q0 -81 41.5 -132.5t118.5 -51.5q29 0 57 8.5t56 27.5t45.5 57t17.5 89v258q-34 -24 -201 -88q-73 -30 -104 -67.5 t-31 -100.5zM293 1292q0 28 23.5 55t43.5 27q24 0 49 -17t64 -61l207 -229l-27 -37l-262 160q-48 28 -73 51t-25 51z" />
<glyph unicode="&#xe1;" horiz-adv-x="919" d="M86 233q0 165 162 216q23 7 82.5 26t90 29.5t73 26.5t67.5 30t37 27v76q0 98 -43 139t-104 41q-58 0 -106 -42t-75 -134q-7 -27 -18 -39.5t-37 -12.5q-31 0 -64.5 23t-33.5 61q0 77 104.5 142t247.5 65q76 0 131 -15.5t84.5 -38t46.5 -57t21 -63t4 -65.5v-439 q0 -144 59 -155q18 -6 35 -6q19 0 37 6l-178 -94q-42 0 -67.5 26t-45.5 80q-44 -29 -70.5 -45.5t-82.5 -38t-105 -22.5q-118 0 -185 73t-67 180zM262 258q0 -81 41.5 -132.5t118.5 -51.5q29 0 57 8.5t56 27.5t45.5 57t17.5 89v258q-34 -24 -201 -88q-73 -30 -104 -67.5 t-31 -100.5zM293 1067l207 229q40 44 64.5 61t47.5 17q20 0 44 -27t24 -55t-25 -51t-73 -51l-263 -160z" />
<glyph unicode="&#xe2;" horiz-adv-x="919" d="M86 233q0 165 162 216q23 7 82.5 26t90 29.5t73 26.5t67.5 30t37 27v76q0 98 -43 139t-104 41q-58 0 -106 -42t-75 -134q-7 -27 -18 -39.5t-37 -12.5q-31 0 -64.5 23t-33.5 61q0 77 104.5 142t247.5 65q76 0 131 -15.5t84.5 -38t46.5 -57t21 -63t4 -65.5v-439 q0 -144 59 -155q18 -6 35 -6q19 0 37 6l-178 -94q-42 0 -67.5 26t-45.5 80q-44 -29 -70.5 -45.5t-82.5 -38t-105 -22.5q-118 0 -185 73t-67 180zM219 1069l205 254q15 17 22.5 25t18.5 15t22 7q24 0 62 -47l205 -254l-35 -39l-178 146q-31 28 -54 28q-20 0 -55 -28 l-178 -146zM262 258q0 -81 41.5 -132.5t118.5 -51.5q29 0 57 8.5t56 27.5t45.5 57t17.5 89v258q-34 -24 -201 -88q-73 -30 -104 -67.5t-31 -100.5z" />
<glyph unicode="&#xe3;" horiz-adv-x="919" d="M86 233q0 165 162 216q23 7 82.5 26t90 29.5t73 26.5t67.5 30t37 27v76q0 98 -43 139t-104 41q-58 0 -106 -42t-75 -134q-7 -27 -18 -39.5t-37 -12.5q-31 0 -64.5 23t-33.5 61q0 77 104.5 142t247.5 65q76 0 131 -15.5t84.5 -38t46.5 -57t21 -63t4 -65.5v-439 q0 -144 59 -155q18 -6 35 -6q19 0 37 6l-178 -94q-42 0 -67.5 26t-45.5 80q-44 -29 -70.5 -45.5t-82.5 -38t-105 -22.5q-118 0 -185 73t-67 180zM176 1055q46 94 77 129q51 57 120 57q41 0 136 -36t134 -36q36 0 58.5 17.5t60.5 70.5l33 -20q-40 -88 -74 -133 q-52 -49 -107 -49q-38 0 -139 36.5t-139 36.5q-41 0 -67.5 -22t-59.5 -76zM262 258q0 -81 41.5 -132.5t118.5 -51.5q29 0 57 8.5t56 27.5t45.5 57t17.5 89v258q-34 -24 -201 -88q-73 -30 -104 -67.5t-31 -100.5z" />
<glyph unicode="&#xe4;" horiz-adv-x="919" d="M86 233q0 165 162 216q23 7 82.5 26t90 29.5t73 26.5t67.5 30t37 27v76q0 98 -43 139t-104 41q-58 0 -106 -42t-75 -134q-7 -27 -18 -39.5t-37 -12.5q-31 0 -64.5 23t-33.5 61q0 77 104.5 142t247.5 65q76 0 131 -15.5t84.5 -38t46.5 -57t21 -63t4 -65.5v-439 q0 -144 59 -155q18 -6 35 -6q19 0 37 6l-178 -94q-42 0 -67.5 26t-45.5 80q-44 -29 -70.5 -45.5t-82.5 -38t-105 -22.5q-118 0 -185 73t-67 180zM201 1139q0 44 27.5 75t76.5 31t77 -31t28 -75t-28.5 -76.5t-76.5 -32.5t-76 32.5t-28 76.5zM262 258q0 -81 41.5 -132.5 t118.5 -51.5q29 0 57 8.5t56 27.5t45.5 57t17.5 89v258q-34 -24 -201 -88q-73 -30 -104 -67.5t-31 -100.5zM563 1139q0 44 28 75t77 31q50 0 77 -31t27 -75q0 -45 -27 -77t-77 -32q-48 0 -76.5 32.5t-28.5 76.5z" />
<glyph unicode="&#xe5;" horiz-adv-x="919" d="M86 233q0 165 162 216q23 7 82.5 26t90 29.5t73 26.5t67.5 30t37 27v76q0 98 -43 139t-104 41q-58 0 -106 -42t-75 -134q-7 -27 -18 -39.5t-37 -12.5q-31 0 -64.5 23t-33.5 61q0 77 104.5 142t247.5 65q76 0 131 -15.5t84.5 -38t46.5 -57t21 -63t4 -65.5v-439 q0 -144 59 -155q18 -6 35 -6q19 0 37 6l-178 -94q-42 0 -67.5 26t-45.5 80q-44 -29 -70.5 -45.5t-82.5 -38t-105 -22.5q-118 0 -185 73t-67 180zM262 258q0 -81 41.5 -132.5t118.5 -51.5q29 0 57 8.5t56 27.5t45.5 57t17.5 89v258q-34 -24 -201 -88q-73 -30 -104 -67.5 t-31 -100.5zM299 1223q0 99 54 145.5t134 46.5q78 0 132.5 -46.5t54.5 -145.5t-54.5 -146t-132.5 -47q-79 0 -133.5 47t-54.5 146zM399 1223q0 -129 88 -129q86 0 86 129t-86 129q-88 0 -88 -129z" />
<glyph unicode="&#xe7;" horiz-adv-x="903" d="M100 434q0 95 22.5 176t70 149.5t132.5 108t199 39.5q134 0 218.5 -54t84.5 -122l-104 -90q-24 0 -35.5 10.5t-19.5 34.5q-56 158 -164 158q-97 0 -159 -94t-62 -285q0 -56 6.5 -107t24 -104.5t45 -92.5t74 -64t106.5 -25q103 2 179 31t122 102q-2 -58 -53 -109 t-117.5 -79.5t-128.5 -34.5l-45 -80q28 -3 52.5 -12t49 -26t39 -47.5t14.5 -72.5q0 -39 -17.5 -69.5t-42 -46.5t-56 -26t-54.5 -13t-43 -3q-26 0 -76 4v48q68 0 110 25t42 77q0 89 -106 96l-9 12l70 134q-180 9 -274.5 123t-94.5 329z" />
<glyph unicode="&#xe8;" horiz-adv-x="942" d="M102 436q0 138 43 242.5t135 166.5t224 62q90 0 157.5 -28.5t103 -68.5t57 -94t27 -93.5t5.5 -79.5q0 -68 -70 -68h-499v-22q0 -76 11 -138.5t38 -120.5t79.5 -91t127.5 -33q74 0 112 7.5t82 35.5t109 92q-37 -110 -117.5 -167t-220.5 -58h-10q-201 0 -297.5 118.5 t-96.5 337.5zM285 543h329q34 0 47 15t13 44q0 26 -3 52.5t-14 62.5t-29.5 62.5t-53 45.5t-80.5 19q-52 0 -91.5 -24.5t-61 -59t-35 -79t-17.5 -77.5t-4 -61zM285 1292q0 28 23.5 55t43.5 27q24 0 49 -17t64 -61l207 -229l-27 -37l-262 160q-48 28 -73 51t-25 51z" />
<glyph unicode="&#xe9;" horiz-adv-x="942" d="M102 436q0 138 43 242.5t135 166.5t224 62q90 0 157.5 -28.5t103 -68.5t57 -94t27 -93.5t5.5 -79.5q0 -68 -70 -68h-499v-22q0 -76 11 -138.5t38 -120.5t79.5 -91t127.5 -33q74 0 112 7.5t82 35.5t109 92q-37 -110 -117.5 -167t-220.5 -58h-10q-201 0 -297.5 118.5 t-96.5 337.5zM285 543h329q34 0 47 15t13 44q0 26 -3 52.5t-14 62.5t-29.5 62.5t-53 45.5t-80.5 19q-52 0 -91.5 -24.5t-61 -59t-35 -79t-17.5 -77.5t-4 -61zM285 1067l207 229q40 44 64.5 61t47.5 17q20 0 44 -27t24 -55t-25 -50.5t-74 -51.5l-262 -160z" />
<glyph unicode="&#xea;" horiz-adv-x="942" d="M102 436q0 138 43 242.5t135 166.5t224 62q90 0 157.5 -28.5t103 -68.5t57 -94t27 -93.5t5.5 -79.5q0 -68 -70 -68h-499v-22q0 -76 11 -138.5t38 -120.5t79.5 -91t127.5 -33q74 0 112 7.5t82 35.5t109 92q-37 -110 -117.5 -167t-220.5 -58h-10q-201 0 -297.5 118.5 t-96.5 337.5zM211 1069l205 254q15 17 22.5 25t18.5 15t22 7q24 0 62 -47l204 -254l-34 -39l-179 146q-31 28 -53 28q-20 0 -55 -28l-178 -146zM285 543h329q34 0 47 15t13 44q0 26 -3 52.5t-14 62.5t-29.5 62.5t-53 45.5t-80.5 19q-52 0 -91.5 -24.5t-61 -59t-35 -79 t-17.5 -77.5t-4 -61z" />
<glyph unicode="&#xeb;" horiz-adv-x="942" d="M102 436q0 138 43 242.5t135 166.5t224 62q90 0 157.5 -28.5t103 -68.5t57 -94t27 -93.5t5.5 -79.5q0 -68 -70 -68h-499v-22q0 -76 11 -138.5t38 -120.5t79.5 -91t127.5 -33q74 0 112 7.5t82 35.5t109 92q-37 -110 -117.5 -167t-220.5 -58h-10q-201 0 -297.5 118.5 t-96.5 337.5zM193 1139q0 44 27.5 75t76.5 31t76.5 -31t27.5 -75t-28 -76.5t-76 -32.5t-76 32.5t-28 76.5zM285 543h329q34 0 47 15t13 44q0 26 -3 52.5t-14 62.5t-29.5 62.5t-53 45.5t-80.5 19q-52 0 -91.5 -24.5t-61 -59t-35 -79t-17.5 -77.5t-4 -61zM555 1139 q0 44 27.5 75t76.5 31q50 0 77.5 -31t27.5 -75q0 -45 -27.5 -77t-77.5 -32q-48 0 -76 32.5t-28 76.5z" />
<glyph unicode="&#xec;" horiz-adv-x="475" d="M-2 1292q0 28 24 55t44 27q23 0 47.5 -17t64.5 -61l207 -229l-27 -37l-262 160q-48 28 -73 51t-25 51zM49 862l273 45l12 -10v-897h-164v725q0 12 -9.5 27.5t-32 38t-35.5 33.5t-44 38z" />
<glyph unicode="&#xed;" horiz-adv-x="475" d="M-2 1067l207 229q40 44 64.5 61t47.5 17q20 0 44 -27t24 -55t-25 -51t-73 -51l-262 -160zM49 862l273 45l12 -10v-897h-164v725q0 12 -9.5 27.5t-32 38t-35.5 33.5t-44 38z" />
<glyph unicode="&#xee;" horiz-adv-x="475" d="M-76 1069l205 254q40 47 64 47q23 0 61 -47l205 -254l-35 -39l-178 146q-31 28 -53 28q-21 0 -56 -28l-178 -146zM49 862l273 45l12 -10v-897h-164v725q0 12 -9.5 27.5t-32 38t-35.5 33.5t-44 38z" />
<glyph unicode="&#xef;" horiz-adv-x="475" d="M-94 1139q0 44 27.5 75t76.5 31t77 -31t28 -75t-28.5 -76.5t-76.5 -32.5t-76 32.5t-28 76.5zM49 862l273 45l12 -10v-897h-164v725q0 12 -9.5 27.5t-32 38t-35.5 33.5t-44 38zM268 1139q0 44 28 75t77 31q50 0 77 -31t27 -75q0 -45 -27 -77t-77 -32q-48 0 -76.5 32.5 t-28.5 76.5z" />
<glyph unicode="&#xf0;" horiz-adv-x="1044" d="M100 442q0 221 107 343t317 122q38 0 90 -10l4 6q-75 98 -147 170l-225 -106l-45 65l213 98q-75 73 -195 164v17l76 30q124 -76 225 -161l228 110l45 -65l-209 -99q103 -86 166 -168q99 -122 141.5 -235t42.5 -262q0 -481 -420 -481q-203 0 -308.5 121t-105.5 341z M283 442q0 -193 54 -297t177 -104q129 0 184.5 104t55.5 297q0 214 -50.5 308t-189.5 94q-123 0 -177 -104.5t-54 -297.5z" />
<glyph unicode="&#xf1;" horiz-adv-x="1044" d="M53 862l260 45l25 -137q9 6 38 26t38.5 26.5t35 22t38 21.5t36 16t41.5 14t41 7.5t47 3.5q120 0 188 -76.5t68 -212.5v-618h-164v584q0 116 -45.5 170.5t-136.5 54.5q-66 0 -122 -37t-85 -92q-18 -40 -18 -100v-580h-164v725q0 12 -9.5 27.5t-32 38t-35.5 33.5t-44 38z M172 1055q15 33 23.5 49.5t28 47.5t37.5 46.5t46 29t60 13.5q43 0 137.5 -36t132.5 -36q36 0 58.5 17.5t60.5 70.5l35 -20q-41 -90 -76 -133q-49 -49 -105 -49q-39 0 -139.5 36.5t-138.5 36.5q-41 0 -68.5 -22.5t-58.5 -75.5z" />
<glyph unicode="&#xf2;" horiz-adv-x="1040" d="M102 442q0 223 105 344t311 121q209 0 313.5 -120.5t104.5 -344.5q0 -223 -104.5 -342.5t-313.5 -119.5q-206 0 -311 119.5t-105 342.5zM285 442q0 -192 58.5 -296.5t174.5 -104.5q119 0 178.5 104.5t59.5 296.5t-59.5 297t-178.5 105q-116 0 -174.5 -105t-58.5 -297z M326 1292q0 28 23.5 55t43.5 27q24 0 49 -17t64 -61l207 -229l-27 -37l-262 160q-48 28 -73 51t-25 51z" />
<glyph unicode="&#xf3;" horiz-adv-x="1040" d="M102 442q0 223 105 344t311 121q209 0 313.5 -120.5t104.5 -344.5q0 -223 -104.5 -342.5t-313.5 -119.5q-206 0 -311 119.5t-105 342.5zM285 442q0 -192 58.5 -296.5t174.5 -104.5q119 0 178.5 104.5t59.5 296.5t-59.5 297t-178.5 105q-116 0 -174.5 -105t-58.5 -297z M326 1067l206 229q39 44 64 61t49 17q20 0 44 -27t24 -55t-25 -50.5t-74 -51.5l-262 -160z" />
<glyph unicode="&#xf4;" horiz-adv-x="1040" d="M102 442q0 223 105 344t311 121q209 0 313.5 -120.5t104.5 -344.5q0 -223 -104.5 -342.5t-313.5 -119.5q-206 0 -311 119.5t-105 342.5zM252 1069l205 254q15 17 22.5 25t18.5 15t22 7q24 0 62 -47l204 -254l-34 -39l-179 146q-31 28 -53 28q-20 0 -55 -28l-178 -146z M285 442q0 -192 58.5 -296.5t174.5 -104.5q119 0 178.5 104.5t59.5 296.5t-59.5 297t-178.5 105q-116 0 -174.5 -105t-58.5 -297z" />
<glyph unicode="&#xf5;" horiz-adv-x="1040" d="M102 442q0 223 105 344t311 121q209 0 313.5 -120.5t104.5 -344.5q0 -223 -104.5 -342.5t-313.5 -119.5q-206 0 -311 119.5t-105 342.5zM209 1055q46 94 77 129q51 57 120 57q42 0 137 -36t133 -36q36 0 58.5 17.5t60.5 70.5l32 -20q-42 -92 -73 -133q-52 -49 -107 -49 q-38 0 -139 36.5t-139 36.5q-41 0 -67.5 -22t-59.5 -76zM285 442q0 -192 58.5 -296.5t174.5 -104.5q119 0 178.5 104.5t59.5 296.5t-59.5 297t-178.5 105q-116 0 -174.5 -105t-58.5 -297z" />
<glyph unicode="&#xf6;" horiz-adv-x="1040" d="M102 442q0 223 105 344t311 121q209 0 313.5 -120.5t104.5 -344.5q0 -223 -104.5 -342.5t-313.5 -119.5q-206 0 -311 119.5t-105 342.5zM233 1139q0 44 28 75t77 31t76.5 -31t27.5 -75t-28 -76.5t-76 -32.5t-76.5 32.5t-28.5 76.5zM285 442q0 -192 58.5 -296.5 t174.5 -104.5q119 0 178.5 104.5t59.5 296.5t-59.5 297t-178.5 105q-116 0 -174.5 -105t-58.5 -297zM596 1139q0 44 27.5 75t76.5 31q50 0 77.5 -31t27.5 -75q0 -45 -27.5 -77t-77.5 -32q-48 0 -76 32.5t-28 76.5z" />
<glyph unicode="&#xf7;" horiz-adv-x="940" d="M49 399v105h842v-105h-842zM367 154q0 43 30 73.5t74 30.5q41 0 69.5 -30.5t28.5 -73.5q0 -44 -28.5 -75.5t-69.5 -31.5q-44 0 -74 31t-30 76zM367 752q0 42 30 73t74 31q41 0 69.5 -31t28.5 -73q0 -46 -28.5 -77.5t-69.5 -31.5q-44 0 -74 31.5t-30 77.5z" />
<glyph unicode="&#xf8;" horiz-adv-x="1042" d="M102 442q0 223 105 344t311 121q120 0 207 -41l59 95l56 -37l-56 -93q152 -113 152 -389q0 -223 -104.5 -342.5t-313.5 -119.5q-131 0 -217 47l-63 -101l-54 43l60 97q-142 115 -142 376zM274 442q0 -163 43 -256l357 592q-57 66 -156 66q-120 0 -182 -103t-62 -290v-9z M354 119q63 -78 164 -78q246 0 246 401q0 182 -49 277z" />
<glyph unicode="&#xf9;" horiz-adv-x="1069" d="M49 862l273 45l12 -10v-614q0 -103 48.5 -155t127.5 -52q68 0 126 37t87 98q14 25 14 108v406q0 12 -9.5 27.5t-32 38t-35.5 33.5t-44 38l273 45l12 -10v-741v-6q0 -42 39 -62t88 -20l-180 -95q-32 0 -72.5 40t-40.5 91v2q-9 -5 -48.5 -29.5t-74 -43.5t-89 -36 t-105.5 -17t-93.5 13.5t-78.5 43t-56 84t-20 129.5v475q0 12 -9.5 27.5t-32 38t-35.5 33.5t-44 38zM344 1292q0 28 25 55t45 27q22 0 46.5 -17t63.5 -61l209 -229l-28 -37l-263 160q-48 28 -73 51t-25 51z" />
<glyph unicode="&#xfa;" horiz-adv-x="1069" d="M49 862l273 45l12 -10v-614q0 -103 48.5 -155t127.5 -52q68 0 126 37t87 98q14 25 14 108v406q0 12 -9.5 27.5t-32 38t-35.5 33.5t-44 38l273 45l12 -10v-741v-6q0 -42 39 -62t88 -20l-180 -95q-32 0 -72.5 40t-40.5 91v2q-9 -5 -48.5 -29.5t-74 -43.5t-89 -36 t-105.5 -17t-93.5 13.5t-78.5 43t-56 84t-20 129.5v475q0 12 -9.5 27.5t-32 38t-35.5 33.5t-44 38zM344 1067l209 229q70 78 111 78q20 0 44.5 -27t24.5 -55t-25 -51t-73 -51l-262 -160z" />
<glyph unicode="&#xfb;" horiz-adv-x="1069" d="M49 862l273 45l12 -10v-614q0 -103 48.5 -155t127.5 -52q68 0 126 37t87 98q14 25 14 108v406q0 12 -9.5 27.5t-32 38t-35.5 33.5t-44 38l273 45l12 -10v-741v-6q0 -42 39 -62t88 -20l-180 -95q-32 0 -72.5 40t-40.5 91v2q-9 -5 -48.5 -29.5t-74 -43.5t-89 -36 t-105.5 -17t-93.5 13.5t-78.5 43t-56 84t-20 129.5v475q0 12 -9.5 27.5t-32 38t-35.5 33.5t-44 38zM270 1069l205 254q2 2 7 7.5t7 7.5t6.5 7t6.5 6.5t6 5t6.5 5t6 3.5t6.5 3t6.5 1.5t7.5 0.5q23 0 61 -47l205 -254l-37 -39l-176 146q-35 28 -53 28q-23 0 -58 -28l-176 -146 z" />
<glyph unicode="&#xfc;" horiz-adv-x="1069" d="M49 862l273 45l12 -10v-614q0 -103 48.5 -155t127.5 -52q68 0 126 37t87 98q14 25 14 108v406q0 12 -9.5 27.5t-32 38t-35.5 33.5t-44 38l273 45l12 -10v-741v-6q0 -42 39 -62t88 -20l-180 -95q-32 0 -72.5 40t-40.5 91v2q-9 -5 -48.5 -29.5t-74 -43.5t-89 -36 t-105.5 -17t-93.5 13.5t-78.5 43t-56 84t-20 129.5v475q0 12 -9.5 27.5t-32 38t-35.5 33.5t-44 38zM254 1139q0 44 27.5 75t74.5 31q50 0 78.5 -31t28.5 -75t-28.5 -76.5t-78.5 -32.5q-47 0 -74.5 32.5t-27.5 76.5zM614 1139q0 44 28.5 75t78.5 31t76 -30.5t26 -75.5 t-26.5 -77t-75.5 -32q-50 0 -78.5 32.5t-28.5 76.5z" />
<glyph unicode="&#xfd;" horiz-adv-x="870" d="M-18 885h249l261 -721h4q188 537 221 670l-62 51h170q-38 -90 -159 -431.5t-209 -600.5q-104 -314 -254 -314q-52 0 -86.5 30t-34.5 66l76 101q21 0 53 -25q37 -39 63 -39q43 0 78 76q47 107 47 176q0 45 -14 88q-30 91 -118.5 327t-153.5 400q-30 86 -131 146zM209 1067 l209 229q39 44 63.5 61t46.5 17q20 0 45 -27t25 -55t-25 -51t-73 -51l-262 -160z" />
<glyph unicode="&#xfe;" horiz-adv-x="1046" d="M18 1442l275 43l12 -10v-699q6 4 54.5 36.5t74 47t74 31t92.5 16.5q65 0 118.5 -18.5t88 -46.5t60.5 -69.5t39.5 -80t21.5 -85.5t10 -78.5t2 -65.5q0 -109 -23.5 -193.5t-62.5 -138t-96 -88.5t-119 -49t-135 -14q-56 0 -112.5 11.5t-86.5 26.5v-479h-164v1766 q0 19 -22 45.5t-41 43t-60 48.5zM305 285q0 -71 12 -111q20 -63 69.5 -98t117.5 -35q256 0 256 410q0 89 -17 156.5t-41.5 104.5t-57.5 60t-58.5 30t-50.5 7q-96 0 -163 -62.5t-67 -166.5v-295z" />
<glyph unicode="&#xff;" horiz-adv-x="870" d="M-18 885h249l261 -721h4q188 537 221 670l-62 51h170q-38 -90 -159 -431.5t-209 -600.5q-104 -314 -254 -314q-52 0 -86.5 30t-34.5 66l76 101q21 0 53 -25q37 -39 63 -39q43 0 78 76q47 107 47 176q0 45 -14 88q-30 91 -118.5 327t-153.5 400q-30 86 -131 146zM172 1139 q0 44 27.5 75t74.5 31q50 0 78.5 -31t28.5 -75t-28.5 -76.5t-78.5 -32.5q-47 0 -74.5 32.5t-27.5 76.5zM532 1139q0 44 28.5 75t78.5 31t76 -30.5t26 -75.5t-26.5 -77t-75.5 -32q-50 0 -78.5 32.5t-28.5 76.5z" />
<glyph unicode="&#x178;" horiz-adv-x="1005" d="M-16 1317h260q-5 -14 4 -39q114 -276 307 -660h4q69 148 162 360t127 298q9 25 6 41h143l-10 -8t-10 -10.5t-8.5 -11t-9.5 -14.5t-8.5 -14.5t-11 -18.5t-11.5 -19q-73 -127 -310 -641q-22 -51 -22 -113v-393q0 -58 8 -74h-186q6 16 6 74v387q0 55 -27 110 q-135 302 -323 680q-8 18 -48 41t-42 25zM240 1497q0 42 27.5 73.5t72.5 31.5q48 0 75 -31t27 -74t-27 -73.5t-75 -30.5q-45 0 -72.5 31t-27.5 73zM602 1497q0 42 27.5 73.5t72.5 31.5q47 0 74 -31t27 -74t-27 -73.5t-74 -30.5q-45 0 -72.5 31t-27.5 73z" />
<glyph unicode="&#x2c6;" horiz-adv-x="706" d="M86 1069l205 254q15 17 22.5 25t18.5 15t22 7q24 0 62 -47l205 -254l-35 -39l-178 146q-32 28 -54 28q-20 0 -55 -28l-178 -146z" />
<glyph unicode="&#x2dc;" horiz-adv-x="829" d="M104 1096q15 33 23.5 49.5t28 47.5t37.5 46.5t46 29t60 13.5q43 0 137.5 -36t132.5 -36q36 0 58.5 17.5t60.5 70.5l35 -20q-41 -90 -76 -133q-49 -49 -104 -49q-39 0 -140 36.5t-139 36.5q-41 0 -68.5 -22.5t-58.5 -75.5z" />
<glyph unicode="&#x2000;" horiz-adv-x="870" />
<glyph unicode="&#x2001;" horiz-adv-x="1741" />
<glyph unicode="&#x2002;" horiz-adv-x="870" />
<glyph unicode="&#x2003;" horiz-adv-x="1741" />
<glyph unicode="&#x2004;" horiz-adv-x="580" />
<glyph unicode="&#x2005;" horiz-adv-x="435" />
<glyph unicode="&#x2006;" horiz-adv-x="290" />
<glyph unicode="&#x2007;" horiz-adv-x="290" />
<glyph unicode="&#x2008;" horiz-adv-x="217" />
<glyph unicode="&#x2009;" horiz-adv-x="348" />
<glyph unicode="&#x200a;" horiz-adv-x="96" />
<glyph unicode="&#x2010;" horiz-adv-x="710" d="M141 410v133h428v-133h-428z" />
<glyph unicode="&#x2011;" horiz-adv-x="710" d="M141 410v133h428v-133h-428z" />
<glyph unicode="&#x2012;" horiz-adv-x="710" d="M141 410v133h428v-133h-428z" />
<glyph unicode="&#x2013;" horiz-adv-x="1024" d="M141 410v133h742v-133h-742z" />
<glyph unicode="&#x2014;" horiz-adv-x="2048" d="M141 410v133h1766v-133h-1766z" />
<glyph unicode="&#x2018;" horiz-adv-x="421" d="M102 1073q0 48 18.5 97t53.5 97.5t63 80.5t70 75l29 -30q-94 -121 -94 -213q0 -35 28.5 -90t28.5 -89q0 -39 -23.5 -65.5t-60.5 -26.5h-2q-45 0 -78 46t-33 118z" />
<glyph unicode="&#x2019;" horiz-adv-x="413" d="M78 928q94 124 94 215q0 35 -28.5 89t-28.5 89q0 39 23.5 65.5t60.5 26.5q45 0 78.5 -45.5t33.5 -118.5q0 -48 -18.5 -98t-52.5 -97.5t-64 -82t-70 -74.5z" />
<glyph unicode="&#x201a;" horiz-adv-x="413" d="M74 -207q94 124 94 211q0 36 -28.5 90.5t-28.5 89.5q0 39 23 64.5t61 25.5h2q45 0 77.5 -44.5t32.5 -118.5q0 -47 -18.5 -96.5t-52.5 -96.5t-63.5 -81t-70.5 -75z" />
<glyph unicode="&#x201c;" horiz-adv-x="735" d="M102 1073q0 48 18.5 97t53.5 97.5t63 80.5t70 75l29 -30q-94 -121 -94 -213q0 -35 28.5 -90t28.5 -89q0 -39 -23.5 -65.5t-60.5 -26.5h-2q-45 0 -78 46t-33 118zM416 1073q0 48 18.5 97t53.5 97.5t63 80.5t70 75l28 -30q-94 -121 -94 -213q0 -35 28.5 -90t28.5 -89 q0 -39 -23.5 -65.5t-60.5 -26.5h-2q-45 0 -77.5 46t-32.5 118z" />
<glyph unicode="&#x201d;" horiz-adv-x="727" d="M78 928q94 124 94 215q0 35 -28.5 89t-28.5 89q0 39 23.5 65.5t60.5 26.5q45 0 78.5 -45.5t33.5 -118.5q0 -48 -18.5 -98t-52.5 -97.5t-64 -82t-70 -74.5zM391 928q94 124 94 215q0 35 -28.5 89t-28.5 89q0 39 23.5 65.5t60.5 26.5q45 0 79 -45.5t34 -118.5 q0 -48 -18.5 -98t-52.5 -97.5t-64 -82t-70 -74.5z" />
<glyph unicode="&#x201e;" horiz-adv-x="727" d="M74 -207q94 124 94 211q0 36 -28.5 90.5t-28.5 89.5q0 39 23 64.5t61 25.5h2q45 0 77.5 -44.5t32.5 -118.5q0 -47 -18.5 -96.5t-52.5 -96.5t-63.5 -81t-70.5 -75zM387 -207q94 124 94 211q0 36 -28.5 90.5t-28.5 89.5q0 39 23 64.5t61 25.5h2q45 0 78 -45t33 -118 q0 -47 -18.5 -96.5t-52.5 -96.5t-63.5 -81t-70.5 -75z" />
<glyph unicode="&#x2022;" horiz-adv-x="866" d="M102 670q0 140 95 238t235 98q134 0 230 -98.5t96 -237.5q0 -141 -96 -240.5t-230 -99.5q-140 0 -235 97.5t-95 242.5z" />
<glyph unicode="&#x2026;" horiz-adv-x="1357" d="M109 96q0 54 30 88.5t80 34.5t79.5 -34.5t29.5 -88.5q-2 -54 -30.5 -86.5t-78.5 -32.5t-80 33t-30 86zM561 96q0 53 30.5 88t80.5 35t79 -34.5t29 -88.5q-2 -54 -30 -86.5t-78 -32.5q-51 0 -81 33t-30 86zM1014 96q0 54 30 88.5t80 34.5t79.5 -34.5t29.5 -88.5 q-2 -54 -30.5 -86.5t-78.5 -32.5t-80 33t-30 86z" />
<glyph unicode="&#x202f;" horiz-adv-x="348" />
<glyph unicode="&#x2039;" horiz-adv-x="456" d="M57 455q0 13 11 28l260 344l34 -32l-137 -310q-8 -20 -8 -32q0 -13 8 -33l137 -311l-34 -31l-260 346q-11 15 -11 31z" />
<glyph unicode="&#x203a;" horiz-adv-x="460" d="M94 109l139 311q9 22 9 33q0 9 -9 32l-139 310l35 32l262 -344q10 -13 10 -28q0 -18 -10 -31l-262 -346z" />
<glyph unicode="&#x205f;" horiz-adv-x="435" />
<glyph unicode="&#x20ac;" horiz-adv-x="1110" d="M29 504l55 84h88q-2 27 -2 76q0 33 2 53h-143l55 84h96q35 256 171.5 417.5t316.5 161.5q103 0 215 -73q27 -17 35 -17q18 0 30 21t21 69h37q-5 -130 -14.5 -179t-41.5 -75q-1 1 -6 11q-43 83 -115 133.5t-147 50.5q-88 0 -158 -66t-110 -186q-32 -106 -47 -272l450 4 l-55 -84h-400q-2 -41 -2 -68q0 -26 2 -61h318l-53 -84h-258q22 -216 117 -341.5t237 -125.5q91 0 177 54t138 145q6 -15 6 -35t-6 -35q-60 -90 -159 -141.5t-211 -51.5q-183 0 -314.5 143.5t-171.5 387.5h-153z" />
<glyph unicode="&#x2122;" horiz-adv-x="1890" d="M61 1124v193h664v-193h-37q-15 91 -45.5 116.5t-122.5 25.5h-59v-621q0 -46 18.5 -58t102.5 -16v-45h-377v45q84 4 102.5 16t18.5 58v621h-56q-96 0 -127.5 -26t-44.5 -116h-37zM784 526v45q51 3 74 14.5t27 43.5q4 39 4 141v428q0 45 -14 57t-82 19v43h264 q20 -50 127 -305l116 -271h5l116 273q95 221 127 303h258v-43q-68 -7 -82 -19t-14 -57v-553q0 -46 14.5 -58t81.5 -16v-45h-325v45q67 4 81.5 16t14.5 58v567h-6l-291 -665h-37l-289 665h-8v-442q0 -63 8 -141q3 -32 27.5 -42.5t93.5 -15.5v-45h-291z" />
<glyph unicode="&#x25fc;" horiz-adv-x="880" d="M0 0v881h881v-881h-881z" />
</font>
</defs>
</svg>
