<?xml version="1.0" standalone="no"?>
<!DOCTYPE svg PUBLIC "-//W3C//DTD SVG 1.1//EN" "http://www.w3.org/Graphics/SVG/1.1/DTD/svg11.dtd" >
<svg xmlns="http://www.w3.org/2000/svg" xmlns:xlink="http://www.w3.org/1999/xlink" version="1.1">
<metadata></metadata>
<defs>
<font id="venturissans_adf_lightbold" horiz-adv-x="1062" >
<font-face units-per-em="2048" ascent="1536" descent="-512" />
<missing-glyph horiz-adv-x="614" />
<glyph unicode="AE" horiz-adv-x="1513" d="M0 0q20 15 47 68l483 1083q9 18 9 33q0 18 -12.5 36t-27 29.5t-44 33t-45.5 34.5h1032v-137q0 -39 -18.5 -60.5t-39.5 -23.5h-2q-4 0 -8 1.5t-8 4.5t-7.5 6.5t-8 9.5l-7.5 10t-7.5 12t-7 12.5t-8 14t-7.5 13.5q-53 65 -183 65h-126q-46 0 -60 -15.5t-14 -64.5v-432h176 q43 0 74 17q28 -14 28 -48q0 -39 -30 -65q-27 12 -72 12h-176v-426q0 -95 46 -123t177 -28q76 0 123.5 18.5t79.5 59.5q3 5 9.5 16.5t10.5 17.5t10 15.5t10 15t9.5 11t11 8t10.5 2.5h7q14 -5 23 -10t19.5 -25t10.5 -51l-8 -150h-920q29 16 47.5 28.5t40 34t32.5 51.5t11 68 v467h-295q-224 -538 -245 -594q-7 -21 -7 -32t4 -23h-147zM432 733h258v500h-37q-33 -70 -69 -151.5t-84 -192t-68 -156.5z" />
<glyph unicode="ae" horiz-adv-x="1419" d="M88 236q0 78 38.5 131t129.5 90q42 18 113 44t124 47.5t87 41.5v106q0 79 -31.5 113.5t-79.5 34.5t-89 -40t-77 -153q-18 -69 -55 -69q-24 0 -54.5 10.5t-57.5 36.5t-27 61q0 88 105.5 152.5t274.5 64.5q166 0 234 -108q118 108 268 108q68 0 123.5 -16t91.5 -40.5 t62.5 -60t40.5 -68.5t22 -72.5t10 -65t2 -52.5q0 -39 -18 -54t-59 -15h-457q0 -365 244 -365q48 0 75 2t62 11.5t64 31t57 56.5l10 -13q-149 -206 -352 -206h-8q-206 0 -302 159l-92 -59q-141 -100 -237 -100q-117 0 -179.5 73.5t-62.5 182.5zM319 266q0 -75 42 -120.5 t102 -45.5q46 0 80 31.5t37 106.5v276q-12 -6 -48.5 -21t-68 -29t-57.5 -28q-45 -28 -66 -66t-21 -104zM809 535h227q41 0 55.5 14t14.5 57q0 40 -5 76t-18.5 75.5t-42.5 63t-71 23.5q-45 0 -77.5 -27t-49.5 -73.5t-25 -98t-8 -110.5z" />
<glyph unicode="OE" horiz-adv-x="1755" d="M80 643q0 189 55 325.5t150 215.5q165 133 497 133h887v-174q-21 -47 -49 -47q-27 0 -51 47q-30 56 -78.5 81t-134.5 25h-125q-44 0 -59 -16.5t-15 -63.5v-438h174q65 0 90 25q29 -32 29 -64v-6q0 -30 -29 -59q-30 24 -90 24h-174v-430q0 -95 45.5 -123t175.5 -28 q94 0 147.5 28.5t86.5 91.5q6 21 19 34.5t28 13.5q1 0 4 -1t4 -1q17 -4 45 -46l-8 -190h-930q-166 0 -283 27.5t-206 97.5q-94 74 -149.5 206.5t-55.5 311.5zM342 659q0 -87 11.5 -166t42.5 -158t78.5 -136.5t125 -93t176.5 -35.5q137 0 137 100v971q0 66 -31 87t-110 21 q-103 0 -181 -36t-124.5 -92.5t-75.5 -137t-39 -158t-10 -166.5z" />
<glyph unicode="oe" horiz-adv-x="1550" d="M98 442q0 224 104.5 344.5t321.5 120.5q192 0 295 -116q125 116 279 116q72 0 131 -16t96.5 -40.5t65 -60.5t41.5 -68t22.5 -72t10 -65t1.5 -53q0 -39 -17 -54t-58 -15h-457q0 -365 242 -365q155 0 235 166l39 -31q-89 -253 -356 -253q-186 0 -279 114 q-50 -53 -126 -83.5t-165 -30.5q-217 0 -321.5 119.5t-104.5 342.5zM338 442q0 -401 186 -401q189 0 189 401q0 402 -189 402q-186 0 -186 -402zM934 535h227q40 0 55 14t15 57q0 40 -5 76t-18.5 75.5t-43 63t-72.5 23.5q-44 0 -76 -27t-49.5 -73.5t-25 -98t-7.5 -110.5z " />
<glyph unicode="&#xfb01;" horiz-adv-x="1089" d="M59 813v72h111v153q0 96 24 175t73 141t131 96.5t190 34.5q173 0 266.5 -64t93.5 -139q-2 -33 -41.5 -70.5t-87.5 -40.5q-29 0 -47 12.5t-24.5 27.5t-12.5 40q-64 172 -166 172q-24 0 -47 -7t-49.5 -27.5t-46 -52.5t-32.5 -88t-13 -128l25 -235h182q196 0 360 16l8 -6 v-895h-229v700q0 67 -16.5 90t-65.5 23h-239v-813h-236v813h-111z" />
<glyph unicode="&#xfb02;" horiz-adv-x="1089" d="M59 813v72h111v159q0 197 103 319t294 122q127 0 232 -55l157 55v-1485h-229v1262q-14 61 -52.5 111t-103.5 50q-32 0 -63 -12.5t-62 -42t-50 -89.5t-19 -144l26 -250h179v-72h-179v-813h-233v813h-111z" />
<glyph unicode="&#xfb03;" horiz-adv-x="1638" d="M59 813v72h111v176q0 178 94.5 275.5t239.5 97.5q109 0 181.5 -49t88.5 -105q97 205 369 205q173 0 266.5 -64t93.5 -139q-2 -33 -41.5 -70.5t-87.5 -40.5q-29 0 -47 12.5t-24.5 27.5t-12.5 40q-64 172 -166 172q-24 0 -47 -7t-49.5 -27.5t-46 -52.5t-32.5 -88t-13 -128 l25 -235h182q196 0 360 16l8 -6v-895h-229v700q0 67 -16.5 90t-65.5 23h-239v-813h-236v813h-317v-813h-238v813h-111zM350 1257q0 -22 14.5 -68t29 -120.5t14.5 -165.5v-18h317v153q0 81 23 168q-42 -26 -103 -26q-25 0 -39 11.5t-26 35.5q-44 80 -72 112.5t-53 32.5 q-29 0 -63 -20t-34 -58q-8 -16 -8 -37z" />
<glyph unicode="&#xfb04;" horiz-adv-x="1638" d="M59 813v72h111v176q0 178 94.5 275.5t239.5 97.5q92 0 164 -48.5t106 -103.5q47 97 134.5 150t211.5 53q127 0 232 -55l157 55v-1485h-229v1262q-14 61 -52.5 111t-103.5 50q-32 0 -63 -12.5t-62 -42t-50 -89.5t-19 -144l26 -250h179v-72h-179v-813h-233v813h-315v-813 h-238v813h-111zM350 1257q0 -22 14.5 -68t29 -120.5t14.5 -165.5v-18h315v159q0 98 27 177l-11 -19q-46 -22 -94 -22q-25 0 -39 11.5t-26 35.5q-44 80 -72 112.5t-53 32.5q-29 0 -63 -20t-34 -58q-8 -16 -8 -37z" />
<glyph horiz-adv-x="0" />
<glyph horiz-adv-x="682" />
<glyph unicode=" "  horiz-adv-x="614" />
<glyph unicode="&#x09;" horiz-adv-x="614" />
<glyph unicode="&#xa0;" horiz-adv-x="614" />
<glyph unicode="!" horiz-adv-x="503" d="M96 145q0 74 43.5 121t110.5 47q70 0 111.5 -47t41.5 -121q-3 -76 -43.5 -122t-109.5 -46q-68 0 -111 46.5t-43 121.5zM109 1223q0 65 31 94t110 29q82 0 112.5 -29t30.5 -96q0 -37 -6 -86l-86 -715h-98l-86 715q-8 70 -8 88z" />
<glyph unicode="&#x22;" horiz-adv-x="759" d="M102 1253q0 47 25 70t82 23t81.5 -22.5t24.5 -70.5q0 -15 -4 -47l-71 -432h-62l-72 432q-4 36 -4 47zM444 1255q0 47 24.5 69t80.5 22q57 0 81.5 -22.5t24.5 -70.5q0 -15 -4 -47l-71 -432h-62l-69 432q-5 22 -5 49z" />
<glyph unicode="#" horiz-adv-x="974" d="M43 420v125h199l61 221h-170v125h203l100 381h119l-109 -381h207l105 381h108l-98 -381h166v-125h-197l-57 -221h164v-125h-201l-108 -420h-115l112 420h-215l-112 -420h-111l113 420h-164zM352 545h213l60 221h-211z" />
<glyph unicode="$" horiz-adv-x="944" d="M70 227q0 54 38 91.5t72 37.5q26 0 39.5 -12.5t22.5 -42.5q87 -208 188 -229v469l-94 41q-264 107 -264 331q0 170 100.5 261.5t257.5 97.5v151h76v-151q80 -2 145.5 -23t104.5 -52t59.5 -65.5t20.5 -66.5q0 -29 -13 -50.5t-33 -32.5t-37 -16t-30 -5q-21 0 -32 10.5 t-17 34.5q-71 174 -168 192v-412l86 -34q146 -64 219 -149t74 -230q-1 -78 -25.5 -142.5t-63.5 -106.5t-89.5 -70.5t-100.5 -41t-100 -12.5v-197h-76v197q-82 3 -148 21.5t-104 44.5t-64 57t-35 57t-9 47zM252 1012q0 -67 50 -115t128 -70v371q-78 -4 -128 -56.5t-50 -129.5 zM506 72q83 0 134.5 50t51.5 138t-50 150t-136 96v-434z" />
<glyph unicode="%" horiz-adv-x="1462" d="M55 944q0 173 72.5 260.5t212.5 87.5q65 0 108 -15.5t91 -47.5q62 -27 86 -27h247q53 0 83.5 8.5t45 22t35.5 45.5l25 55l61 -55l-723 -1335l-61 59l614 1133h-346q21 -95 21 -191q0 -172 -76.5 -261t-220.5 -89q-133 0 -204 89t-71 261zM219 944q0 -293 121 -293 q62 0 92.5 69.5t30.5 223.5q0 160 -31 226.5t-92 66.5q-59 0 -90 -67t-31 -226zM834 324q0 350 286 350q285 0 285 -350q0 -172 -72 -259.5t-213 -87.5t-213.5 87.5t-72.5 259.5zM997 324q0 -152 31 -221.5t92 -69.5q123 0 123 291q0 294 -123 294q-60 0 -91.5 -67 t-31.5 -227z" />
<glyph unicode="&#x26;" horiz-adv-x="1247" d="M57 348q0 64 23 120.5t62.5 96.5t76.5 67t80 48q-98 158 -98 276q0 149 85.5 243.5t223.5 94.5q123 0 204 -76.5t81 -201.5q0 -58 -19 -106.5t-55.5 -85t-72 -61.5t-85.5 -52q137 -171 322 -371q73 107 73 274q0 79 -16 148q28 34 72.5 54t81.5 20h14q43 -53 43 -160 q0 -92 -66 -205t-143 -192q184 -204 266 -248l-4 -45l-67 4q-107 5 -183.5 32t-150.5 89q-162 -134 -371 -134q-161 0 -269 98t-108 273zM276 410q0 -134 83.5 -223t201.5 -89q56 0 106.5 18t73.5 48q-205 185 -393 436q-29 -25 -50.5 -75.5t-21.5 -114.5zM383 1051 q0 -138 123 -271q52 37 83.5 104t31.5 154q0 85 -35.5 136t-83.5 51q-51 0 -85 -48t-34 -126z" />
<glyph unicode="'" horiz-adv-x="436" d="M133 883l6 460v23q0 66 21 92.5t88 26.5q60 0 86 -21.5t26 -68.5q0 -34 -4 -52l-159 -460h-64z" />
<glyph unicode="(" horiz-adv-x="540" d="M90 537q0 71 4 138.5t15.5 148t30 149.5t50 135.5t73 113.5t101 77t132.5 32l4 -53q-60 -19 -107.5 -80.5t-75.5 -140.5t-46 -176.5t-24.5 -181t-6.5 -162.5q0 -80 6.5 -163.5t24.5 -181.5t46 -177t75.5 -140t107.5 -80l-4 -51q-73 2 -132.5 31.5t-101 76.5t-73 113.5 t-50 135t-30 149t-15.5 148t-4 139.5z" />
<glyph unicode=")" horiz-adv-x="540" d="M41 -205q74 22 128 106t81 200.5t39 225t12 210.5t-12 210t-39 224t-81 200.5t-128 106.5l4 53q73 -2 132.5 -32t100.5 -77t72.5 -113.5t50 -135t29.5 -149.5t15 -148.5t4 -138.5q0 -72 -4 -139.5t-15 -148t-29.5 -149t-50 -135t-72.5 -113.5t-100.5 -76.5t-132.5 -31.5z " />
<glyph unicode="*" horiz-adv-x="765" d="M76 1130q0 22 16 54q17 39 41 39q17 0 35 -21l125 -125q20 -14 39 -14q28 0 28 29q0 6 -4 22l-37 162q-2 6 -2 20q0 23 17.5 36.5t46.5 13.5q28 0 44.5 -14t16.5 -38q0 -12 -2 -18l-37 -162q-2 -6 -2 -18q0 -33 29 -33q17 0 37 14l123 125q18 21 37 21q24 0 41 -39 q16 -32 16 -56q0 -34 -39 -53l-170 -63q-18 -8 -18 -33q0 -27 18 -33l170 -59q37 -15 37 -60q0 -25 -12 -49q-23 -51 -49 -51q-22 0 -46 35l-108 121q-17 14 -35 14q-13 0 -22 -9.5t-9 -23.5q0 -10 2 -14l39 -168q2 -8 2 -23q0 -28 -16 -44.5t-47 -16.5q-34 0 -51 16.5 t-17 44.5q0 15 2 23l43 168q2 4 2 14q0 14 -8.5 22.5t-23.5 8.5t-33 -12l-109 -121q-24 -35 -47 -35q-26 0 -49 51q-12 24 -12 49q0 45 37 60l172 59q16 6 16 33q0 25 -16 33l-172 63q-39 19 -39 55z" />
<glyph unicode="+" horiz-adv-x="894" d="M41 408v137h336v387h141v-387h336v-137h-336v-408h-141v408h-336z" />
<glyph unicode="," horiz-adv-x="481" d="M76 -270q112 135 112 256q0 46 -37.5 112t-37.5 111q2 56 32.5 94.5t87.5 38.5h5q64 0 106.5 -58.5t42.5 -156.5q0 -202 -272 -444z" />
<glyph unicode="-" horiz-adv-x="712" d="M135 385v182h443v-182h-443z" />
<glyph unicode="." horiz-adv-x="524" d="M104 154q0 77 43.5 126.5t112.5 49.5t111.5 -49.5t42.5 -126.5q-5 -80 -45.5 -128.5t-108.5 -48.5q-69 0 -112.5 49.5t-43.5 127.5z" />
<glyph unicode="/" horiz-adv-x="581" d="M33 -27l364 1373h154l-367 -1373h-151z" />
<glyph unicode="0" horiz-adv-x="1017" d="M90 664q0 110 13 204.5t44 180.5t78 146.5t120 96t165 35.5q91 0 163 -36t119 -97t77.5 -147t43.5 -180t13 -203q0 -110 -12.5 -206.5t-43 -186t-77 -153.5t-119 -102.5t-164.5 -38.5q-91 0 -164 39t-120 103.5t-78.5 154.5t-44.5 186t-13 204zM334 664q0 -66 2 -125.5 t8 -135t19 -135.5t31 -113t48 -82.5t68 -29.5q172 0 172 621q0 593 -172 593q-176 0 -176 -593z" />
<glyph unicode="1" horiz-adv-x="571" d="M20 1214v50l410 69l4 -10v-1268q0 -36 19 -55h-271q17 17 17 55v1032q0 56 -16 76.5t-58 30.5z" />
<glyph unicode="2" horiz-adv-x="968" d="M53 29q3 107 81.5 243.5t246.5 290.5q71 65 118 128t69 121.5t30 105.5t8 102q0 110 -36.5 175t-108.5 65q-67 0 -113 -71t-69 -194q-11 -65 -62 -65q-45 0 -88 31t-43 83q0 121 111.5 202t275.5 81q170 0 273.5 -86.5t103.5 -269.5q0 -73 -19.5 -131t-62.5 -107.5 t-94.5 -88.5t-132.5 -87q-55 -34 -101.5 -75.5t-74 -74.5t-52 -75t-33.5 -62.5t-22 -52.5h457q58 0 86 20t67 93l39 -8l-65 -322h-772z" />
<glyph unicode="3" horiz-adv-x="948" d="M49 219q0 58 41 94.5t88 36.5q45 0 60 -59q38 -131 89.5 -189.5t116.5 -58.5q87 0 133 77.5t46 227.5q0 171 -54.5 247.5t-136.5 76.5q-39 0 -95.5 -13.5t-72.5 -13.5q-35 0 -35 68q0 71 35 71q16 0 74 -13t94 -13q39 0 68.5 21t45 50.5t25 69t11.5 67.5t2 56 q0 37 -5.5 72.5t-19 75t-43 63.5t-72.5 24q-65 0 -106.5 -55.5t-75.5 -173.5q-15 -59 -55 -59q-38 0 -79.5 28.5t-41.5 81.5q0 104 105.5 176t252.5 72q56 0 106 -8t101.5 -30t88 -56.5t60 -91.5t23.5 -131q0 -53 -16.5 -97t-40.5 -71.5t-59 -50t-62.5 -33.5t-60.5 -21v-22 q24 -4 56 -16t74 -40.5t75.5 -67.5t57 -103.5t23.5 -141.5q0 -178 -114.5 -273.5t-319.5 -95.5q-86 0 -156 18.5t-111.5 46t-70 61.5t-39 63t-10.5 53z" />
<glyph unicode="4" horiz-adv-x="911" d="M16 383q21 40 89 174.5t103 201.5t93.5 178t110.5 203t104 177h184v-866h177v-117h-177v-301q0 -15 9 -33h-232q6 12 6 33v301h-444zM164 451h319v589h-22q-169 -319 -297 -589z" />
<glyph unicode="5" horiz-adv-x="937" d="M63 219q0 55 37.5 92t79.5 37q54 0 68 -63q41 -130 87 -186t109 -56q170 0 170 334q0 169 -61 272t-158 103q-65 0 -119 -31t-106 -100l-55 53l35 629l8 14h651l8 -21l-59 -198h-455q-43 0 -56 -13.5t-20 -68.5l2 -238q56 41 114 59.5t146 18.5q86 0 153 -31t107 -79 t66 -110.5t35.5 -119.5t9.5 -113q0 -71 -13.5 -132.5t-45 -116t-79.5 -93.5t-121 -61.5t-165 -22.5q-84 0 -151.5 19t-107.5 47t-67 62.5t-37 63t-10 50.5z" />
<glyph unicode="6" horiz-adv-x="1013" d="M90 653q0 246 80 424q115 250 389 250q79 0 142.5 -22t101 -56.5t57 -73t19.5 -75.5q0 -50 -38.5 -78.5t-74.5 -28.5q-24 0 -40 15.5t-21 38.5q-29 104 -69 157t-99 53q-43 0 -77 -28.5t-55 -78.5t-36 -106t-22 -125t-9.5 -120t-3.5 -105h18q57 70 119.5 109t142.5 39 q138 0 231 -103t93 -293q0 -88 -24.5 -169t-73 -149.5t-131.5 -109.5t-191 -41q-92 0 -165 33.5t-122 93t-81 145.5t-46 185.5t-14 218.5zM328 475q0 -113 19 -207.5t64.5 -159.5t110.5 -65q63 0 106 52.5t60 129t17 172.5q0 153 -54 225t-141 72q-84 0 -133 -64.5 t-49 -154.5z" />
<glyph unicode="7" horiz-adv-x="886" d="M29 1006l69 311h746l12 -17q-18 -132 -71.5 -247.5t-186.5 -329.5q-109 -177 -117 -635q-2 -111 -116 -111q-58 0 -93.5 24t-35.5 93q0 120 66.5 285.5t170.5 306.5q149 208 201 414h-467q-56 0 -82.5 -19t-48.5 -59l-8 -33z" />
<glyph unicode="8" horiz-adv-x="1011" d="M82 354q0 129 61 227.5t164 133.5v18q-83 28 -132.5 92.5t-49.5 163.5q0 160 102 249t277 89q181 0 281 -87t100 -251q0 -99 -50.5 -163.5t-134.5 -96.5v-16q104 -34 167 -132t63 -227q0 -102 -34.5 -177t-95 -117.5t-134.5 -62.5t-162 -20q-86 0 -159 20.5t-133.5 63 t-95 117.5t-34.5 176zM326 348q0 -138 45.5 -221.5t132.5 -83.5q88 0 135 83.5t47 221.5q0 86 -19.5 158.5t-62 120t-100.5 47.5q-83 0 -130.5 -96.5t-47.5 -229.5zM350 999q0 -110 42 -180.5t112 -70.5q74 0 114.5 69t40.5 182q0 117 -39.5 187.5t-115.5 70.5 q-71 0 -112.5 -72t-41.5 -186z" />
<glyph unicode="9" horiz-adv-x="991" d="M78 901q0 185 106 305.5t291 120.5q220 0 330 -168q90 -145 90 -457q0 -205 -35 -360t-98 -233q-104 -132 -322 -132q-87 0 -155.5 24.5t-105 60.5t-55 71t-18.5 64q0 51 37.5 85.5t75.5 34.5q49 0 64 -53q41 -124 81 -170.5t95 -46.5q39 0 72 27t62.5 88.5t46.5 180.5 t17 286v14h-22q-97 -117 -223 -117q-143 0 -238.5 96.5t-95.5 278.5zM313 946q0 -130 52.5 -212.5t142.5 -82.5q42 0 78.5 25t52.5 57q25 41 25 125q0 180 -47 289.5t-130 109.5q-81 0 -127.5 -84.5t-46.5 -226.5z" />
<glyph unicode=":" horiz-adv-x="524" d="M104 147q0 74 42.5 121t111.5 47t111.5 -47t42.5 -121q-3 -76 -44.5 -123t-109.5 -47q-69 0 -111.5 47.5t-42.5 122.5zM104 762q0 74 43 122t111 48t111 -48t43 -122q-3 -76 -44.5 -124t-109.5 -48q-69 0 -111.5 48.5t-42.5 123.5z" />
<glyph unicode=";" horiz-adv-x="501" d="M86 -272q111 130 111 252q0 46 -37 111t-37 110q2 54 33.5 92.5t87.5 38.5h4q64 0 105.5 -58t41.5 -155q0 -201 -270 -436zM100 762q0 74 43.5 121t110.5 47q68 0 110 -47t42 -121q-3 -76 -43.5 -123t-108.5 -47t-111 47.5t-43 122.5z" />
<glyph unicode="&#x3c;" horiz-adv-x="929" d="M47 395v150l801 393v-162l-664 -305l664 -301v-162z" />
<glyph unicode="=" horiz-adv-x="1083" d="M135 195v141h813v-141h-813zM135 614v142h813v-142h-813z" />
<glyph unicode="&#x3e;" horiz-adv-x="927" d="M82 8v162l663 301l-663 305v162l799 -393v-150z" />
<glyph unicode="?" horiz-adv-x="784" d="M41 1114q0 36 22 75.5t63 75t110 58.5t153 23q153 0 247.5 -71t94.5 -206q0 -22 -3 -41.5t-12 -37t-14.5 -30.5t-21.5 -28.5t-22 -23t-26.5 -21.5t-24.5 -17t-27 -18l-23 -14q-68 -37 -103.5 -85t-35.5 -94q0 -50 34.5 -81t92.5 -31q41 0 73 14l11 -43q-115 -86 -248 -86 q-96 0 -160.5 50t-64.5 145q0 106 141 198q174 115 174 293q0 70 -23.5 114t-64.5 44q-40 0 -72.5 -50t-60.5 -169q-12 -64 -76 -64q-46 0 -89.5 33t-43.5 88zM236 145q0 74 40.5 121t104.5 47q65 0 105 -47t40 -121q-2 -76 -41 -122t-104 -46t-105 46.5t-40 121.5z" />
<glyph unicode="@" horiz-adv-x="1394" d="M72 582q0 174 59 320.5t158 242t228 148.5t271 53q162 0 287 -76.5t189.5 -201.5t64.5 -277q0 -84 -23.5 -166.5t-69 -154.5t-121 -116.5t-169.5 -44.5q-72 0 -104.5 35t-32.5 88q0 25 6 49l12 109l-16 10q-61 -144 -136 -217.5t-175 -73.5q-58 0 -89.5 46.5t-31.5 119.5 q0 33 7 76.5t23 97t39.5 106t60.5 102.5t81.5 88.5t105.5 61.5t131 23q49 0 78 -20l10 16h168q-51 -195 -129 -534q-4 -24 -4 -37q0 -64 74 -64q47 0 88.5 41.5t66.5 103.5t39.5 127t14.5 117q0 113 -36.5 203.5t-99.5 147.5t-145 87.5t-176 30.5q-114 0 -216.5 -54.5 t-175 -146t-115 -213.5t-42.5 -253q0 -68 14 -135.5t49.5 -138.5t89 -124.5t140.5 -88t195 -34.5q165 0 307 60l8 -60q-59 -45 -155.5 -66.5t-184.5 -21.5q-129 0 -239 37t-195.5 109.5t-134.5 191t-49 271.5zM557 479q0 -88 55 -88q33 0 81 67t87 150.5t60 151.5l61 196 q-27 21 -65 21q-55 0 -109 -60t-89.5 -142.5t-58 -164.5t-22.5 -131z" />
<glyph unicode="A" horiz-adv-x="1048" d="M16 0q15 15 33 59q43 118 195 615l194 643h195l364 -1264q11 -36 31 -53h-280v47l-125 428h-353q-93 -306 -120 -430q-9 -30 0 -45h-134zM295 555h303l-137 512h-25z" />
<glyph unicode="B" horiz-adv-x="1144" d="M41 0q71 29 104 68t33 112v957q-3 64 -38 103t-99 77h555q206 0 315 -73t109 -238q0 -234 -244 -293v-17q60 -11 110.5 -35.5t91.5 -65t64 -102t23 -137.5q0 -168 -92 -250q-106 -106 -377 -106h-555zM424 207q0 -76 31.5 -106.5t105.5 -30.5q215 0 215 284 q0 131 -64.5 218t-185.5 87h-102v-452zM424 729h100q126 0 187 70.5t61 189.5t-56.5 187.5t-178.5 68.5q-65 0 -89 -14.5t-24 -67.5v-434z" />
<glyph unicode="C" horiz-adv-x="1140" d="M84 645q0 323 143 500q155 201 494 201q88 0 189.5 -17.5t166.5 -62.5v-125q-22 -45 -57 -45q-32 0 -68 45q-85 135 -245 135q-67 0 -122 -26.5t-90.5 -67t-62.5 -98t-41 -111.5t-22.5 -116t-10.5 -102t-2 -79q0 -54 3 -106t13 -117.5t26 -122t44.5 -112t65 -94.5t91 -63 t120.5 -24q160 0 250 151q26 48 63 48q38 0 64 -48l-11 -129q-68 -45 -176.5 -65.5t-212.5 -20.5q-312 0 -462 177t-150 495z" />
<glyph unicode="D" horiz-adv-x="1302" d="M41 0q78 37 107.5 73.5t29.5 106.5v957v8q0 34 -10 60.5t-33.5 48t-41 32.5t-52.5 31h573q163 -1 273 -41.5t184 -124.5q146 -158 146 -479q0 -103 -15 -189.5t-40 -150.5t-63 -115.5t-78 -85.5t-92 -59t-97.5 -38.5t-102 -21.5t-98 -10t-92.5 -2h-498zM420 166 q0 -55 31.5 -75.5t121.5 -20.5q49 0 89.5 9t84.5 32t77.5 67t61 108t42 162.5t14.5 223.5q0 283 -91 428t-271 145q-94 0 -127 -12.5t-33 -52.5v-1014z" />
<glyph unicode="E" horiz-adv-x="1030" d="M41 0q75 36 106 71t31 111v955q0 33 -10 59.5t-33.5 49.5t-41 36t-52.5 35h901v-178q-21 -41 -51 -41q-29 0 -49 41q-31 58 -79 82t-136 24h-129q-46 0 -61 -15.5t-15 -64.5v-434h178q79 0 105 35q32 -32 32 -72q0 -36 -32 -76q-34 31 -105 31h-178v-426 q0 -94 47.5 -122.5t179.5 -28.5q95 0 149 29.5t85 93.5q25 41 53 41h4q26 0 47 -41l-10 -195h-936z" />
<glyph unicode="F" horiz-adv-x="946" d="M29 1317h889v-178q-20 -45 -48 -45q-24 0 -55 45q-33 57 -80 81.5t-133 24.5h-117q-45 0 -59 -15.5t-14 -64.5v-469h211q21 0 59 19q13 -6 21 -20.5t8 -28.5v-7q0 -15 -8 -33t-21 -28q-1 0 -23 7t-36 7h-211v-534q0 -60 20 -78h-287q19 19 19 78v1059v4q0 34 -10 61 t-32 48.5t-40.5 34.5t-52.5 32z" />
<glyph unicode="G" horiz-adv-x="1196" d="M84 649q0 62 6 121.5t24 131t46 132.5t77 120t112.5 100t155.5 66.5t204 25.5q248 0 378 -80v-125q-26 -45 -59 -45h-4q-39 0 -68 45q-93 135 -239 135q-65 0 -119 -23t-90.5 -60.5t-64.5 -90.5t-44 -106.5t-26 -114.5t-13.5 -110t-3.5 -97q0 -41 1.5 -81t9.5 -107 t21 -123.5t39 -119t61 -106t90 -72t122 -28.5q97 0 128.5 20.5t31.5 77.5v361q0 47 -9 67.5t-38 30.5h322q-19 -11 -25 -31t-6 -63v-441q-84 -42 -193 -64t-211 -22q-254 0 -389 103q-227 165 -227 573z" />
<glyph unicode="H" horiz-adv-x="1284" d="M41 0q70 26 103.5 63t33.5 107v12v953q0 32 -8.5 57.5t-18.5 42t-32 33.5t-35.5 25t-42.5 24h383v-586h479v494q0 45 -4.5 63.5t-21.5 28.5h303q-21 -10 -27 -29.5t-6 -62.5v-1147q0 -35 3.5 -51.5t16.5 -26.5h-280q16 18 16 78v579h-479v-657h-383z" />
<glyph unicode="I" horiz-adv-x="538" d="M106 1317h328q-22 -10 -28.5 -30.5t-6.5 -63.5v-1145q0 -62 21 -78h-301q20 18 20 78v1145q0 45 -5.5 64.5t-27.5 29.5z" />
<glyph unicode="J" horiz-adv-x="559" d="M-35 -172q47 18 76.5 38t58.5 54q72 82 72 352v865q0 20 -3.5 38t-7.5 30.5t-14 25.5t-16.5 20.5t-22 18.5t-23 15.5t-27.5 16t-27 15.5h395v-1051q0 -166 -40.5 -267t-137.5 -153q-118 -63 -277 -63z" />
<glyph unicode="K" horiz-adv-x="1200" d="M39 -4q78 34 106.5 66.5t28.5 99.5v16v957v10q0 68 -31 102t-104 70h383v-647l203 237q133 170 264 363q20 20 20 35q0 9 -6 12h240q-42 -13 -88 -47q-56 -47 -122 -120t-167 -195.5t-129 -155.5q79 -147 193 -326t217 -311q44 -56 75 -83t66 -34v-55l-107 6 q-154 4 -232.5 50t-162.5 179q-145 227 -242 426h-22l-4 -655h-379z" />
<glyph unicode="L" horiz-adv-x="976" d="M41 0q76 35 106.5 70t30.5 112v955v10q0 62 -32.5 97.5t-104.5 72.5h381v-1094q0 -95 43 -123t164 -28q92 0 142.5 29.5t82.5 93.5q23 41 47 41q23 0 53 -41l-10 -195h-903z" />
<glyph unicode="M" horiz-adv-x="1503" d="M31 1317h426q43 -154 86 -281l209 -592h24l152 451l127 422h420q-71 -31 -103 -68.5t-33 -111.5v-1059q0 -62 21 -78h-266q16 18 16 78v1063h-31l-356 -1104h-84l-367 1104h-28v-766q0 -231 6 -301q3 -54 29 -74h-144q20 20 23 74q8 91 8 301v762q-2 35 -14 63t-36 51 t-39 34.5t-46 31.5z" />
<glyph unicode="N" horiz-adv-x="1206" d="M31 1317h385l542 -918h29v529q0 191 -6 299q-6 74 -43 90h176q-35 -20 -41 -90q-8 -93 -8 -299v-928h-166l-625 1071h-30v-698q0 -208 8 -301q3 -52 29 -72h-146q19 19 25 72q8 91 8 301v762v4q0 22 -3 40t-12.5 33.5t-15.5 25.5t-23.5 23.5t-24 18t-30 19.5t-28.5 18z " />
<glyph unicode="O" horiz-adv-x="1316" d="M86 657q0 329 143.5 509t427.5 180q285 0 428.5 -180t143.5 -509t-143.5 -506.5t-428.5 -177.5q-284 0 -427.5 178t-143.5 506zM358 657q1 -65 4 -118.5t11 -120t21 -118t36 -102.5t53 -85t74.5 -55t99.5 -21q54 0 98.5 21t75 55t53.5 85t36.5 103t22 117.5t11.5 120 t4 118.5q-1 61 -4 114t-11.5 118.5t-22 117.5t-36.5 104t-53.5 87t-75 56.5t-98.5 21.5q-55 0 -99.5 -21.5t-74.5 -56.5t-53 -87t-36 -104t-21 -118t-11 -118t-4 -114z" />
<glyph unicode="P" horiz-adv-x="1073" d="M31 1317h518q224 0 330 -72q137 -98 137 -311q0 -404 -486 -404h-120v-452q0 -34 3.5 -50.5t16.5 -27.5h-283q19 19 19 78v1061q-1 23 -8 43.5t-14.5 34t-25 30.5t-26 24t-32 24.5t-29.5 21.5zM410 694q0 -57 25 -74.5t89 -17.5q66 0 114 29.5t73.5 79t37 103.5t11.5 114 q0 162 -65 240.5t-167 78.5q-74 0 -96 -16.5t-22 -65.5v-471z" />
<glyph unicode="Q" horiz-adv-x="1316" d="M86 662q0 327 143.5 505.5t427.5 178.5q285 0 428.5 -178t143.5 -506q0 -266 -95.5 -435t-283.5 -221q1 -98 30.5 -176.5t84.5 -133t119.5 -91.5t148.5 -66q-75 1 -164 21t-177 59t-160.5 90.5t-117.5 121t-45 144.5v5q-239 29 -361 205.5t-122 476.5zM358 662 q1 -77 5.5 -138.5t15 -137.5t31.5 -132.5t52.5 -106t81 -76t113.5 -26.5q54 0 98.5 21t75 54.5t53.5 84.5t36.5 102.5t22 117t11.5 119.5t4 118q-1 61 -4 113.5t-11.5 117.5t-22 117t-36.5 103.5t-53.5 86.5t-75 56.5t-98.5 21.5q-55 0 -99.5 -21.5t-74.5 -56t-53 -86.5 t-36 -104t-21 -117.5t-11 -117t-4 -113.5z" />
<glyph unicode="R" horiz-adv-x="1148" d="M31 1317h579q223 0 320 -100q82 -88 82 -238q0 -121 -80 -206.5t-207 -104.5v-17q51 -14 88.5 -38.5t60.5 -52t39.5 -69t24.5 -77t16 -88.5q23 -149 88 -226q33 -38 80 -41v-59h-112q-127 0 -188.5 41t-92.5 147q-12 43 -22 92.5t-19.5 102.5t-13.5 74q-17 81 -58 118 t-112 37h-92v-536q0 -36 2.5 -52t13.5 -24h-278q18 16 18 76v1061q0 35 -10 62.5t-32.5 49.5t-42 35.5t-52.5 32.5zM412 682h98q246 0 246 285q0 146 -59.5 212t-161.5 66q-75 0 -99 -19t-24 -67v-477z" />
<glyph unicode="S" horiz-adv-x="983" d="M106 205q13 41 46 41h10q39 -4 59 -41q106 -168 248 -168q96 0 154 57t59 166q0 95 -58.5 166t-181.5 127q-46 22 -78 39.5t-75 45t-72 58t-56.5 69.5t-41 88t-13.5 105q0 175 106.5 281.5t309.5 106.5q192 0 309 -80v-148q-4 -10 -8.5 -14.5t-15.5 -6t-12 -1.5 q-4 -2 -15 -2q-26 0 -39 32q-76 150 -221 150q-87 0 -141.5 -56.5t-54.5 -150.5q0 -44 18 -82.5t41.5 -65t64.5 -53.5t70 -42t74 -35q55 -26 93.5 -47.5t84 -58.5t73.5 -77.5t47 -100.5t19 -132q0 -63 -12.5 -118.5t-44 -108t-80 -90.5t-124.5 -61t-173 -24 q-99 0 -200.5 26.5t-157.5 84.5z" />
<glyph unicode="T" horiz-adv-x="1056" d="M31 1141v176h995v-176q-22 -43 -47 -43q-21 0 -55 43q-28 56 -70.5 80t-118.5 24h-82v-1171q0 -51 17 -74h-279q15 24 15 74v1171h-82q-76 0 -118.5 -24t-70.5 -80q-26 -45 -53 -45q-26 0 -51 45z" />
<glyph unicode="U" horiz-adv-x="1216" d="M100 1317h301q-19 -11 -24.5 -31.5t-5.5 -62.5v-828q0 -358 237 -358q125 0 181.5 91.5t56.5 266.5v828q0 75 -27 94h301q-19 -11 -24.5 -31.5t-5.5 -62.5v-801q-3 -238 -122.5 -343.5t-359.5 -105.5q-253 0 -366 103.5t-113 345.5v801q0 76 -29 94z" />
<glyph unicode="V" horiz-adv-x="1091" d="M0 1317h324q-14 -8 -14 -30q0 -13 5 -32l297 -987h31l148 502q75 255 129 490q9 46 -11 57h168q-13 -6 -23 -18t-14.5 -21.5t-17.5 -37.5l-3.5 -7t-2.5 -6q-54 -153 -174 -563l-201 -664h-197l-374 1241q-16 48 -70 76z" />
<glyph unicode="W" horiz-adv-x="1564" d="M0 1317h317l-12 -6q0 -3 -1 -10t-1 -11q0 -9 4 -37l225 -966h21l213 1030h170l225 -1030h29l102 440q101 476 109 522q6 15 6 29q0 31 -39 39h176q-19 -10 -29.5 -27t-21.5 -53q-20 -66 -125 -578l-170 -659h-197l-208 899h-27l-201 -899h-194l-146 635q-83 354 -151 614 q-3 13 -13.5 25t-19.5 18t-23.5 14.5t-17.5 10.5z" />
<glyph unicode="X" horiz-adv-x="1081" d="M-2 1317h350q-12 -9 -12 -24t12 -36l232 -409h18q151 262 227 416q11 25 9.5 36t-15.5 17h195q-39 -14 -78 -62q-93 -130 -305 -493l383 -688q42 -62 59 -74h-311q8 16 -6 43l-269 485h-24q-14 -26 -64 -116.5t-81 -146t-65.5 -123t-47.5 -99.5q-13 -29 -4 -43h-166 q20 11 55 55l346 572l-338 616q-32 50 -100 74z" />
<glyph unicode="Y" horiz-adv-x="1038" d="M-12 1317h360q-31 -15 -31 -39q0 -11 9 -23l262 -614h20q190 458 242 602q10 30 10 43q0 22 -18 31h194q-24 -10 -39.5 -26.5t-38.5 -53.5q-47 -94 -155 -342.5t-123 -282.5q-33 -74 -33 -139v-395q0 -62 21 -78h-285q20 18 20 78v377q0 57 -55 135l-276 641 q-33 61 -84 86z" />
<glyph unicode="Z" horiz-adv-x="1110" d="M27 33l698 1210h-233q-111 0 -174 -26t-99 -91q-17 -32 -49 -32q-33 0 -49 32v191h901l12 -31l-700 -1216h291q125 0 193.5 32t109.5 103q21 35 45 35q4 0 16 -4q29 -8 43 -31l-10 -205h-981z" />
<glyph unicode="[" horiz-adv-x="481" d="M131 -244v1561h309v-51l-96 -11q-43 -4 -57.5 -27t-14.5 -73v-1237q0 -51 14.5 -74t57.5 -26l96 -11v-51h-309z" />
<glyph unicode="\" horiz-adv-x="587" d="M33 1346h151l369 -1373h-154z" />
<glyph unicode="]" horiz-adv-x="485" d="M41 -193l96 11q44 3 58 25.5t14 74.5v1237q0 50 -14 73t-58 27l-96 11v51h309v-1561h-309v51z" />
<glyph unicode="^" horiz-adv-x="905" d="M43 408l334 864h151l330 -864h-156l-249 667l-256 -667h-154z" />
<glyph unicode="_" horiz-adv-x="835" d="M0 -141h836v-97h-836v97z" />
<glyph unicode="`" horiz-adv-x="593" d="M66 1298q0 35 25.5 73t51.5 38q24 0 49 -20.5t72 -77.5l256 -289l-24 -49l-318 203q-54 33 -83 61.5t-29 60.5z" />
<glyph unicode="a" horiz-adv-x="983" d="M88 236q0 78 40 130.5t134 88.5q19 7 70 25.5t78.5 29t66.5 26.5t66 30.5t45 27.5v102q0 79 -33 113.5t-82 34.5q-47 0 -88.5 -40.5t-77.5 -152.5q-18 -69 -57 -69q-24 0 -54.5 10.5t-57.5 36.5t-27 61q0 89 108.5 153t286.5 64q84 0 143.5 -16t91 -39t49 -60t21.5 -65.5 t4 -69.5v-426q0 -134 68 -149h69l-237 -102q-55 0 -82.5 26.5t-44.5 77.5q-4 -2 -26.5 -18t-31 -21t-31 -18.5t-37.5 -19t-37 -13.5t-44.5 -11t-46.5 -3q-117 0 -181.5 74t-64.5 182zM324 266q0 -75 42 -120.5t103 -45.5q47 0 81.5 31.5t37.5 106.5v276q-7 -3 -49 -20 t-71.5 -30.5t-55.5 -27.5q-46 -27 -67 -65t-21 -105z" />
<glyph unicode="b" horiz-adv-x="1067" d="M35 1442l332 43l2 -4v-709q74 60 142.5 93.5t147.5 33.5q132 0 220 -110.5t88 -319.5q0 -119 -23.5 -207.5t-62 -141.5t-97 -85t-119 -43.5t-137.5 -11.5q-152 0 -258 59l-92 -59l-41 26v1268q0 16 -5.5 32t-18 35t-21.5 31.5t-29 36t-28 33.5zM369 272q0 -48 4 -106 q11 -57 51.5 -92t107.5 -35q191 0 191 385q0 110 -15.5 184t-44.5 109t-59 48t-69 13q-115 0 -158 -108q-8 -36 -8 -109v-289z" />
<glyph unicode="c" horiz-adv-x="907" d="M96 436q0 223 110.5 347t315.5 124q80 0 151.5 -21t120 -65t48.5 -102l-137 -109q-49 0 -62 56q-28 95 -57 136.5t-78 41.5q-69 0 -118.5 -93t-49.5 -272q0 -107 20.5 -184t56 -118.5t76 -60t89.5 -18.5h53q53 0 88.5 18.5t85.5 82.5l41 -23q-96 -119 -172 -157.5 t-186 -38.5q-182 0 -289 116.5t-107 339.5z" />
<glyph unicode="d" horiz-adv-x="1079" d="M96 422q0 223 114 350t322 127q99 0 158 -22v397q0 44 -98 168l332 43v-1338q0 -58 18.5 -72.5t93.5 -19.5l-211 -75q-58 7 -96.5 34.5t-38.5 77.5q-68 -56 -138 -84t-124 -28q-156 0 -244 121t-88 321zM338 459q0 -176 55 -268.5t150 -92.5q57 0 91.5 27.5t45 62.5 t10.5 80v375q0 84 -12 115q-35 80 -131 80q-87 0 -148 -93.5t-61 -285.5z" />
<glyph unicode="e" horiz-adv-x="964" d="M98 442q0 99 23 180.5t70.5 146.5t129.5 101.5t191 36.5q92 0 162 -25.5t109.5 -63.5t64 -91t32 -99t7.5 -96q0 -38 -19 -53.5t-59 -15.5h-463q0 -166 59.5 -265.5t188.5 -99.5h12q82 0 124.5 16.5t96.5 84.5l35 -29q-69 -117 -137 -153.5t-217 -36.5h-4q-89 0 -159.5 25 t-116 67t-75.5 102t-42.5 126t-12.5 142zM346 535h229q41 0 55.5 14t14.5 57q0 40 -5 76t-18.5 75.5t-43 63t-72.5 23.5q-44 0 -76.5 -28t-50 -74.5t-25.5 -98t-8 -108.5z" />
<glyph unicode="f" horiz-adv-x="626" d="M59 813v72h111v227q0 180 85.5 276.5t227.5 96.5q121 0 181.5 -51.5t60.5 -108.5q0 -40 -35.5 -67t-75.5 -27q-25 0 -39 11.5t-26 35.5q-49 88 -70.5 116.5t-44.5 28.5q-26 0 -51 -19.5t-25 -57.5q-8 -16 -8 -39q0 -28 14.5 -86t29 -142t14.5 -176v-18h180v-72h-180v-813 h-238v813h-111z" />
<glyph unicode="g" horiz-adv-x="995" d="M82 -203q0 35 15 64t34.5 46t51 31.5t51.5 21t49 13.5q-60 14 -110 65.5t-50 108.5q0 56 51 109.5t131 73.5v18q-86 16 -146.5 83t-60.5 173q0 44 11 85t39 81.5t70 70t110.5 48t154.5 18.5q66 0 132.5 -17.5t109.5 -43.5q119 6 229 61l-8 -28q-24 -47 -57.5 -73 t-89.5 -46q41 -59 41 -150q0 -76 -29.5 -132.5t-81.5 -89.5t-116.5 -48.5t-141.5 -15.5q-47 0 -78 4q-28 -5 -58 -30t-30 -56q0 -36 34 -67.5t99 -31.5h160q86 0 159 -29t120 -88.5t47 -138.5v-10q0 -72 -26.5 -131t-69.5 -96.5t-100.5 -63t-116 -36.5t-119.5 -11 q-186 0 -298 66t-112 192zM283 -182q0 -100 68.5 -157.5t164.5 -57.5q101 0 166.5 48.5t65.5 145.5q0 87 -65 123.5t-191 36.5q-115 0 -160 -33q-49 -36 -49 -106zM334 608q0 -96 41 -157.5t104 -61.5q67 0 106.5 60.5t39.5 160.5q0 115 -41 174.5t-103 59.5q-63 0 -105 -60 t-42 -176z" />
<glyph unicode="h" horiz-adv-x="1056" d="M35 1442l334 43l2 -4v-705q10 6 40.5 24.5t40 24.5t35.5 20t38 19.5t34.5 14.5t38.5 12.5t37 6.5t41 3q124 0 187 -72t65 -200v-629h-234v602q-6 178 -151 178q-56 0 -95.5 -27t-60.5 -69q-16 -36 -16 -113v-571h-234v1274q0 21 -17.5 52.5t-34.5 53.5t-50 62z" />
<glyph unicode="i" horiz-adv-x="544" d="M57 854l344 47l2 -4v-897h-239v690q0 20 -19 52t-37.5 53.5t-50.5 58.5zM129 1194q0 62 40.5 105.5t106.5 43.5q68 0 110 -43.5t42 -105.5q0 -63 -43 -107.5t-109 -44.5t-106.5 44.5t-40.5 107.5z" />
<glyph unicode="j" horiz-adv-x="536" d="M-33 -420q87 31 125 80q72 93 72 348v684q0 41 -107 162l344 49v-905q0 -155 -35 -253.5t-120 -145.5q-107 -60 -275 -60zM127 1194q0 61 40 105t105 44q67 0 107.5 -44t40.5 -105q0 -63 -41.5 -107.5t-106.5 -44.5t-105 44t-40 108z" />
<glyph unicode="k" horiz-adv-x="1036" d="M35 1442l334 43l2 -4v-1002h24l129 191q18 25 53 79t54 78q36 50 88 50h239v-15q0 -97 -75 -131q-20 -10 -37 -10q-31 0 -55 23t-27 57q-36 -19 -63 -50.5t-61 -81.5t-65 -85q151 -257 306 -443q7 -8 23 -26t21 -23t15.5 -16t16.5 -15t14.5 -9.5t17.5 -8.5v-43h-141 q-92 0 -145.5 22t-96.5 82q-97 132 -211 361h-24v-465h-234v1274q0 21 -17.5 52.5t-34.5 53.5t-50 62z" />
<glyph unicode="l" horiz-adv-x="522" d="M35 1442l350 43l2 -4v-1481h-246v1274q0 40 -106 168z" />
<glyph unicode="m" horiz-adv-x="1595" d="M57 860l312 47l22 -127q6 4 40 26t43 27.5t38 22t44 22t40 14.5t48 12t48 3q84 0 137.5 -40t81.5 -97q8 5 39 26.5t47 31.5t47.5 28t55 27t55 16.5t59.5 7.5q124 0 187 -72.5t65 -203.5v-631h-231v598q-1 90 -38.5 139t-102.5 49h-4q-53 0 -96.5 -35.5t-61.5 -101.5 q-6 -37 -6 -92v-557h-234v598q-2 87 -34 137.5t-97 50.5q-62 0 -107.5 -36.5t-60.5 -104.5q-2 -25 -2 -88v-557h-233v694q0 42 -101 166z" />
<glyph unicode="n" horiz-adv-x="1077" d="M57 860l316 47l22 -127q75 45 116.5 67t97 41t102.5 19q118 0 176.5 -72t60.5 -202v-633h-237v606q-6 180 -146 180q-106 0 -155 -96q-15 -40 -15 -115v-575h-235v694q0 21 -18.5 53.5t-35.5 54t-49 58.5z" />
<glyph unicode="o" d="M98 442q0 224 105.5 344.5t326.5 120.5t327 -120.5t106 -344.5q0 -462 -433 -462q-432 0 -432 462zM340 442q0 -401 190 -401q191 0 191 401q0 402 -191 402q-190 0 -190 -402z" />
<glyph unicode="p" horiz-adv-x="1087" d="M57 860l310 47l28 -127q81 64 145 95.5t152 31.5q125 0 210 -112t85 -324q0 -114 -23 -200t-61.5 -139t-96.5 -86t-120.5 -45.5t-140.5 -12.5q-94 0 -150 18v-467h-235v1157q0 20 -18.5 52t-35.5 53.5t-49 58.5zM395 276q0 -69 2 -98q28 -131 154 -131q194 0 194 385 q0 88 -11 153.5t-28.5 103t-43.5 60.5t-50.5 30t-54.5 7q-111 0 -151 -116q-11 -34 -11 -103v-291z" />
<glyph unicode="q" d="M96 428q0 233 123 363q110 116 322 116q140 0 245 -55l76 55h66v-1368h-238v555q-64 -60 -126.5 -83t-133.5 -23q-154 0 -244 121t-90 319zM338 467q0 -176 54.5 -268.5t148.5 -92.5q149 0 149 170v369q0 69 -2 92q-14 50 -49 79.5t-90 29.5q-92 0 -151.5 -98t-59.5 -281 z" />
<glyph unicode="r" horiz-adv-x="780" d="M57 860l316 47l26 -162q83 90 133 126t103 36q50 0 79 -30t29 -84l-104 -148q-7 5 -25.5 20.5t-29 23.5t-27.5 16.5t-33 11.5l-55 -4q-39 0 -56.5 -35t-17.5 -111v-567h-235v694q0 21 -18.5 53.5t-35.5 54t-49 58.5z" />
<glyph unicode="s" horiz-adv-x="864" d="M98 195q0 72 41 127q33 -119 121 -200t160 -81h8q63 0 99 33.5t36 91.5q0 113 -184 184q-117 49 -180.5 115.5t-63.5 159.5q0 134 88 208t240 74q159 0 254 -63q41 -47 41 -115q0 -66 -41 -113q-45 98 -119 160.5t-135 67.5q-59 0 -92 -34.5t-33 -84.5q0 -56 47 -94.5 t135 -73.5q126 -51 185 -115t59 -174q0 -142 -92 -215t-248 -73q-82 0 -162.5 19.5t-122.5 61.5q-41 62 -41 134z" />
<glyph unicode="t" horiz-adv-x="645" d="M61 815v70h105q125 119 158 344h77v-344h185v-70h-185v-541q0 -91 34 -135.5t93 -44.5q66 0 86 10l-249 -124q-79 0 -139 57t-60 168v610h-105z" />
<glyph unicode="u" horiz-adv-x="1097" d="M53 852l334 49v-590q0 -110 41 -159.5t119 -49.5q59 0 97.5 28t51.5 67q13 41 13 104v387q0 24 -18.5 56.5t-34 51.5t-48.5 56l334 49v-754q0 -57 18.5 -71.5t94.5 -20.5l-217 -75q-49 4 -89 32.5t-40 79.5v8q-10 -6 -43.5 -27.5t-56 -33.5t-58 -28t-75.5 -23.5t-83 -7.5 q-47 0 -86.5 12.5t-74.5 40.5t-54.5 82t-19.5 129v444q0 21 -19 53.5t-36.5 53.5t-49.5 57z" />
<glyph unicode="v" horiz-adv-x="948" d="M-4 885h307l203 -660h24l220 527v4q0 11 -12.5 29t-26 32t-36.5 37.5t-30 30.5h268l-381 -885h-174l-127 389q-25 73 -127 356q-27 67 -49.5 93.5t-58.5 46.5z" />
<glyph unicode="w" horiz-adv-x="1370" d="M0 885h303l164 -641h27l157 641h160l178 -641h25q23 87 96.5 272.5t81.5 233.5v10q0 26 -15.5 49t-33 36.5t-56.5 39.5h240l-311 -885h-168l-172 565h-29l-153 -565h-168l-140 481q-36 129 -84 267q-20 49 -37.5 76.5t-28.5 37t-36 23.5z" />
<glyph unicode="x" horiz-adv-x="976" d="M18 0l170 145q40 47 109 141.5t92 123.5q-46 65 -122.5 183t-110.5 167q-25 34 -61 71.5t-62 53.5h307l172 -291h20l111 164q2 4 2 12t-3.5 19t-11 25t-13.5 24t-16 26t-13 21h313l-145 -119q-110 -119 -193 -242l248 -379q18 -21 74.5 -73.5t75.5 -71.5h-320l-211 338 l-158 -203q-20 -26 -20 -47q0 -14 8 -26t23.5 -22t27.5 -16t31.5 -14t24.5 -10h-349z" />
<glyph unicode="y" horiz-adv-x="935" d="M-2 885h324l221 -654h24q25 83 100 258t101 267q0 13 -3.5 25t-6.5 20.5t-11 18.5t-12 15.5t-15.5 15t-15 12t-17 12t-15.5 10.5h225l-401 -1016q-64 -188 -126.5 -259t-150.5 -71q-47 0 -86 29.5t-39 73.5l103 145h4q16 0 24.5 -12.5t14.5 -31.5t12 -26q10 -10 31 -10 q16 0 49 10q54 0 80 99q10 33 10 82q0 39 -10 69l-295 774q-31 56 -57.5 88.5t-61.5 55.5z" />
<glyph unicode="z" horiz-adv-x="956" d="M63 29l490 786h-154q-49 -5 -87 -19.5t-62 -30t-48 -47.5t-36 -54t-35 -68q-57 95 -57 162q0 70 57 127h703l10 -25l-492 -792h180h17q55 0 93 7.5t59.5 19t38.5 36t26 46.5t27 62.5t36 73.5q50 -44 50 -125q0 -53 -21.5 -106t-56.5 -82h-727z" />
<glyph unicode="{" horiz-adv-x="491" d="M18 512v51q96 0 130 30.5t34 98.5q0 42 -6 94l-18 181q-4 62 -4 94q0 54 9 96t32.5 80.5t69.5 59t114 20.5h59v-49q-84 -3 -114.5 -42.5t-30.5 -115.5q0 -22 4 -76l14 -149q11 -129 11 -135q0 -79 -35.5 -128t-132.5 -71v-27q97 -22 132.5 -70.5t35.5 -127.5 q0 -3 -11 -138l-14 -147q-4 -54 -4 -74q0 -76 30.5 -116t114.5 -44v-51h-59q-68 0 -114 21t-69.5 59.5t-32.5 80t-9 95.5q0 32 4 94l18 183q4 40 4 57q0 83 -38 124.5t-124 41.5z" />
<glyph unicode="|" horiz-adv-x="432" d="M135 -471v2212h162v-2212h-162z" />
<glyph unicode="}" horiz-adv-x="499" d="M53 -193q84 4 116 44.5t32 115.5q0 20 -4 74l-15 147q-10 123 -10 142q0 76 35.5 124t130.5 70v27q-95 22 -130.5 70t-35.5 124q0 18 10 140l15 149q4 54 4 76q0 75 -32 115t-116 43v49h60q68 0 114 -20.5t69.5 -59t32.5 -80.5t9 -96q0 -32 -4 -94l-17 -181 q-6 -56 -6 -96q0 -66 33.5 -96.5t128.5 -30.5v-51q-86 0 -123 -41.5t-37 -124.5q0 -17 4 -57l17 -183q4 -62 4 -94q0 -54 -9 -95.5t-32.5 -80t-69.5 -59.5t-114 -21h-60v51z" />
<glyph unicode="~" horiz-adv-x="987" d="M68 350q19 52 36.5 89.5t48 82.5t73.5 69.5t96 24.5q51 0 115.5 -29t128 -58t112.5 -29q46 0 80.5 32t72.5 113l74 -49q-20 -55 -40 -94.5t-50 -79t-71.5 -60t-92.5 -20.5q-48 0 -97 18t-84 39.5t-82.5 39.5t-92.5 18q-89 0 -150 -158z" />
<glyph unicode="&#xa1;" horiz-adv-x="501" d="M96 786q0 75 43 121.5t111 46.5q69 0 109.5 -46t43.5 -122q0 -75 -42 -122.5t-111 -47.5q-67 0 -110.5 48t-43.5 122zM106 -291q0 11 9 90l88 713h98l86 -713q6 -47 6 -84q0 -69 -30.5 -98t-112.5 -29q-81 0 -112.5 28t-31.5 93z" />
<glyph unicode="&#xa2;" horiz-adv-x="966" d="M70 645q0 241 115.5 363.5t326.5 130.5v151h72v-151q47 -1 99.5 -12.5t104.5 -33.5t85.5 -60.5t33.5 -86.5q0 -50 -36 -77t-78 -27q-46 0 -66 65q-61 147 -143 160v-803q89 0 161 40t129 145l46 -35q-24 -66 -65 -116t-88.5 -77.5t-93 -40.5t-89.5 -14v-193h-78v193h-4 q-97 0 -172.5 26.5t-123.5 70.5t-79.5 106.5t-44 130t-12.5 145.5zM305 700q0 -77 9.5 -143t31 -127.5t62.5 -103t98 -54.5v795q-201 -23 -201 -367z" />
<glyph unicode="&#xa3;" horiz-adv-x="970" d="M43 10l33 113q128 47 193 105.5t65 142.5q0 86 -62 186h-204v78h165q-81 185 -81 295q0 73 21 136.5t62.5 115t112 81t162.5 29.5q87 0 154 -23.5t102 -59t51.5 -70.5t16.5 -66q0 -48 -39 -77t-80 -29q-37 0 -58 51q-46 107 -83.5 157t-84.5 50q-55 0 -93 -52t-38 -129 q0 -82 56 -210q15 -33 48 -99.5t46 -99.5h246v-78h-226q2 -27 2 -86v-6q0 -67 -37.5 -132.5t-107.5 -109.5v-20h342q47 0 76.5 17t56.5 52l35 56l43 -19l-94 -309h-797z" />
<glyph unicode="&#xa4;" d="M100 231q0 34 31 62l90 84q-35 45 -54.5 115.5t-19.5 142.5t19.5 142.5t54.5 115.5l-90 84q-31 28 -31 61q0 35 31 66q23 29 51 29q32 0 49 -33l78 -101q39 39 101 60.5t122 21.5q61 0 124 -21.5t102 -60.5l76 101q16 33 49 33q28 0 51 -29q31 -31 31 -66q0 -33 -31 -61 l-88 -84q35 -45 54.5 -115.5t19.5 -142.5t-19.5 -142.5t-54.5 -115.5l88 -84q31 -28 31 -62t-31 -65q-23 -29 -49 -29q-35 0 -51 33l-76 100q-39 -39 -101.5 -59.5t-124.5 -20.5q-61 0 -122.5 20.5t-100.5 59.5l-78 -100q-17 -33 -51 -33q-26 0 -49 29q-31 31 -31 65z M291 635q0 -125 69 -210t172 -85q104 0 174 85t70 210t-70 210t-174 85q-103 0 -172 -85t-69 -210z" />
<glyph unicode="&#xa5;" horiz-adv-x="995" d="M31 1217v55h461v-60l-72 -6q-35 -7 -35 -43q0 -15 8 -28l164 -408h16q131 309 156 406q6 18 6 32q0 42 -51 45l-72 7v55h355v-55l-47 -5q-55 -8 -99 -88q-104 -227 -159 -374h221v-78h-250l-19 -47q-4 -27 -4 -138h273v-73h-273v-275q0 -76 49 -78l91 -8v-53h-502v53 l88 8q21 1 32 14.5t13 27t2 36.5v275h-270v73h270q0 107 -8 136l-25 49h-237v78h209l-170 383q-38 71 -84 79z" />
<glyph unicode="&#xa6;" horiz-adv-x="432" d="M135 324h162v-656h-162v656zM135 629v655h162v-655h-162z" />
<glyph unicode="&#xa7;" horiz-adv-x="946" d="M57 707q0 96 43.5 190.5t116.5 157.5q0 49 15 97t47.5 93t93 73t141.5 28q92 0 166 -46t74 -108q0 -41 -31 -69.5t-61 -28.5q-20 0 -32 11t-22 32q-47 78 -81 106.5t-78 28.5q-46 0 -74.5 -30.5t-28.5 -72.5q0 -20 2.5 -35.5t13.5 -40t30.5 -47t57.5 -53t91 -61.5 q194 -113 269 -214t75 -263q0 -181 -131 -357v-6q0 -137 -78 -223t-227 -86q-126 0 -209.5 51t-85.5 121q0 54 34.5 82.5t75.5 28.5q26 0 41 -11t27 -41q41 -92 85.5 -126.5t96.5 -34.5q40 0 72 30.5t32 81.5q0 24 -4.5 45t-20 51t-41.5 58.5t-73.5 65t-111.5 73.5 q-174 102 -242 206t-68 243zM154 817q0 -88 62.5 -167t215.5 -175q236 -138 301 -274q72 68 72 143q0 178 -270 336q-49 30 -78.5 49t-70 48.5t-66.5 54.5t-51 58.5t-40 67.5q-29 -19 -52 -58.5t-23 -82.5z" />
<glyph unicode="&#xa8;" horiz-adv-x="905" d="M117 1208q0 57 33 100.5t90 43.5q56 0 88 -43.5t32 -100.5q0 -58 -31.5 -99.5t-88.5 -41.5t-90 41.5t-33 99.5zM539 1208q0 57 33 100.5t90 43.5t89.5 -43.5t32.5 -100.5q0 -58 -32.5 -99.5t-89.5 -41.5t-90 41.5t-33 99.5z" />
<glyph unicode="&#xa9;" horiz-adv-x="1366" d="M72 657q0 187 81.5 346t222 251t306.5 92q165 0 305.5 -92t222.5 -251t82 -346t-82 -344.5t-222 -248.5t-306 -91t-306.5 91t-222 248.5t-81.5 344.5zM182 657q0 -163 67.5 -297.5t182 -211t250.5 -76.5q135 0 249.5 76.5t181.5 211t67 297.5t-67 298t-181.5 211.5 t-249.5 76.5t-250 -76.5t-182.5 -211.5t-67.5 -298zM367 662q0 79 20.5 145.5t61.5 119t110 82t158 29.5q150 0 221 -51v-188h-23q-58 196 -186 196q-64 0 -107.5 -44.5t-62 -114.5t-18.5 -162q0 -97 18.5 -170.5t63.5 -121.5t114 -48q36 0 67 17t54.5 50t40 64.5t33.5 75.5 h26l-20 -193q-75 -57 -223 -57q-182 0 -265 100.5t-83 270.5z" />
<glyph unicode="&#xaa;" horiz-adv-x="782" d="M104 674q0 97 109 141q138 52 236 86v76q0 47 -22 71.5t-54 24.5q-35 0 -64 -24.5t-57 -96.5q-14 -53 -39 -53q-33 0 -65.5 20.5t-32.5 57.5q0 60 74.5 102.5t199.5 42.5q60 0 103 -11t66 -27.5t36 -41.5t16.5 -46.5t3.5 -49.5v-262q0 -67 20.5 -92t74.5 -25h8l-2 -30 q-92 -33 -178 -33q-23 0 -42 11.5t-28.5 24t-22.5 33.5q-8 -4 -30.5 -18t-33.5 -20t-31 -15t-39 -12.5t-40 -3.5q-81 0 -123.5 50.5t-42.5 119.5zM281 700q0 -57 28 -84.5t62 -27.5q73 0 78 84v172q-24 -4 -40 -8t-43 -14.5t-43 -24.5t-29 -39.5t-13 -57.5z" />
<glyph unicode="&#xab;" horiz-adv-x="825" d="M49 477q0 14 17 31l290 375l33 -33l-135 -336q-6 -18 -6 -39q0 -18 6 -39l135 -336l-33 -30l-290 374q-17 17 -17 33zM397 477q0 14 17 31l291 375l32 -33l-135 -336q-6 -18 -6 -39q0 -18 6 -39l135 -336l-32 -30l-291 374q-17 17 -17 33z" />
<glyph unicode="&#xac;" horiz-adv-x="1003" d="M57 614v142h811v-576h-141v434h-670z" />
<glyph unicode="&#xad;" horiz-adv-x="712" d="M135 385v182h443v-182h-443z" />
<glyph unicode="&#xae;" horiz-adv-x="1366" d="M72 657q0 187 81.5 346t222 251t306.5 92q165 0 305.5 -92t222.5 -251t82 -346t-82 -344.5t-222 -248.5t-306 -91t-306.5 91t-222 248.5t-81.5 344.5zM182 657q0 -163 67.5 -297.5t182 -211t250.5 -76.5q135 0 249.5 76.5t181.5 211t67 297.5t-67 298t-181.5 211.5 t-249.5 76.5t-250 -76.5t-182.5 -211.5t-67.5 -298zM387 303v39l35 2q29 3 38 18.5t9 49.5v508q0 32 -9 47t-38 18l-35 4v35h344q211 0 211 -170q0 -70 -40.5 -118t-108.5 -62v-17q27 -8 46.5 -23t30 -27.5t20 -40.5t12 -40t9.5 -49q27 -98 56 -117q12 -12 37 -18v-39h-82 q-64 0 -93 19t-47 65q-11 29 -24.5 99.5t-14.5 74.5q-18 76 -86 76h-47v-225q0 -33 10 -49t37 -19l37 -2v-39h-307zM610 680h56q129 0 129 154q0 74 -34 110.5t-83 36.5q-42 0 -55 -10t-13 -39v-252z" />
<glyph unicode="&#xaf;" horiz-adv-x="786" d="M133 1116v166h520v-166h-520z" />
<glyph unicode="&#xb0;" horiz-adv-x="739" d="M96 989v4q0 127 80 214t193 87q114 0 193 -88t79 -217t-79 -217t-193 -88t-193.5 88t-79.5 217zM201 991q0 -93 49 -154t119 -61t120 61.5t50 153.5q0 90 -50.5 149.5t-121.5 59.5q-67 0 -116.5 -59t-49.5 -146v-4z" />
<glyph unicode="&#xb1;" horiz-adv-x="937" d="M63 0v137h811v-137h-811zM63 575v140h336v329h144v-329h331v-140h-331v-327h-144v327h-336z" />
<glyph unicode="&#xb2;" horiz-adv-x="749" d="M78 532q4 78 59.5 152t155.5 156q149 126 149 272q0 57 -20.5 94t-56.5 37q-34 0 -58 -39.5t-45 -122.5q-11 -61 -57 -61q-36 0 -68.5 23.5t-32.5 68.5q0 72 74.5 127t188.5 55q122 0 193 -55.5t71 -165.5q0 -48 -15 -87t-44 -67t-57.5 -46t-68.5 -37q-173 -81 -206 -174 h311q33 0 50.5 10.5t39.5 48.5l29 -12l-52 -193h-528z" />
<glyph unicode="&#xb3;" horiz-adv-x="749" d="M84 659q0 43 31.5 75t64.5 32q45 0 58 -57q54 -154 118 -154q47 0 74 45.5t27 128.5q0 168 -113 168q-21 0 -61.5 -12.5t-51.5 -12.5q-22 0 -22 50q0 51 22 51q11 0 52 -12.5t61 -12.5q88 0 88 164q0 56 -20 92.5t-60 36.5q-55 0 -98 -137q-12 -51 -55 -51 q-34 0 -64 21.5t-33 60.5q2 67 72.5 113t192.5 46q48 0 91 -9.5t81 -30.5t60 -59.5t22 -90.5q0 -69 -44 -110.5t-106 -55.5v-18q77 -11 128.5 -63.5t51.5 -131.5q0 -46 -14.5 -83.5t-47.5 -69.5t-94.5 -50t-146.5 -18q-64 0 -122.5 16.5t-100 53t-41.5 85.5z" />
<glyph unicode="&#xb4;" horiz-adv-x="559" d="M33 1022l258 289q42 55 68.5 76.5t50.5 21.5q26 0 52.5 -38.5t26.5 -72.5q0 -32 -29.5 -59.5t-84.5 -62.5l-316 -203z" />
<glyph unicode="&#xb5;" d="M49 856l334 51v-573q0 -219 160 -219q59 0 97.5 28t51.5 70q13 47 13 111v360q0 33 -26 73t-75 99l334 51v-745q0 -59 19 -74t94 -20l-297 -62l-49 109q-9 -5 -71 -48.5t-107 -63t-91 -19.5q-45 0 -83.5 16t-59.5 41h-25v-59q0 -86 49 -195q45 -80 45 -111l-169 -137 q-19 0 -29 18t-10 68v1059q0 22 -18 54.5t-35 54t-52 63.5z" />
<glyph unicode="&#xb6;" horiz-adv-x="907" d="M53 889q0 195 103 311.5t288 116.5v-858q-180 0 -285.5 117t-105.5 313zM408 -147l129 22q30 4 39.5 29.5t9.5 77.5v1335h291v-45l-105 -19q-30 -4 -37.5 -21t-7.5 -69v-1353h-319v43z" />
<glyph unicode="&#xb7;" horiz-adv-x="581" d="M115 473q0 77 47.5 127.5t122.5 50.5q76 0 123 -50.5t47 -127.5q-3 -79 -48.5 -127.5t-121.5 -48.5q-75 0 -122.5 49t-47.5 127z" />
<glyph unicode="&#xb8;" horiz-adv-x="479" d="M49 -418q176 0 176 123q0 31 -14 54t-35.5 35t-41 17.5t-36.5 6.5v8l95 174h83l-71 -111q20 -3 40 -8.5t46 -18t45.5 -29.5t33 -45.5t13.5 -63.5q0 -48 -19.5 -84.5t-47 -56t-65.5 -31.5t-67 -15.5t-59 -3.5q-47 0 -76 2v47z" />
<glyph unicode="&#xb9;" horiz-adv-x="538" d="M61 516v41l56 4q37 5 52 22t15 60v485q0 40 -13.5 56.5t-43.5 21.5l-64 6v41l295 41l4 -8v-643q0 -43 14 -60t50 -22l57 -4v-41h-422z" />
<glyph unicode="&#xba;" horiz-adv-x="821" d="M100 815q0 142 75 224.5t237 82.5q161 0 235 -82.5t74 -224.5q0 -145 -74 -228t-235 -83q-162 0 -237 83t-75 228zM289 815q0 -124 31.5 -194t91.5 -70q59 0 88.5 69.5t29.5 194.5q0 121 -30 189.5t-88 68.5q-60 0 -91.5 -69t-31.5 -189z" />
<glyph unicode="&#xbb;" horiz-adv-x="831" d="M88 100l137 336q6 21 6 39q0 21 -6 39l-137 336l33 33l293 -375q16 -16 16 -31q0 -17 -16 -33l-293 -374zM438 100l135 336q7 24 7 39q0 18 -7 39l-135 336l31 33l293 -375q16 -16 16 -31q0 -17 -16 -33l-293 -374z" />
<glyph unicode="&#xbc;" horiz-adv-x="1296" d="M25 522v39l57 4q35 5 48 22t13 60v481q0 41 -12 57t-43 21l-59 6v39l282 41l4 -8v-637q0 -43 14 -60t50 -22l55 -4v-39h-409zM319 -2l599 1325l69 -47l-598 -1327zM684 219q173 318 324 537h141v-500h117v-80h-117v-70q0 -38 11.5 -53t39.5 -18h35v-37h-356v37l53 2 q24 3 35.5 17.5t11.5 51.5v70h-279zM774 256h205v342h-25q-66 -108 -180 -342z" />
<glyph unicode="&#xbd;" horiz-adv-x="1409" d="M35 522v39l55 4q36 5 50 22t14 60v481q0 41 -12.5 57t-43.5 21l-59 6v39l283 41l4 -8v-637q0 -43 13.5 -60t49.5 -22l55 -4v-39h-409zM322 -2l596 1325l71 -49l-598 -1325zM793 12q4 77 58.5 150.5t152.5 152.5q143 127 143 271q0 57 -20 93t-54 36q-35 0 -57.5 -38 t-42.5 -122q-6 -31 -19.5 -45t-38.5 -14q-34 0 -65 23.5t-31 66.5q0 73 71 127.5t185 54.5q118 0 187 -55t69 -166q0 -48 -14.5 -86t-43 -66t-55.5 -46t-67 -38q-169 -79 -199 -172h299q31 0 49 11t39 49l29 -13l-49 -188h-514z" />
<glyph unicode="&#xbe;" horiz-adv-x="1415" d="M41 666q0 43 30 74.5t62 31.5q40 0 53 -57q53 -152 115 -152q45 0 72.5 45t27.5 125q0 168 -110 168q-21 0 -60.5 -12t-50.5 -12q-22 0 -22 49t22 49q11 0 51 -11.5t60 -11.5q29 0 48 16.5t26 47t8.5 50t1.5 48.5q0 56 -18.5 91.5t-57.5 35.5q-58 0 -94 -135 q-12 -51 -55 -51q-31 0 -60.5 21t-30.5 59q0 66 67 111.5t185 45.5q47 0 88.5 -9.5t78 -29.5t58 -58t21.5 -89q0 -69 -42 -109.5t-103 -54.5v-18q74 -11 125 -63.5t51 -129.5q0 -96 -68.5 -157.5t-224.5 -61.5q-62 0 -118.5 16.5t-96 53t-39.5 84.5zM428 -2l598 1325l72 -49 l-600 -1325zM801 219q176 324 323 537h142v-500h118v-80h-118v-70q0 -38 11.5 -53t39.5 -18h35v-37h-357v37l54 2q24 3 35.5 17.5t11.5 51.5v70h-281zM891 256h205v342h-25q-59 -93 -180 -342z" />
<glyph unicode="&#xbf;" horiz-adv-x="780" d="M51 -137q0 43 16 80t48 67t53.5 45.5t58.5 38.5q68 37 103 84t35 92q0 49 -34.5 82t-92.5 33q-46 0 -74 -12l-10 39q124 88 247 88q96 0 161 -51t65 -146q0 -102 -142 -197q-174 -115 -174 -290q0 -72 23.5 -116t64.5 -44t73 50t60 171q12 64 76 64q46 0 89.5 -33 t43.5 -88q0 -37 -22 -76t-63 -74.5t-110 -58.5t-153 -23q-154 0 -248 70t-94 205zM242 786q0 75 40 121.5t105 46.5t104 -46t41 -122q0 -74 -40 -122t-105 -48q-64 0 -104.5 48t-40.5 122z" />
<glyph unicode="&#xc0;" horiz-adv-x="1048" d="M16 0q15 15 33 59q43 118 195 615l194 641h195l364 -1262q11 -36 31 -53h-280v47l-125 428h-353q-97 -325 -120 -430q-9 -30 0 -45h-134zM238 1610q0 30 23 70t52 40q23 0 43.5 -11t57.5 -44l288 -229l-12 -50l-338 123q-64 23 -89 43.5t-25 57.5zM295 553h303l-137 512 h-25z" />
<glyph unicode="&#xc1;" horiz-adv-x="1048" d="M16 0q15 15 33 59q43 118 195 615l194 641h195l364 -1262q11 -36 31 -53h-280v47l-125 428h-353q-97 -325 -120 -430q-9 -30 0 -45h-134zM295 553h303l-137 512h-25zM362 1436l289 229q39 33 59 44t42 11q31 0 54 -40t23 -70q0 -37 -25 -57.5t-91 -43.5l-338 -123z" />
<glyph unicode="&#xc2;" horiz-adv-x="1048" d="M16 0q15 15 33 59q43 118 195 615l194 641h195l364 -1262q11 -36 31 -53h-280v47l-125 428h-353q-97 -325 -120 -430q-9 -30 0 -45h-134zM229 1444l240 235q40 43 66 43q33 0 69 -41l242 -237l-21 -45l-213 112q-65 31 -77 31q-4 0 -74 -31l-209 -112zM295 553h303 l-137 512h-25z" />
<glyph unicode="&#xc3;" horiz-adv-x="1040" d="M16 0q15 15 33 59q22 65 84.5 297.5t87.5 317.5l205 643h197l366 -1264q11 -36 31 -53h-281v47l-127 428h-354q-51 -168 -108 -430q-9 -30 0 -45h-134zM178 1423q76 219 215 219q47 0 158.5 -39.5t157.5 -39.5q47 0 73.5 22.5t59.5 81.5l35 -29q-11 -31 -21 -53.5 t-30.5 -56.5t-42 -55.5t-54.5 -37.5t-70 -16q-36 0 -145 41q-111 39 -168 39q-45 0 -70.5 -22.5t-54.5 -81.5zM283 553h303l-135 512h-27z" />
<glyph unicode="&#xc4;" horiz-adv-x="1048" d="M16 0q15 15 33 59q43 118 195 615l194 643h195l364 -1264q11 -36 31 -53h-280v47l-125 428h-353q-93 -306 -120 -430q-9 -30 0 -45h-134zM195 1542q0 55 31.5 95t86.5 40q57 0 89 -40t32 -95q0 -53 -32 -92t-89 -39q-55 0 -86.5 39t-31.5 92zM295 553h303l-137 512h-25z M627 1542q0 55 32.5 95t88.5 40q57 0 88.5 -40t31.5 -95q0 -54 -31.5 -92.5t-88.5 -38.5q-56 0 -88.5 39t-32.5 92z" />
<glyph unicode="&#xc5;" horiz-adv-x="1044" d="M14 0q15 15 33 59q56 155 197 615l184 606q-84 54 -84 176q0 104 55 153.5t133 49.5t133.5 -49.5t55.5 -153.5q0 -118 -80 -174l352 -1229q11 -36 31 -53h-281v47l-120 428h-353q-103 -340 -123 -430q-9 -30 0 -45h-133zM295 553h303l-137 514h-25zM428 1456 q0 -69 28.5 -106t75.5 -37q44 0 74.5 38t30.5 105q0 69 -30.5 107.5t-74.5 38.5q-47 0 -75.5 -38t-28.5 -108z" />
<glyph unicode="&#xc7;" horiz-adv-x="1183" d="M84 649q0 323 143 498q154 199 494 199q88 0 189.5 -17t166.5 -61v-142q-17 -26 -57 -30h-10q-35 0 -47 30q-89 152 -256 152q-67 0 -122 -26t-90.5 -67t-62.5 -98t-41 -111t-22.5 -115.5t-10.5 -101.5t-2 -79q0 -53 3 -105t13 -117.5t26 -121.5t44.5 -111.5t65 -94.5 t91 -63t120.5 -24q167 0 256 162q20 35 51 35q9 0 21 -4q33 -8 47 -31l-9 -142q-120 -80 -356 -88l-53 -90q25 -4 48 -12t53 -24.5t48.5 -47.5t18.5 -73q0 -49 -19 -86t-46.5 -57t-65 -32.5t-66 -16t-57.5 -3.5q-47 0 -74 2v49q172 0 172 125q0 37 -23 62t-48 33.5t-48 9.5 v8l80 153q-288 20 -426.5 195.5t-138.5 478.5z" />
<glyph unicode="&#xc8;" horiz-adv-x="1030" d="M41 0q75 36 106 71t31 111v955q0 33 -10 59.5t-33.5 49.5t-41 36t-52.5 35h901v-178q-21 -41 -51 -41q-29 0 -49 41q-31 58 -79 82t-136 24h-129q-46 0 -61 -15.5t-15 -64.5v-434h178q79 0 105 35q32 -32 32 -72q0 -36 -32 -76q-34 31 -105 31h-178v-426 q0 -94 47.5 -122.5t179.5 -28.5q95 0 149 29.5t85 93.5q25 41 53 41h4q26 0 47 -41l-10 -195h-936zM213 1610q0 30 23 70t53 40q22 0 43 -11.5t59 -43.5l287 -229l-12 -50l-338 123q-66 23 -90.5 43.5t-24.5 57.5z" />
<glyph unicode="&#xc9;" horiz-adv-x="1030" d="M41 0q75 36 106 71t31 111v955q0 33 -10 59.5t-33.5 49.5t-41 36t-52.5 35h901v-178q-21 -41 -51 -41q-29 0 -49 41q-31 58 -79 82t-136 24h-129q-46 0 -61 -15.5t-15 -64.5v-434h178q79 0 105 35q32 -32 32 -72q0 -36 -32 -76q-34 31 -105 31h-178v-426 q0 -94 47.5 -122.5t179.5 -28.5q95 0 149 29.5t85 93.5q25 41 53 41h4q26 0 47 -41l-10 -195h-936zM391 1436l289 229q37 32 57.5 43.5t42.5 11.5q30 0 53 -40t23 -70q0 -37 -24.5 -57.5t-90.5 -43.5l-338 -123z" />
<glyph unicode="&#xca;" horiz-adv-x="1030" d="M41 0q75 36 106 71t31 111v955q0 33 -10 59.5t-33.5 49.5t-41 36t-52.5 35h901v-178q-21 -41 -51 -41q-29 0 -49 41q-31 58 -79 82t-136 24h-129q-46 0 -61 -15.5t-15 -64.5v-434h178q79 0 105 35q32 -32 32 -72q0 -36 -32 -76q-34 31 -105 31h-178v-426 q0 -94 47.5 -122.5t179.5 -28.5q95 0 149 29.5t85 93.5q25 41 53 41h4q26 0 47 -41l-10 -195h-936zM246 1444l241 235q37 43 66 43q32 0 68 -41l241 -237l-18 -45l-215 112q-65 31 -76 31q-9 0 -74 -31l-211 -112z" />
<glyph unicode="&#xcb;" horiz-adv-x="1030" d="M41 0q75 36 106 71t31 111v955q0 33 -10 59.5t-33.5 49.5t-41 36t-52.5 35h901v-178q-21 -41 -51 -41q-29 0 -49 41q-31 58 -79 82t-136 24h-129q-46 0 -61 -15.5t-15 -64.5v-434h178q79 0 105 35q32 -32 32 -72q0 -36 -32 -76q-34 31 -105 31h-178v-426 q0 -94 47.5 -122.5t179.5 -28.5q95 0 149 29.5t85 93.5q25 41 53 41h4q26 0 47 -41l-10 -195h-936zM203 1542q0 55 32 95t87 40q57 0 88.5 -40t31.5 -95q0 -54 -31.5 -92.5t-88.5 -38.5q-55 0 -87 39t-32 92zM637 1542q0 55 32 95t89 40q55 0 85.5 -40t30.5 -95 q0 -54 -30.5 -92.5t-85.5 -38.5q-57 0 -89 39t-32 92z" />
<glyph unicode="&#xcc;" horiz-adv-x="538" d="M-37 1610q0 30 24 70t56 40q23 0 44.5 -11.5t59.5 -43.5l302 -229l-15 -50l-350 123q-69 23 -95 43.5t-26 57.5zM117 1321h315q-21 -10 -27 -30.5t-6 -63.5v-1149q0 -62 21 -78h-291q18 18 18 78v1149q0 46 -5 65t-25 29z" />
<glyph unicode="&#xcd;" horiz-adv-x="538" d="M88 1436l301 229q36 32 58.5 43.5t46.5 11.5q31 0 54 -40t23 -70q0 -37 -25.5 -57.5t-92.5 -43.5l-351 -123zM109 1321h315q-21 -10 -27 -30.5t-6 -63.5v-1149q0 -62 21 -78h-291q18 18 18 78v1149q0 46 -5 65t-25 29z" />
<glyph unicode="&#xce;" horiz-adv-x="538" d="M-45 1444l246 235q40 43 67 43q34 0 70 -41l246 -237l-19 -45l-219 112q-65 31 -78 31q-5 0 -75 -31l-218 -112zM115 1321h311q-21 -10 -27 -30.5t-6 -63.5v-1149q0 -62 21 -78h-287q18 18 18 78v1149q0 46 -5 65t-25 29z" />
<glyph unicode="&#xcf;" horiz-adv-x="540" d="M-72 1542q0 55 32 95t89 40q58 0 90.5 -40t32.5 -95q0 -54 -32.5 -92.5t-90.5 -38.5q-57 0 -89 39t-32 92zM117 1323h309q-21 -11 -27 -32t-6 -64v-1149q0 -62 21 -78h-285q18 18 18 78v1149q0 46 -5 65.5t-25 30.5zM369 1542q0 55 33 95t90 40q58 0 90 -40t32 -95 q0 -54 -32 -92.5t-90 -38.5q-57 0 -90 39t-33 92z" />
<glyph unicode="&#xd0;" horiz-adv-x="1327" d="M59 657v74h144v406q-1 68 -34.5 111t-98.5 69h571q162 -1 271.5 -41.5t183.5 -124.5q145 -160 145 -479q0 -103 -15 -189.5t-40 -150.5t-63 -115.5t-78 -85.5t-92 -59t-97 -38.5t-101.5 -21.5t-97.5 -10t-92 -2h-495q39 22 54.5 32t38 32t31 49.5t9.5 66.5v477h-144z M451 166q0 -55 30 -75.5t119 -20.5q59 0 107 12.5t98.5 51t85 102t56.5 174t22 258.5q0 283 -92.5 430t-272.5 147q-90 0 -121.5 -12.5t-31.5 -52.5v-449h243v-74h-243v-491z" />
<glyph unicode="&#xd1;" horiz-adv-x="1206" d="M31 1319h385l542 -920h29v529q0 196 -6 301q-6 74 -43 90h176q-35 -20 -41 -90q-8 -91 -8 -301v-928h-166l-625 1073h-30v-698q0 -125 4.5 -188.5t19.5 -114.5q0 -49 13 -72h-146q19 19 25 72q8 91 8 303v762v4q0 22 -3 40t-12.5 33.5t-15.5 25.5t-23.5 23.5t-24 18 t-30 19.5t-28.5 18zM268 1423q13 32 23 54t31.5 56t44 55.5t58 37.5t75.5 16q47 0 158 -39.5t157 -39.5q47 0 74.5 23t58.5 81l35 -29q-12 -31 -21.5 -53.5t-29.5 -56.5t-41.5 -55.5t-54.5 -37.5t-70 -16q-36 0 -145 41q-107 39 -168 39q-48 0 -76 -23t-60 -81z" />
<glyph unicode="&#xd2;" horiz-adv-x="1316" d="M86 655q0 328 143.5 507t427.5 179q285 0 428.5 -179t143.5 -507t-143.5 -505t-428.5 -177q-284 0 -427.5 177t-143.5 505zM356 1608q0 31 23 71.5t53 40.5q21 0 41 -11t59 -44l289 -231l-14 -50l-338 125q-64 23 -88.5 43t-24.5 56zM358 655q1 -65 4 -118.5t11 -119.5 t21 -117.5t36 -102.5t53 -84.5t74.5 -54.5t99.5 -21q54 0 98.5 21t75 54.5t53.5 84.5t36.5 102.5t22 117t11.5 120t4 118.5q-1 61 -4 113.5t-11.5 117.5t-22 117.5t-36.5 104t-53.5 86.5t-75 56.5t-98.5 21.5q-55 0 -99.5 -21.5t-74.5 -56.5t-53 -87t-36 -103.5t-21 -117.5 t-11 -117.5t-4 -113.5z" />
<glyph unicode="&#xd3;" horiz-adv-x="1316" d="M86 655q0 328 143.5 507t427.5 179q285 0 428.5 -179t143.5 -507t-143.5 -505t-428.5 -177q-284 0 -427.5 177t-143.5 505zM358 655q1 -65 4 -118.5t11 -119.5t21 -117.5t36 -102.5t53 -84.5t74.5 -54.5t99.5 -21q54 0 98.5 21t75 54.5t53.5 84.5t36.5 102.5t22 117 t11.5 120t4 118.5q-1 61 -4 113.5t-11.5 117.5t-22 117.5t-36.5 104t-53.5 86.5t-75 56.5t-98.5 21.5q-55 0 -99.5 -21.5t-74.5 -56.5t-53 -87t-36 -103.5t-21 -117.5t-11 -117.5t-4 -113.5zM489 1434l291 231q35 32 56 43.5t43 11.5q30 0 53.5 -41t23.5 -71q0 -36 -25 -56 t-91 -43l-336 -125z" />
<glyph unicode="&#xd4;" horiz-adv-x="1316" d="M86 655q0 328 143.5 507t427.5 179q285 0 428.5 -179t143.5 -507t-143.5 -505t-428.5 -177q-284 0 -427.5 177t-143.5 505zM350 1442l240 237q40 43 65 43q36 0 68 -41l240 -239l-17 -45l-215 114q-65 31 -76 31q-9 0 -20.5 -4.5t-27.5 -13.5t-25 -13l-213 -114zM358 655 q1 -65 4 -118.5t11 -119.5t21 -117.5t36 -102.5t53 -84.5t74.5 -54.5t99.5 -21q54 0 98.5 21t75 54.5t53.5 84.5t36.5 102.5t22 117t11.5 120t4 118.5q-1 61 -4 113.5t-11.5 117.5t-22 117.5t-36.5 104t-53.5 86.5t-75 56.5t-98.5 21.5q-55 0 -99.5 -21.5t-74.5 -56.5 t-53 -87t-36 -103.5t-21 -117.5t-11 -117.5t-4 -113.5z" />
<glyph unicode="&#xd5;" horiz-adv-x="1316" d="M86 655q0 328 143.5 507t427.5 179q285 0 428.5 -179t143.5 -507t-143.5 -505t-428.5 -177q-284 0 -427.5 177t-143.5 505zM307 1421q12 32 21.5 54.5t29 57t41 56t54.5 37.5t71 16q46 0 157.5 -40.5t156.5 -40.5q48 0 75 23t58 83l35 -29q-11 -31 -21 -54.5t-30 -57 t-41 -55.5t-53.5 -38t-69.5 -16q-30 0 -148 43q-107 39 -168 39q-48 0 -75 -23t-58 -83zM358 655q1 -65 4 -118.5t11 -119.5t21 -117.5t36 -102.5t53 -84.5t74.5 -54.5t99.5 -21q54 0 98.5 21t75 54.5t53.5 84.5t36.5 102.5t22 117t11.5 120t4 118.5q-1 61 -4 113.5 t-11.5 118t-22 118t-36.5 104.5t-53.5 87t-75 56.5t-98.5 21.5q-55 0 -99.5 -22t-74.5 -56.5t-53 -87t-36 -104.5t-21 -117.5t-11 -117.5t-4 -114z" />
<glyph unicode="&#xd6;" horiz-adv-x="1316" d="M86 655q0 328 143.5 507t427.5 179q285 0 428.5 -179t143.5 -507t-143.5 -505t-428.5 -177q-284 0 -427.5 177t-143.5 505zM319 1542q0 54 33.5 94.5t87.5 40.5q57 0 88 -40t31 -95q0 -54 -31 -93.5t-88 -39.5q-54 0 -87.5 40t-33.5 93zM358 655q1 -65 4 -118.5 t11 -119.5t21 -117.5t36 -102.5t53 -84.5t74.5 -54.5t99.5 -21q54 0 98.5 21t75 54.5t53.5 84.5t36.5 102.5t22 117t11.5 120t4 118.5q-1 61 -4 113.5t-11.5 118t-22 118t-36.5 104.5t-53.5 87t-75 56.5t-98.5 21.5q-55 0 -99.5 -22t-74.5 -56.5t-53 -87t-36 -104.5 t-21 -117.5t-11 -117.5t-4 -114zM754 1542q0 55 31.5 95t88.5 40t88 -40t31 -95q0 -54 -31 -93.5t-88 -39.5t-88.5 39.5t-31.5 93.5z" />
<glyph unicode="&#xd7;" horiz-adv-x="888" d="M68 145l286 324l-286 324l84 112l292 -327l289 327l86 -112l-287 -324l287 -324l-86 -108l-289 323l-292 -323z" />
<glyph unicode="&#xd8;" horiz-adv-x="1316" d="M86 657q0 329 143.5 509t427.5 180q155 0 271 -52l61 127l60 -41l-62 -123q242 -166 242 -600q0 -327 -143.5 -504.5t-428.5 -177.5q-160 0 -276 52l-70 -142l-53 54l61 124q-233 170 -233 594zM358 657q4 -251 54 -383l450 879q-73 123 -205 123q-55 0 -99.5 -21.5 t-74.5 -56.5t-53 -87t-36 -104t-21 -118t-11 -118t-4 -114zM449 166q75 -127 208 -127q54 0 98.5 21t75 55t53.5 85t36.5 102.5t22 117t11.5 119.5t4 118q-4 238 -61 392z" />
<glyph unicode="&#xd9;" horiz-adv-x="1216" d="M100 1321h301q-19 -11 -24.5 -32t-5.5 -64v-830q0 -358 237 -358q125 0 181.5 91.5t56.5 266.5v830q0 77 -27 96h301q-19 -11 -24.5 -32t-5.5 -64v-803q-3 -237 -122.5 -343t-359.5 -106q-253 0 -366 104t-113 345v803q0 78 -29 96zM285 1608q0 30 23.5 71t53.5 41 q22 0 43.5 -11.5t57.5 -43.5l289 -231l-15 -50l-336 125q-66 23 -91 43t-25 56z" />
<glyph unicode="&#xda;" horiz-adv-x="1216" d="M100 1321h301q-19 -11 -24.5 -32t-5.5 -64v-830q0 -358 237 -358q125 0 181.5 91.5t56.5 266.5v830q0 77 -27 96h301q-19 -11 -24.5 -32t-5.5 -64v-803q-3 -237 -122.5 -343t-359.5 -106q-253 0 -366 104t-113 345v803q0 78 -29 96zM465 1434l289 231q38 32 59 43.5 t41 11.5q32 0 55 -40.5t23 -71.5q0 -36 -25 -56t-90 -43l-338 -125z" />
<glyph unicode="&#xdb;" horiz-adv-x="1216" d="M100 1321h301q-19 -11 -24.5 -32t-5.5 -64v-830q0 -358 237 -358q125 0 181.5 91.5t56.5 266.5v830q0 77 -27 96h301q-19 -11 -24.5 -32t-5.5 -64v-803q-3 -237 -122.5 -343t-359.5 -106q-253 0 -366 104t-113 345v803q0 78 -29 96zM301 1442l240 237q40 43 67 43 q32 0 68 -41l242 -239l-19 -45l-215 114q-65 31 -76 31q-6 0 -76 -31l-210 -114z" />
<glyph unicode="&#xdc;" horiz-adv-x="1216" d="M100 1321h301q-19 -11 -24.5 -31.5t-5.5 -64.5v-830q0 -358 237 -358q125 0 181.5 91.5t56.5 266.5v830q0 77 -27 96h301q-19 -11 -24.5 -31.5t-5.5 -64.5v-801q-3 -239 -122.5 -345t-359.5 -106q-253 0 -366 104.5t-113 346.5v801q0 78 -29 96zM270 1542q0 55 32.5 95 t88.5 40q57 0 89 -40t32 -95q0 -54 -32 -93.5t-89 -39.5q-56 0 -88.5 40t-32.5 93zM707 1542q0 55 31.5 95t88.5 40t88 -40t31 -95q0 -54 -31 -93.5t-88 -39.5t-88.5 39.5t-31.5 93.5z" />
<glyph unicode="&#xdd;" horiz-adv-x="1038" d="M-12 1321h360q-31 -15 -31 -39q0 -10 9 -22l262 -615h20q175 418 242 602q10 30 10 43q0 22 -18 31h194q-24 -10 -39.5 -26.5t-38.5 -53.5q-46 -92 -150 -332t-128 -293q-33 -78 -33 -141v-397q0 -62 21 -78h-285q20 18 20 78v379q0 57 -55 135l-276 643q-33 61 -84 86z M397 1436l291 229q35 32 56 43.5t44 11.5q29 0 52.5 -40t23.5 -70q0 -37 -25 -57.5t-91 -43.5l-336 -123z" />
<glyph unicode="&#xde;" d="M29 1317h381v-281h161q212 0 326.5 -80t114.5 -264q0 -66 -17.5 -119t-46 -89.5t-71 -63t-85.5 -42t-98 -24.5t-100.5 -11.5t-99.5 -2.5h-84v-262q0 -60 18 -78h-283q19 19 19 78v1059q-3 76 -36.5 113t-98.5 67zM410 489q0 -46 25.5 -61.5t88.5 -15.5q122 0 177 76 t55 204q0 144 -63 210.5t-158 66.5q-79 0 -102 -17.5t-23 -66.5v-396z" />
<glyph unicode="&#xdf;" horiz-adv-x="1134" d="M135 -2v1036q0 104 18 180t66 132q48 64 135.5 101.5t198.5 37.5q97 0 171.5 -25.5t115.5 -62.5t67.5 -85.5t34.5 -87t8 -75.5q0 -50 -13.5 -129.5t-33.5 -104.5q-87 -9 -134.5 -54t-47.5 -111q0 -87 139 -197q43 -31 69 -53t62 -61.5t54 -86t18 -100.5q0 -130 -79 -201 t-224 -71q-97 0 -157 30t-60 80l82 86q17 0 32 -33q72 -104 129 -104q37 0 64 25.5t27 78.5q0 58 -43 111t-144 121q-174 120 -174 278q0 83 46.5 151t123.5 89q24 32 38.5 120.5t14.5 139.5q0 101 -53.5 185.5t-130.5 84.5h-4q-30 0 -54 -5t-42.5 -12.5t-32.5 -23.5 t-23.5 -30.5t-16 -40.5t-10 -46.5t-5 -57t-2 -63t-0.5 -71.5v-1075h-230z" />
<glyph unicode="&#xe0;" horiz-adv-x="983" d="M88 236q0 78 40 130.5t134 88.5q19 7 70 25.5t78.5 29t66.5 26.5t66 30.5t45 27.5v102q0 79 -33 113.5t-82 34.5q-47 0 -88.5 -40.5t-77.5 -152.5q-18 -69 -57 -69q-24 0 -54.5 10.5t-57.5 36.5t-27 61q0 89 108.5 153t286.5 64q84 0 143.5 -16t91 -39t49 -60t21.5 -65.5 t4 -69.5v-426q0 -134 68 -149h69l-237 -102q-55 0 -82.5 26.5t-44.5 77.5q-4 -2 -26.5 -18t-31 -21t-31 -18.5t-37.5 -19t-37 -13.5t-44.5 -11t-46.5 -3q-117 0 -181.5 74t-64.5 182zM293 1356q0 34 26 72t52 38q24 0 49 -20.5t72 -77.5l256 -289l-25 -49l-317 203 q-54 33 -83.5 62t-29.5 61zM324 266q0 -75 42 -120.5t103 -45.5q47 0 81.5 31.5t37.5 106.5v276q-7 -3 -49 -20t-71.5 -30.5t-55.5 -27.5q-46 -27 -67 -65t-21 -105z" />
<glyph unicode="&#xe1;" horiz-adv-x="983" d="M88 236q0 78 40 130.5t134 88.5q19 7 70 25.5t78.5 29t66.5 26.5t66 30.5t45 27.5v102q0 79 -33 113.5t-82 34.5q-47 0 -88.5 -40.5t-77.5 -152.5q-18 -69 -57 -69q-24 0 -54.5 10.5t-57.5 36.5t-27 61q0 89 108.5 153t286.5 64q84 0 143.5 -16t91 -39t49 -60t21.5 -65.5 t4 -69.5v-426q0 -134 68 -149h69l-237 -102q-55 0 -82.5 26.5t-44.5 77.5q-4 -2 -26.5 -18t-31 -21t-31 -18.5t-37.5 -19t-37 -13.5t-44.5 -11t-46.5 -3q-117 0 -181.5 74t-64.5 182zM291 1079l258 289q75 98 119 98q27 0 54.5 -38t27.5 -72q0 -22 -19 -45.5t-39 -38.5 t-57 -39l-316 -203zM324 266q0 -75 42 -120.5t103 -45.5q47 0 81.5 31.5t37.5 106.5v276q-7 -3 -49 -20t-71.5 -30.5t-55.5 -27.5q-46 -27 -67 -65t-21 -105z" />
<glyph unicode="&#xe2;" horiz-adv-x="983" d="M88 236q0 78 40 130.5t134 88.5q19 7 70 25.5t78.5 29t66.5 26.5t66 30.5t45 27.5v102q0 79 -33 113.5t-82 34.5q-47 0 -88.5 -40.5t-77.5 -152.5q-18 -69 -57 -69q-24 0 -54.5 10.5t-57.5 36.5t-27 61q0 89 108.5 153t286.5 64q84 0 143.5 -16t91 -39t49 -60t21.5 -65.5 t4 -69.5v-426q0 -134 68 -149h69l-237 -102q-55 0 -82.5 26.5t-44.5 77.5q-4 -2 -26.5 -18t-31 -21t-31 -18.5t-37.5 -19t-37 -13.5t-44.5 -11t-46.5 -3q-117 0 -181.5 74t-64.5 182zM209 1073l246 332q33 57 65 57q23 0 66 -57l245 -332l-24 -43l-209 189q-55 38 -78 38 t-78 -38l-209 -189zM324 266q0 -75 42 -120.5t103 -45.5q47 0 81.5 31.5t37.5 106.5v276q-7 -3 -49 -20t-71.5 -30.5t-55.5 -27.5q-46 -27 -67 -65t-21 -105z" />
<glyph unicode="&#xe3;" horiz-adv-x="983" d="M88 236q0 78 40 130.5t134 88.5q19 7 70 25.5t78.5 29t66.5 26.5t66 30.5t45 27.5v102q0 79 -33 113.5t-82 34.5q-47 0 -88.5 -40.5t-77.5 -152.5q-18 -69 -57 -69q-24 0 -54.5 10.5t-57.5 36.5t-27 61q0 89 108.5 153t286.5 64q84 0 143.5 -16t91 -39t49 -60t21.5 -65.5 t4 -69.5v-426q0 -134 68 -149h69l-237 -102q-55 0 -82.5 26.5t-44.5 77.5q-4 -2 -26.5 -18t-31 -21t-31 -18.5t-37.5 -19t-37 -13.5t-44.5 -11t-46.5 -3q-117 0 -181.5 74t-64.5 182zM164 1061q13 33 16 40.5t18.5 41t24.5 46.5t28.5 38.5t37 36.5t43 20.5t53.5 9.5 q68 0 152 -43q131 -43 168 -43q49 0 75 24t60 89l37 -31q-12 -31 -16 -40.5t-18.5 -41.5t-24.5 -46t-29 -38.5t-37 -36t-43.5 -21t-53.5 -9.5q-33 0 -147 43q-98 43 -172 43q-50 0 -76 -24t-59 -89zM324 266q0 -75 42 -120.5t103 -45.5q47 0 81.5 31.5t37.5 106.5v276 q-7 -3 -49 -20t-71.5 -30.5t-55.5 -27.5q-46 -27 -67 -65t-21 -105z" />
<glyph unicode="&#xe4;" horiz-adv-x="983" d="M88 236q0 78 40 130.5t134 88.5q19 7 70 25.5t78.5 29t66.5 26.5t66 30.5t45 27.5v102q0 79 -33 113.5t-82 34.5q-47 0 -88.5 -40.5t-77.5 -152.5q-18 -69 -57 -69q-24 0 -54.5 10.5t-57.5 36.5t-27 61q0 89 108.5 153t286.5 64q84 0 143.5 -16t91 -39t49 -60t21.5 -65.5 t4 -69.5v-426q0 -134 68 -149h69l-237 -102q-55 0 -82.5 26.5t-44.5 77.5q-4 -2 -26.5 -18t-31 -21t-31 -18.5t-37.5 -19t-37 -13.5t-44.5 -11t-46.5 -3q-117 0 -181.5 74t-64.5 182zM186 1171q0 57 33 100.5t90 43.5t89 -43.5t32 -100.5q0 -58 -32 -99.5t-89 -41.5 t-90 41.5t-33 99.5zM324 266q0 -75 42 -120.5t103 -45.5q47 0 81.5 31.5t37.5 106.5v276q-7 -3 -49 -20t-71.5 -30.5t-55.5 -27.5q-46 -27 -67 -65t-21 -105zM608 1171q0 57 33 100.5t90 43.5t90 -43.5t33 -100.5q0 -58 -33 -99.5t-90 -41.5t-90 41.5t-33 99.5z" />
<glyph unicode="&#xe5;" horiz-adv-x="983" d="M88 236q0 78 40 130.5t134 88.5q19 7 70 25.5t78.5 29t66.5 26.5t66 30.5t45 27.5v102q0 79 -33 113.5t-82 34.5q-47 0 -88.5 -40.5t-77.5 -152.5q-18 -69 -57 -69q-24 0 -54.5 10.5t-57.5 36.5t-27 61q0 89 108.5 153t286.5 64q84 0 143.5 -16t91 -39t49 -60t21.5 -65.5 t4 -69.5v-426q0 -134 68 -149h69l-237 -102q-55 0 -82.5 26.5t-44.5 77.5q-4 -2 -26.5 -18t-31 -21t-31 -18.5t-37.5 -19t-37 -13.5t-44.5 -11t-46.5 -3q-117 0 -181.5 74t-64.5 182zM319 1241q0 108 58.5 159.5t142.5 51.5t142.5 -51.5t58.5 -159.5q0 -109 -58.5 -160 t-142.5 -51t-142.5 51t-58.5 160zM324 266q0 -75 42 -120.5t103 -45.5q47 0 81.5 31.5t37.5 106.5v276q-7 -3 -49 -20t-71.5 -30.5t-55.5 -27.5q-46 -27 -67 -65t-21 -105zM410 1241q0 -72 30 -111.5t80 -39.5q46 0 78.5 40.5t32.5 110.5t-32.5 110t-78.5 40 q-51 0 -80.5 -39t-29.5 -111z" />
<glyph unicode="&#xe7;" horiz-adv-x="907" d="M96 438q0 222 110.5 345.5t315.5 123.5q80 0 151.5 -21t120 -65t48.5 -102l-137 -107q-49 0 -62 56q-28 94 -57 135t-78 41q-63 0 -107.5 -92.5t-44.5 -268.5q0 -107 19 -184t52 -118t71.5 -59t83.5 -18q12 0 32.5 -1t28.5 -1q47 0 82 20t84 83l41 -25 q-45 -64 -86 -105.5t-78.5 -60t-66 -24.5t-64.5 -6h-16l-62 -97q27 -4 51 -11.5t53.5 -23.5t47.5 -46.5t18 -71.5q0 -55 -26.5 -93.5t-69.5 -55.5t-79 -23t-73 -6q-46 0 -71 2v43q170 0 170 114q0 28 -10 47.5t-28 30t-34.5 16.5t-39 11t-30.5 8l105 156q-169 12 -267 128 t-98 326z" />
<glyph unicode="&#xe8;" horiz-adv-x="964" d="M98 442q0 99 23 180.5t70.5 146.5t129.5 101.5t191 36.5q92 0 162 -25.5t109.5 -63.5t64 -91t32 -99t7.5 -96q0 -38 -19 -53.5t-59 -15.5h-463q0 -166 59.5 -265.5t188.5 -99.5h12q82 0 124.5 16.5t96.5 84.5l35 -29q-69 -117 -137 -153.5t-217 -36.5h-4q-89 0 -159.5 25 t-116 67t-75.5 102t-42.5 126t-12.5 142zM266 1356q0 35 25.5 72.5t52.5 37.5q24 0 47.5 -20t71.5 -78l258 -289l-25 -49l-319 203q-111 67 -111 123zM346 535h229q41 0 55.5 14t14.5 57q0 40 -5 76t-18.5 75.5t-43 63t-72.5 23.5q-44 0 -76.5 -28t-50 -74.5t-25.5 -98 t-8 -108.5z" />
<glyph unicode="&#xe9;" horiz-adv-x="964" d="M98 442q0 99 23 180.5t70.5 146.5t129.5 101.5t191 36.5q92 0 162 -25.5t109.5 -63.5t64 -91t32 -99t7.5 -96q0 -38 -19 -53.5t-59 -15.5h-463q0 -166 59.5 -265.5t188.5 -99.5h12q82 0 124.5 16.5t96.5 84.5l35 -29q-69 -117 -137 -153.5t-217 -36.5h-4q-89 0 -159.5 25 t-116 67t-75.5 102t-42.5 126t-12.5 142zM264 1079l258 289q42 55 68.5 76.5t50.5 21.5q26 0 53 -38t27 -72q0 -32 -30 -60t-85 -63l-315 -203zM346 535h229q41 0 55.5 14t14.5 57q0 40 -5 76t-18.5 75.5t-43 63t-72.5 23.5q-44 0 -76.5 -28t-50 -74.5t-25.5 -98t-8 -108.5z " />
<glyph unicode="&#xea;" horiz-adv-x="964" d="M98 442q0 99 23 180.5t70.5 146.5t129.5 101.5t191 36.5q92 0 162 -25.5t109.5 -63.5t64 -91t32 -99t7.5 -96q0 -38 -19 -53.5t-59 -15.5h-463q0 -166 59.5 -265.5t188.5 -99.5h12q82 0 124.5 16.5t96.5 84.5l35 -29q-69 -117 -137 -153.5t-217 -36.5h-4q-89 0 -159.5 25 t-116 67t-75.5 102t-42.5 126t-12.5 142zM180 1073l248 332q33 57 64 57q25 0 65 -57l248 -332l-27 -43l-209 189q-3 2 -10.5 7.5t-10.5 7t-9.5 6t-9.5 6l-9 4.5t-10 4t-8.5 2t-9.5 1q-21 0 -76 -38l-209 -189zM346 535h229q41 0 55.5 14t14.5 57q0 40 -5 76t-18.5 75.5 t-43 63t-72.5 23.5q-44 0 -76.5 -28t-50 -74.5t-25.5 -98t-8 -108.5z" />
<glyph unicode="&#xeb;" horiz-adv-x="964" d="M98 442q0 99 23 180.5t70.5 146.5t129.5 101.5t191 36.5q92 0 162 -25.5t109.5 -63.5t64 -91t32 -99t7.5 -96q0 -38 -19 -53.5t-59 -15.5h-463q0 -166 59.5 -265.5t188.5 -99.5h12q82 0 124.5 16.5t96.5 84.5l35 -29q-69 -117 -137 -153.5t-217 -36.5h-4q-89 0 -159.5 25 t-116 67t-75.5 102t-42.5 126t-12.5 142zM160 1171q0 57 32.5 100.5t90.5 43.5q55 0 86.5 -43.5t31.5 -100.5q0 -58 -31 -99.5t-87 -41.5q-58 0 -90.5 41.5t-32.5 99.5zM346 535h229q41 0 55.5 14t14.5 57q0 40 -5 76t-18.5 75.5t-43 63t-72.5 23.5q-44 0 -76.5 -28 t-50 -74.5t-25.5 -98t-8 -108.5zM582 1171q0 57 32.5 100.5t90.5 43.5q55 0 88.5 -43.5t33.5 -100.5t-33 -99t-89 -42q-58 0 -90.5 41.5t-32.5 99.5z" />
<glyph unicode="&#xec;" horiz-adv-x="542" d="M4 1356q0 34 26 72t52 38q24 0 49 -20.5t72 -77.5l256 -289l-25 -49l-317 203q-54 33 -83.5 62t-29.5 61zM55 860l351 47l2 -4v-903h-244v694q0 20 -20 52.5t-38 54.5t-51 59z" />
<glyph unicode="&#xed;" horiz-adv-x="542" d="M4 1079l258 289q43 56 68.5 77t50.5 21t51.5 -38t26.5 -72q0 -32 -30 -61t-85 -62l-315 -203zM55 860l351 47l2 -4v-903h-244v694q0 20 -20 52.5t-38 54.5t-51 59z" />
<glyph unicode="&#xee;" horiz-adv-x="542" d="M-82 1073l250 332q33 57 61 57q31 0 66 -57l250 -332l-29 -43l-209 189q-55 38 -78 38q-18 0 -73 -38l-209 -189zM55 860l351 47l2 -4v-903h-244v694q0 20 -20 52.5t-38 54.5t-51 59z" />
<glyph unicode="&#xef;" horiz-adv-x="542" d="M-102 1171q0 57 32.5 100.5t89.5 43.5t89 -43.5t32 -100.5q0 -58 -32 -99.5t-89 -41.5t-89.5 41.5t-32.5 99.5zM55 860l351 47l2 -4v-903h-244v694q0 20 -20 52.5t-38 54.5t-51 59zM319 1171q0 57 33 100.5t90 43.5t90 -43.5t33 -100.5q0 -58 -33 -99.5t-90 -41.5 t-90 41.5t-33 99.5z" />
<glyph unicode="&#xf0;" horiz-adv-x="1064" d="M98 438q0 226 105.5 347.5t326.5 121.5q14 0 64 -8v8q-45 59 -141 162l-228 -104l-32 59l210 92q-70 75 -180 162v16l68 47q131 -73 250 -159l260 116l33 -59l-236 -106q91 -74 178 -177q187 -216 187 -507q0 -469 -433 -469q-432 0 -432 458zM340 438q0 -399 190 -399 q191 0 191 399q0 400 -191 400q-190 0 -190 -400z" />
<glyph unicode="&#xf1;" horiz-adv-x="1077" d="M57 860l316 47l22 -127q75 45 116.5 67t97 41t102.5 19q118 0 176.5 -72t60.5 -202v-633h-237v606q-6 180 -146 180q-106 0 -155 -96q-15 -40 -15 -115v-575h-235v694q0 21 -18.5 53.5t-35.5 54t-49 58.5zM147 1061q13 35 22 57.5t30 59.5t42 59t54.5 39.5t71.5 17.5 q65 0 153 -43q131 -43 168 -43q48 0 74.5 24.5t58.5 88.5l37 -31q-13 -36 -22 -57.5t-30 -59.5t-42 -59.5t-54 -39t-71 -17.5q-37 0 -147 43q-101 43 -175 43q-49 0 -75.5 -24.5t-57.5 -88.5z" />
<glyph unicode="&#xf2;" d="M98 442q0 224 105.5 344.5t326.5 120.5t327 -120.5t106 -344.5q0 -462 -433 -462q-432 0 -432 462zM303 1356q0 34 26 72t52 38q24 0 49 -20.5t72 -77.5l256 -289l-25 -49l-317 203q-54 33 -83.5 62t-29.5 61zM340 442q0 -401 190 -401q191 0 191 401q0 402 -191 402 q-190 0 -190 -402z" />
<glyph unicode="&#xf3;" d="M98 442q0 224 105.5 344.5t326.5 120.5t327 -120.5t106 -344.5q0 -462 -433 -462q-432 0 -432 462zM303 1079l258 289q43 56 68.5 77t50.5 21t51.5 -38t26.5 -72q0 -32 -30 -61t-85 -62l-315 -203zM340 442q0 -401 190 -401q191 0 191 401q0 402 -191 402 q-190 0 -190 -402z" />
<glyph unicode="&#xf4;" d="M98 442q0 224 105.5 344.5t326.5 120.5t327 -120.5t106 -344.5q0 -462 -433 -462q-432 0 -432 462zM217 1073l250 332q33 57 61 57q31 0 66 -57l250 -332l-29 -43l-209 189q-55 38 -78 38q-18 0 -73 -38l-209 -189zM340 442q0 -401 190 -401q191 0 191 401 q0 402 -191 402q-190 0 -190 -402z" />
<glyph unicode="&#xf5;" d="M98 442q0 224 105.5 344.5t326.5 120.5t327 -120.5t106 -344.5q0 -462 -433 -462q-432 0 -432 462zM176 1061q11 33 21 57.5t30 60t41.5 58.5t54.5 40t70 17q65 0 156 -43q131 -43 168 -43q47 0 74 25t57 88l37 -31q-11 -33 -21 -57.5t-30 -60t-41.5 -58.5t-54.5 -40 t-70 -17q-43 0 -148 43t-176 43q-48 0 -75 -25t-56 -88zM340 442q0 -401 190 -401q191 0 191 401q0 402 -191 402q-190 0 -190 -402z" />
<glyph unicode="&#xf6;" d="M98 442q0 224 105.5 344.5t326.5 120.5t327 -120.5t106 -344.5q0 -462 -433 -462q-432 0 -432 462zM197 1171q0 57 32.5 100.5t89.5 43.5t89 -43.5t32 -100.5q0 -58 -32 -99.5t-89 -41.5t-89.5 41.5t-32.5 99.5zM340 442q0 -401 190 -401q191 0 191 401q0 402 -191 402 q-190 0 -190 -402zM618 1171q0 57 33 100.5t90 43.5t90 -43.5t33 -100.5q0 -58 -33 -99.5t-90 -41.5t-90 41.5t-33 99.5z" />
<glyph unicode="&#xf7;" horiz-adv-x="897" d="M41 385v133h813v-133h-813zM346 129q0 49 30 84t73 35q44 0 74 -33.5t32 -79.5l-2 -6q0 -48 -31 -83.5t-73 -35.5t-72.5 35.5t-30.5 83.5zM346 774q0 49 30 84t73 35q44 0 74 -33.5t32 -79.5l-2 -6q0 -49 -30.5 -83t-73.5 -34t-73 34t-30 83z" />
<glyph unicode="&#xf8;" horiz-adv-x="1060" d="M98 442q0 224 105.5 344.5t326.5 120.5q127 0 207 -35l56 95l47 -35l-52 -86q175 -113 175 -404q0 -222 -106 -341t-327 -119q-122 0 -215 34l-59 -108l-45 45l53 94q-166 112 -166 395zM334 442q0 -109 31 -204l309 516q-52 90 -144 90q-103 0 -149.5 -102.5 t-46.5 -299.5zM383 141q52 -100 147 -100q197 0 197 401q0 135 -33 217z" />
<glyph unicode="&#xf9;" horiz-adv-x="1097" d="M53 852l334 49v-590q0 -110 41 -159.5t119 -49.5q59 0 97.5 28t51.5 67q13 41 13 104v387q0 24 -18.5 56.5t-34 51.5t-48.5 56l334 49v-754q0 -57 18.5 -71.5t94.5 -20.5l-217 -75q-49 4 -89 32.5t-40 79.5v8q-10 -6 -43.5 -27.5t-56 -33.5t-58 -28t-75.5 -23.5t-83 -7.5 q-47 0 -86.5 12.5t-74.5 40.5t-54.5 82t-19.5 129v444q0 21 -19 53.5t-36.5 53.5t-49.5 57zM328 1356q0 35 25.5 72.5t52.5 37.5q24 0 47 -20t71 -78l258 -289l-24 -49l-320 203q-110 67 -110 123z" />
<glyph unicode="&#xfa;" horiz-adv-x="1097" d="M53 852l334 49v-590q0 -110 41 -159.5t119 -49.5q59 0 97.5 28t51.5 67q13 41 13 104v387q0 24 -18.5 56.5t-34 51.5t-48.5 56l334 49v-754q0 -57 18.5 -71.5t94.5 -20.5l-217 -75q-49 4 -89 32.5t-40 79.5v8q-10 -6 -43.5 -27.5t-56 -33.5t-58 -28t-75.5 -23.5t-83 -7.5 q-47 0 -86.5 12.5t-74.5 40.5t-54.5 82t-19.5 129v444q0 21 -19 53.5t-36.5 53.5t-49.5 57zM326 1079l258 289q42 55 68.5 76.5t49.5 21.5q26 0 53 -38t27 -72q0 -32 -29.5 -60.5t-84.5 -62.5l-316 -203z" />
<glyph unicode="&#xfb;" horiz-adv-x="1097" d="M53 852l334 49v-590q0 -110 41 -159.5t119 -49.5q59 0 97.5 28t51.5 67q13 41 13 104v387q0 24 -18.5 56.5t-34 51.5t-48.5 56l334 49v-754q0 -57 18.5 -71.5t94.5 -20.5l-217 -75q-49 4 -89 32.5t-40 79.5v8q-10 -6 -43.5 -27.5t-56 -33.5t-58 -28t-75.5 -23.5t-83 -7.5 q-47 0 -86.5 12.5t-74.5 40.5t-54.5 82t-19.5 129v444q0 21 -19 53.5t-36.5 53.5t-49.5 57zM242 1073l247 332q33 57 64 57q25 0 65 -57l248 -332l-26 -43l-209 189q-55 38 -78 38q-21 0 -76 -38l-209 -189z" />
<glyph unicode="&#xfc;" horiz-adv-x="1097" d="M53 852l334 49v-590q0 -110 41 -159.5t119 -49.5q59 0 97.5 28t51.5 67q13 41 13 104v387q0 24 -18.5 56.5t-34 51.5t-48.5 56l334 49v-754q0 -57 18.5 -71.5t94.5 -20.5l-217 -75q-49 4 -89 32.5t-40 79.5v8q-10 -6 -43.5 -27.5t-56 -33.5t-58 -28t-75.5 -23.5t-83 -7.5 q-47 0 -86.5 12.5t-74.5 40.5t-54.5 82t-19.5 129v444q0 21 -19 53.5t-36.5 53.5t-49.5 57zM221 1171q0 57 32.5 100.5t90.5 43.5q55 0 87 -43.5t32 -100.5q0 -58 -31.5 -99.5t-87.5 -41.5q-58 0 -90.5 41.5t-32.5 99.5zM643 1171q0 57 32.5 100.5t90.5 43.5q55 0 89 -44 t34 -100q0 -57 -33.5 -99t-89.5 -42q-58 0 -90.5 41.5t-32.5 99.5z" />
<glyph unicode="&#xfd;" horiz-adv-x="935" d="M-2 885h324l221 -654h24q25 83 100 258t101 267q0 13 -3.5 25t-6.5 20.5t-11 18.5t-12 15.5t-15.5 15t-15 12t-17 12t-15.5 10.5h225l-401 -1016q-64 -188 -126.5 -259t-150.5 -71q-47 0 -86 29.5t-39 73.5l103 145h4q16 0 24.5 -12.5t14.5 -31.5t12 -26q10 -10 31 -10 q16 0 49 10q54 0 80 99q10 33 10 82q0 39 -10 69l-295 774q-31 56 -57.5 88.5t-61.5 55.5zM219 1079l258 289q42 55 68.5 76.5t50.5 21.5q26 0 53 -38t27 -72q0 -32 -30 -60t-85 -63l-315 -203z" />
<glyph unicode="&#xfe;" d="M25 -408q42 2 61 5.5t33 14.5t17 28t3 51v1583q0 59 -12 80t-43 26l-51 4v58l334 43l2 -4v-703q56 41 91 63t91.5 41t116.5 19q125 0 210 -111t85 -323q0 -115 -23 -201t-61 -139t-96.5 -85t-121.5 -44t-143 -12q-90 0 -149 18v-313q0 -63 24.5 -78.5t124.5 -20.5v-53 h-493v53zM369 272q0 -108 34 -167.5t115 -59.5q109 0 156 99.5t47 283.5q0 88 -11.5 153t-29 102.5t-43.5 60.5t-50.5 30.5t-54.5 7.5q-112 0 -153 -116q-10 -42 -10 -103v-291z" />
<glyph unicode="&#xff;" horiz-adv-x="935" d="M-2 885h324l221 -654h24q25 83 100 258t101 267q0 13 -3.5 25t-6.5 20.5t-11 18.5t-12 15.5t-15.5 15t-15 12t-17 12t-15.5 10.5h225l-401 -1016q-64 -188 -126.5 -259t-150.5 -71q-47 0 -86 29.5t-39 73.5l103 145h4q16 0 24.5 -12.5t14.5 -31.5t12 -26q10 -10 31 -10 q16 0 49 10q54 0 80 99q10 33 10 82q0 39 -10 69l-295 774q-31 56 -57.5 88.5t-61.5 55.5zM115 1171q0 57 32.5 100.5t90.5 43.5q55 0 86.5 -43.5t31.5 -100.5q0 -58 -31 -99.5t-87 -41.5q-58 0 -90.5 41.5t-32.5 99.5zM537 1171q0 58 32 101t90 43q55 0 89 -44t34 -100 q0 -57 -33.5 -99t-89.5 -42q-58 0 -90 41.5t-32 99.5z" />
<glyph unicode="&#x178;" horiz-adv-x="1038" d="M-12 1323h360q-13 -6 -22 -17.5t-9 -23.5q0 -10 9 -22l262 -615h20q175 418 242 602q10 30 10 43q0 24 -18 33h194q-24 -11 -39.5 -28t-38.5 -54q-46 -92 -150.5 -333.5t-127.5 -291.5q-33 -78 -33 -141v-397q0 -62 21 -78h-285q20 18 20 78v379q0 57 -55 135l-276 643 q-31 59 -84 88zM215 1542q0 55 32 95t87 40q57 0 88 -40t31 -95q0 -54 -31 -92.5t-88 -38.5q-55 0 -87 39t-32 92zM647 1542q0 55 32.5 95t88.5 40q57 0 89 -40t32 -95q0 -53 -32 -92t-89 -39q-56 0 -88.5 39t-32.5 92z" />
<glyph unicode="&#x2c6;" horiz-adv-x="778" d="M76 1032l248 332q33 57 63 57q26 0 66 -57l247 -332l-26 -43l-209 189q-3 2 -12 8.5t-12 8.5t-10.5 6.5t-11.5 6.5t-10.5 4.5t-11.5 3.5t-10 1q-19 0 -76 -39l-209 -189z" />
<glyph unicode="&#x2dc;" horiz-adv-x="888" d="M90 1083q13 37 22 58t30 59t42 60t54 39.5t71 17.5q66 0 154 -43q131 -43 168 -43q48 0 74.5 24.5t58.5 87.5l37 -30q-13 -37 -22 -58t-30 -59t-42 -60t-54 -39.5t-71 -17.5t-148 43q-101 43 -174 43q-49 0 -75.5 -24t-57.5 -88z" />
<glyph unicode="&#x2000;" horiz-adv-x="870" />
<glyph unicode="&#x2001;" horiz-adv-x="1741" />
<glyph unicode="&#x2002;" horiz-adv-x="870" />
<glyph unicode="&#x2003;" horiz-adv-x="1741" />
<glyph unicode="&#x2004;" horiz-adv-x="580" />
<glyph unicode="&#x2005;" horiz-adv-x="435" />
<glyph unicode="&#x2006;" horiz-adv-x="290" />
<glyph unicode="&#x2007;" horiz-adv-x="290" />
<glyph unicode="&#x2008;" horiz-adv-x="217" />
<glyph unicode="&#x2009;" horiz-adv-x="348" />
<glyph unicode="&#x200a;" horiz-adv-x="96" />
<glyph unicode="&#x2010;" horiz-adv-x="712" d="M135 385v182h443v-182h-443z" />
<glyph unicode="&#x2011;" horiz-adv-x="712" d="M135 385v182h443v-182h-443z" />
<glyph unicode="&#x2012;" horiz-adv-x="712" d="M135 385v182h443v-182h-443z" />
<glyph unicode="&#x2013;" horiz-adv-x="1024" d="M135 385v182h754v-182h-754z" />
<glyph unicode="&#x2014;" horiz-adv-x="2048" d="M135 385v182h1778v-182h-1778z" />
<glyph unicode="&#x2018;" horiz-adv-x="466" d="M94 956q0 58 23 119t62.5 114.5t79.5 96.5t87 82l35 -43q-105 -117 -105 -235q0 -43 34 -105t34 -104q0 -51 -28 -86t-80 -35h-3q-60 0 -99.5 53.5t-39.5 142.5z" />
<glyph unicode="&#x2019;" horiz-adv-x="468" d="M86 778q107 126 107 236q0 44 -36 106t-36 105q0 49 29.5 85t82.5 36h3q60 0 99.5 -55.5t39.5 -145.5q0 -190 -254 -410z" />
<glyph unicode="&#x201a;" horiz-adv-x="468" d="M86 -248q107 126 107 238q0 42 -36 103.5t-36 103.5q0 49 29.5 84.5t82.5 35.5h5q59 0 98 -54t39 -144q0 -186 -254 -410z" />
<glyph unicode="&#x201c;" horiz-adv-x="843" d="M96 956q0 197 238 412l31 -43q-97 -119 -97 -235q0 -43 32 -105t32 -104q0 -51 -26.5 -86t-76.5 -35h-2q-57 0 -94 53.5t-37 142.5zM483 956q0 197 238 412l33 -43q-99 -122 -99 -235q0 -43 33 -105t33 -104q0 -51 -27.5 -86t-77.5 -35h-2q-57 0 -94 53.5t-37 142.5z" />
<glyph unicode="&#x201d;" horiz-adv-x="837" d="M86 778q98 124 98 236q0 44 -32.5 106t-32.5 105q0 50 27 85.5t77 35.5h2q56 0 92.5 -55t36.5 -146q0 -189 -235 -410zM473 778q98 124 98 236q0 44 -32.5 106t-32.5 105q0 50 27 85.5t77 35.5h2q57 0 94 -55t37 -146q0 -187 -237 -410z" />
<glyph unicode="&#x201e;" horiz-adv-x="837" d="M86 -248q98 124 98 238q0 42 -32.5 103.5t-32.5 103.5q0 49 27 84.5t77 35.5h2q57 0 93 -53.5t36 -144.5q0 -184 -235 -410zM473 -248q98 124 98 238q0 42 -32.5 103.5t-32.5 103.5q0 49 27 84.5t77 35.5h2q57 0 94 -54t37 -144q0 -182 -237 -410z" />
<glyph unicode="&#x2022;" horiz-adv-x="866" d="M102 670q0 140 95 238t235 98q134 0 230 -98.5t96 -237.5q0 -141 -96 -240.5t-230 -99.5q-140 0 -235 97.5t-95 242.5z" />
<glyph unicode="&#x2026;" horiz-adv-x="1572" d="M104 154q0 77 43.5 126.5t112.5 49.5t111.5 -49.5t42.5 -126.5q-5 -80 -45.5 -128.5t-108.5 -48.5q-69 0 -112.5 49.5t-43.5 127.5zM629 154q0 77 43 126.5t112 49.5t111.5 -49.5t42.5 -126.5q-5 -80 -45.5 -128.5t-108.5 -48.5q-69 0 -112 49.5t-43 127.5zM1153 154 q0 77 43.5 126.5t112.5 49.5q68 0 110.5 -49.5t42.5 -126.5q-5 -80 -45 -128.5t-108 -48.5q-69 0 -112.5 49.5t-43.5 127.5z" />
<glyph unicode="&#x202f;" horiz-adv-x="348" />
<glyph unicode="&#x2039;" horiz-adv-x="491" d="M49 475q0 16 17 33l303 375l34 -33l-141 -336q-6 -18 -6 -39q0 -18 6 -39l141 -336l-34 -30l-303 374q-17 14 -17 31z" />
<glyph unicode="&#x203a;" horiz-adv-x="495" d="M88 100l141 336q7 24 7 39q0 18 -7 39l-141 336l33 33l303 -375q18 -15 18 -31q0 -18 -18 -33l-303 -374z" />
<glyph unicode="&#x205f;" horiz-adv-x="435" />
<glyph unicode="&#x20ac;" horiz-adv-x="1105" d="M29 502l51 90h80q2 29 2 63q0 33 -2 62h-131l51 88h86q15 86 31 138t47 118q69 149 183 235t243 86q58 0 98 -13.5t117 -59.5q21 -15 53 -15q60 0 76 99h16q-2 -138 -12.5 -197t-42.5 -70q-33 90 -109 151.5t-159 61.5q-118 0 -185 -130t-90 -404h383l-51 -88h-332 q-8 -27 -8 -47q0 -41 8 -78h244l-51 -90h-189q20 -237 91.5 -365.5t185.5 -128.5q86 0 172 64t133 164q16 -22 16 -48q0 -28 -16 -47q-150 -172 -359 -172q-200 0 -325.5 136t-165.5 397h-139z" />
<glyph unicode="&#x2122;" horiz-adv-x="1814" d="M70 1102v215h641v-215h-25q-14 94 -48.5 129t-98.5 35h-62v-619q0 -39 6.5 -54t32.5 -18l72 -10v-39h-395v39l69 10q25 3 33 18.5t8 53.5v619h-61q-64 0 -97.5 -34.5t-50.5 -129.5h-24zM782 526v39l39 4q36 4 43.5 40.5t7.5 164.5v430q0 31 -7.5 45t-33.5 17l-47 10v41 h293q44 -154 74 -242l94 -266h27l94 266l70 242h293v-41l-48 -6q-28 -3 -36.5 -18t-8.5 -48v-559q0 -40 9.5 -56t42.5 -20l41 -4v-39h-336v39l39 6q32 7 38.5 20t6.5 54v549h-33l-211 -647h-70l-219 647h-31v-420q0 -124 9 -162.5t45 -42.5l57 -4v-39h-242z" />
<glyph unicode="&#x25fc;" horiz-adv-x="880" d="M0 0v881h881v-881h-881z" />
</font>
</defs>
</svg>
